<?xml version="1.0" encoding="utf-8"?>
<!-- Generator: Adobe Illustrator 13.0.0, SVG Export Plug-In  -->
<!DOCTYPE svg PUBLIC "-//W3C//DTD SVG 1.1 Tiny//EN" "http://www.w3.org/Graphics/SVG/1.1/DTD/svg11-tiny.dtd" [
	<!ENTITY ns_flows "http://ns.adobe.com/Flows/1.0/">
]>
<svg version="1.1" baseProfile="tiny"
	 xmlns="http://www.w3.org/2000/svg" xmlns:xlink="http://www.w3.org/1999/xlink" xmlns:a="http://ns.adobe.com/AdobeSVGViewerExtensions/3.0/"
	 x="0px" y="0px" width="109px" height="151px" viewBox="-0.94 -0.794 109 151" xml:space="preserve">
<defs>
</defs>
<path fill-rule="evenodd" d="M39.27,21.458c0.133,0.047,0.221,0.138,0.215,0.322C39.353,21.734,39.265,21.643,39.27,21.458z"/>
<path fill-rule="evenodd" d="M20.172,40.343c0.042-0.267,0.416-0.006,0.321,0.215C20.353,40.521,20.325,40.37,20.172,40.343z"/>
<path fill-rule="evenodd" d="M67.597,41.846c0.205,0.224,0.346,0.511,0.429,0.858C67.792,42.508,67.557,42.313,67.597,41.846z"/>
<path fill-rule="evenodd" d="M84.227,45.601C84.299,45.293,84.01,46.541,84.227,45.601L84.227,45.601z"/>
<path fill-rule="evenodd" d="M91.845,50.751C92.231,51.363,91.575,51.223,91.845,50.751L91.845,50.751z"/>
<path fill-rule="evenodd" d="M91.845,54.721c0.274,0.227,0.21,0.792,0.215,1.288C91.876,55.692,91.833,55.235,91.845,54.721z"/>
<path fill-rule="evenodd" d="M75.858,55.794c0.208-0.236,0.602,0.25,0.645,0.536C76.22,56.219,76.141,55.906,75.858,55.794z"/>
<path fill-rule="evenodd" d="M92.06,56.224C92.131,55.916,91.843,57.164,92.06,56.224L92.06,56.224z"/>
<path fill-rule="evenodd" d="M79.614,58.261c0.64-0.066,1.053,1.021,1.179,1.825C80.38,59.499,80.276,58.601,79.614,58.261z"/>
<path fill-rule="evenodd" d="M75.107,59.978c1.036,1.148,2.064,2.3,2.254,4.292C76.802,62.647,75.923,61.346,75.107,59.978z"/>
<path fill-rule="evenodd" d="M76.395,60.836c0.044-0.267,0.416-0.006,0.322,0.215C76.576,61.014,76.548,60.863,76.395,60.836z"/>
<path fill-rule="evenodd" d="M88.627,62.125c0.328,0.208,0.431,0.64,0.428,1.179C88.835,62.99,88.756,62.531,88.627,62.125z"/>
<path fill-rule="evenodd" d="M62.875,66.631c0.248-0.032,0.12,0.311,0.322,0.321C63.078,67.267,62.849,66.816,62.875,66.631z"/>
<path fill-rule="evenodd" d="M54.4,76.074c-0.021-0.176,0.702-0.217,0.536,0.107C54.633,76.269,54.658,76.03,54.4,76.074z"/>
<path fill-rule="evenodd" d="M73.605,78.22c-0.398,0.209-0.926,0.29-1.503,0.321C72.502,78.333,73.03,78.25,73.605,78.22z"/>
<path fill-rule="evenodd" d="M46.781,82.403C47.602,82.03,47.502,82.651,46.781,82.403L46.781,82.403z"/>
<path fill-rule="evenodd" d="M50.751,83.691C50.515,84.019,50.064,83.568,50.751,83.691L50.751,83.691z"/>
<path fill-rule="evenodd" d="M56.224,84.12c-0.047,0.132-0.138,0.221-0.322,0.215C55.948,84.204,56.039,84.114,56.224,84.12z"/>
<path fill-rule="evenodd" d="M42.489,89.7c0.034-0.146,0.268-0.089,0.429-0.107C42.886,89.738,42.65,89.682,42.489,89.7z"/>
<path fill-rule="evenodd" d="M99.572,100.216c0.533,2.367,0.361,5.092,0.429,7.724C99.41,105.942,99.861,102.961,99.572,100.216z"/>
<path fill-rule="evenodd" d="M66.738,105.044c0.333,0.303-0.188,0.665-0.107,1.072C66.299,105.813,66.819,105.451,66.738,105.044z"
	/>
<path fill-rule="evenodd" d="M103.328,129.4c0.508,0.287,0.188,0.876,0.213,1.502C103.141,130.443,103.523,130.076,103.328,129.4z"
	/>
<path fill-rule="evenodd" d="M67.059,134.014c-0.25,1.606-0.883,3.765-0.857,6.009C65.832,137.792,66.52,135.691,67.059,134.014z"/>
<path fill-rule="evenodd" d="M69.636,134.98c0.278,0.166,0.01,1.56,0,2.145C69.303,136.503,69.753,135.743,69.636,134.98z"/>
<path fill-rule="evenodd" d="M70.279,135.086c0.328,0.335-0.094,0.831,0,1.288C69.968,136.056,70.321,135.491,70.279,135.086z"/>
<path fill-rule="evenodd" d="M104.292,138.734c0.115,0.026,0.072,0.214,0.214,0.215C104.46,139.246,104.169,138.954,104.292,138.734
	z"/>
<path fill-rule="evenodd" d="M43.884,8.584c-0.498-1.934-1.797-3.066-3.003-4.292c0.812,0.119,2.055,0.732,2.896,1.181
	c-0.831-1.566-3.029-2.694-3.754-4.721c1.059,1.194,2.596,1.909,4.291,2.467C43.92,2.146,43.324,1.274,43.134,0
	c1.083,1.421,2.149,2.858,3.754,3.756c-0.205-0.867-0.438-1.709-0.75-2.468c1.002,0.713,1.692,2.669,2.896,3.541
	c-0.155-0.847-0.53-1.472-0.643-2.36c1.083,1.242,2.481,2.167,3.434,3.541c0.577-0.4-0.16-1.052,0-1.717
	c1.005,1.176,1.648,2.714,2.467,4.077c0.516-0.538-0.006-1.547,0.108-2.36c0.779,1.187,1.087,2.848,1.715,4.185
	c0.34-0.984-0.201-2.016-0.321-2.897c0.743,1.784,1.79,4.198,2.575,6.331c0.171,0.467-0.051,1.497,0.214,2.145
	c0.267,0.65,1.195,0.984,1.717,1.288c-0.35-1.474-1.381-3.196-1.931-4.828c0.773,0.658,1.321,1.54,2.146,2.146
	c-0.86-2.145-2.237-3.772-3.541-5.473c0.86,0.322,2.01,1.28,3.003,1.825c-0.155-0.812-0.771-2.089-1.179-3.004
	c0.734,0.589,1.267,1.38,1.931,2.038c-0.007-1.674-1.109-3.182-1.931-4.399c0.656,0.204,1.63,1.015,2.36,1.503
	c-0.475-1.493-2.121-2.742-2.467-4.721c0.772,1.23,1.958,2.046,3.218,2.789c0.202-0.883-0.47-1.818-0.322-3.003
	c0.732,1.484,1.415,3.019,2.682,3.97c-0.003-0.951-0.142-1.753-0.214-2.361c0.721,1.102,1.08,2.569,1.824,3.649
	c0.322-0.577-0.144-1.285,0-2.039c0.835,1.204,1.701,2.376,2.468,3.647c0.42-0.151,0.126-1.017,0.214-1.501
	c0.706,1.153,1.083,2.637,1.501,4.077c0.583-0.275,0.292-1.425,0.538-2.038c0.543,1.028,0.372,2.774,0.858,3.861
	c0.505-0.623-0.142-4.26,0.429-1.501c0.4,0.53,0.854,1.006,1.181,1.61c0.284-1.608-0.782-2.793-1.181-4.078
	c0.646,0.535,1.285,1.077,1.931,1.61c-0.621-1.56-1.685-2.679-1.931-4.614c0.589,1.271,1.598,2.123,2.682,2.897
	c-0.116-0.886-0.281-1.721-0.214-2.789c0.492,1.403,1.118,2.672,1.931,3.754c0.224-0.536,0.107-1.898,0-2.146
	c0.562,0.618,0.798,2.492,1.396,3.434c0.331-0.549-0.116-1.242,0-1.931c0.813,1.011,1.245,2.402,2.038,3.434
	c0.246-0.218,0.038-0.892,0.108-1.288c0.738,0.905,0.668,2.621,1.179,3.754c0.378-0.407,0.362-1.211,0.429-1.931
	c0.454,0.977,0.236,2.626,0.536,3.756c0.353-0.702,0.259-1.285,0.322-2.146c0.086,1.879,0.664,3.686,0.643,5.687
	c-0.023,2.508-1.45,5.099-0.321,7.617c0.393-1.192,0.06-1.961,0.107-3.325c0.526,0.439,0.669,1.261,1.395,1.501
	c-0.212-1.433-0.536-2.754-0.751-4.185c0.514,0.596,0.725,1.494,1.289,2.039c-0.325-2.001-1.219-3.431-1.824-5.15
	c0.653,0.706,1.299,1.418,2.038,2.039c-0.193-0.879-0.233-1.913-0.536-2.682c0.426,0.609,0.753,1.321,1.181,1.931
	c0.281-0.993-0.327-2.771-0.751-3.754c0.508,0.101,0.973,1.172,1.608,1.501c-0.396-1.392-1.167-2.408-1.179-4.184
	c0.398,1.173,1.167,1.979,2.038,2.682c-0.016-0.911-0.01-1.799,0.108-2.575c0.356,1.324,0.598,2.764,1.395,3.647
	c0.166-0.514,0.199-1.159,0.214-1.824c0.453,0.907,0.406,2.312,0.86,3.218c0.219-0.628,0.186-0.869,0.214-1.717
	c0.527,1.011,0.974,2.102,1.288,3.327c0.512-0.023,0.291-0.781,0.429-1.181c0.41,0.949,0.405,2.313,0.536,3.541
	c0.507-0.243,0.537-0.964,0.645-1.608c0.301,0.756,0.004,2.225,0.105,3.434c0.266-0.486,0.457-1.047,0.431-1.825
	c0.076,1.743,0.21,3.441,0,5.15c-0.282,2.303-1.767,4.121-1.181,6.76c0.489-0.584,0.319-1.827,0.536-2.682
	c0.442,2.253,0.485,4.522,0.536,6.974c0.27-0.586,0.197-1.159,0.215-2.146c0.547,1.336-0.033,2.802,0.107,4.078
	c0.215,1.944,1.125,3.662,1.287,5.687c0.151,1.888-0.101,3.729,0,6.007c0.225-0.322,0.614-1.04,0.859-1.715
	c0.176-0.485,0.479-1.891,0.429-1.289c-0.222,2.818-0.886,5.193-1.179,7.941c0.582,1.276,0.844,2.875,1.395,4.185
	c0.353-0.927-0.121-1.954-0.322-2.684c0.42,0.296,0.71,0.721,0.751,1.395c1.382,1.843,1.014,3.844,1.181,6.76
	c0.066,1.165,0.332,2.377,0.214,3.541c-0.206,2.017-1.618,3.58-1.823,5.473c-0.16,1.466-0.146,2.792,0,4.184
	c0.092,0.882,0.672,1.797,0.643,2.682c-0.037,1.119-0.674,1.573-0.536,2.899c0.362,3.511,3.249,4.667,4.722,7.081
	c0.777,1.274,1.066,2.66,1.717,4.399c-0.711-0.614-0.907-1.74-1.717-2.253c1.545,3.283,3.17,6.485,3.754,10.729
	c-0.674-0.576-0.719-1.781-1.286-2.467c-0.069,1.172,0.744,1.923,0.966,3.111c0.3,1.607-0.339,3.678,0.429,5.257
	c-0.192,0.51-0.29-0.161-0.536-0.214c0.472,2.007,0.373,4.726,0,6.759c-0.513-0.445,0.091-1.427-0.108-2.253
	c-1.812,6.275,3.817,9.575,2.361,16.523c-0.388,0.103-0.149-0.423-0.214-0.645c-0.478,0.92-0.161,2.631-0.859,3.327
	c0-0.43,0-0.857,0-1.288c-0.582,1.207-0.986,2.59-1.288,4.078c-0.458-0.269-0.064-1.553-0.214-1.823
	c-0.549,1.489-1.332,2.746-1.717,4.398c-0.249-0.609-0.037-1.68-0.107-2.469c-0.424,0.614-0.523,1.552-0.857,2.254
	c-0.062-1.42,0.33-3.316,0.213-5.15c-0.335,0.522-0.572,1.144-0.645,1.932c-0.528-0.694-0.259-2.42-0.213-3.111
	c-0.578,0.674-0.649,1.854-0.752,3.003c-0.223-0.169-0.035-0.75-0.214-0.966c-0.063-1.969,0.431-3.916,0.106-5.793
	c-0.363,0.46-0.552,1.093-0.535,1.931c-1.23-3.364,0.424-6.104,1.717-8.584c0.447-0.86-0.239-2.155-0.109-3.432
	c-0.361,0.672-0.451,1.622-0.428,2.682c-0.678-1.258-0.262-3.236-0.537-5.043c-0.389,0.505-0.25,1.538-0.43,2.253
	c-0.691-1.538-0.225-4.009-0.643-6.009c-0.477,0.633-0.09,2.128-0.215,3.113c-0.51-2.014,0.062-4.698-0.537-6.439
	c-0.414,0.265-0.301,1.058-0.32,1.717c-1.181-1.181-0.226-4.496-0.967-6.114c-0.309,0.316,0.15,0.773,0,1.288
	c-1.957-1.679-0.584-5.659-1.287-8.048c-0.346,0.535-0.006,1.185-0.107,2.039c-1.157-2.117-0.154-5.298-0.107-7.726
	c-0.599,0.546-0.621,1.668-0.751,2.682c-0.364-1.02-0.557-1.745-0.429-3.111c0.176-1.893,1.621-2.782,1.287-4.614
	c-0.254-1.389-0.783-3.365-2.253-3.647c-2.52,1.557-2.81,5.345-5.043,7.189c0.579-0.998,1.673-2.405,1.932-4.078
	c-1.283,1.972-2.292,4.219-4.4,5.366c-1.018,1.521-1.979,3.098-3.11,4.506c0.095-0.691,0.828-1.674,1.072-2.575
	c-1.009,1.1-1.737,2.815-2.791,4.078c-0.873,1.047-1.731,1.957-2.467,3.11c-0.006-1.006,1.266-1.666,1.288-3.003
	c-0.33,0.53-0.684,1.033-0.967,1.608c-0.261-0.478,0.365-0.992,0.538-1.395c-0.709,0.621-1.434,1.472-1.61,2.682
	c-0.088,0.604,0.209,1.273,0.107,1.932c-0.081,0.526-0.502,0.765-0.751,1.286c-0.662,1.4-0.763,3.237-1.395,4.4
	c-0.158-0.412,0.239-1.189,0.107-1.931c-0.687,0.706-1.176,1.611-1.824,2.358c-1.512,3.195,0.144,7.112-0.751,10.731
	c-0.335-0.772,0.119-1.789-0.107-2.253c-0.437,1.866-0.543,3.776-0.214,5.793c-0.346-0.119-0.34-0.592-0.322-1.073
	c-0.691,1.494-0.015,3.604,0.108,5.259c-0.324-0.359-0.379-0.981-0.538-1.503c-0.237,3.745,2.281,5.374,2.146,9.12
	c-0.037,1.02,0.028,2.119,0,3.434c-0.545-0.278-0.338-1.307-0.536-1.931c-0.409,1.38-0.768,2.81-0.967,4.397
	c-0.406-0.309-0.136-1.293-0.214-1.931c-0.602,1.507-1.611,2.608-2.146,4.185c-0.299-0.235,0.015-0.764,0-1.073
	c-0.62,0.134-0.951,1.481-1.503,2.039c-0.341-0.351,0.168-0.757,0.108-1.181c-0.483,0.732-1.005,1.43-1.181,2.469
	c-0.3-0.84,0.296-1.707,0.322-2.576c-0.863,1.498-1.85,2.871-2.253,4.828c-0.28-1.428,0.841-2.941,0.321-4.612
	c-0.283,0.753-0.614,1.46-0.643,2.468c-0.464-0.467-0.215-1.646-0.429-2.361c-0.579,0.781-0.803,1.916-0.751,3.327
	c-0.579-0.991-0.721-2.531-0.536-3.756c-0.869,0.598-1.132,1.8-1.395,3.003c-0.535-1.211-0.009-2.938,0.107-4.184
	c-0.636,1.438-1.534,2.616-2.253,3.971c0.331-1.958,1.616-3.893,1.501-6.652c-0.825,0.84-1.034,1.885-1.395,2.79
	c-0.092,0.233,0.072,0.909-0.107,0.428c-0.492-1.324,0.316-3.804,0.75-5.472c-0.788,0.854-1.074,2.215-1.501,3.433
	c-0.167-1.489,0.587-2.988,1.181-4.077c-1.053,0.699-1.941,1.564-2.253,3.005c-0.059-2.954,2.231-4.491,3.539-6.437
	c-0.731,0.199-1.863,0.923-2.253,1.824c-0.142-0.801,0.539-1.26,0.858-1.824c0.34-0.6,0.456-1.348,0.967-1.932
	c0.762-0.872,2.117-1.156,2.789-2.039c1.157-1.516,0.817-3.693,1.288-6.116c-0.461,0.755-0.625,1.808-0.965,2.683
	c0.264-2.543,0.212-5.706,0.751-8.369c-0.636,0.617-0.659,1.844-0.965,2.791c-0.278-1.995,0.202-4.162,0.75-5.687
	c-0.595,0.297-0.804,0.983-0.965,1.715c-0.168-1.348,0.558-2.732,0.643-4.184c-0.303-0.122-0.633,0.65-0.75,1.072
	c0.126-2.14-0.278-4.553-0.536-6.652c-0.407,0.558-0.545,1.387-1.074,1.824c-0.114-0.545,0.546-1.239,0.536-2.039
	c-1.003,0.5-2.164,1.771-3.111,2.682c0.078-0.602,0.792-1.496,1.072-2.253c-1.258,0.744-2.281,2.654-3.218,4.077
	c0.007-0.743,0.439-1.992,0.645-2.896c-0.521,0.231-1.452,0.98-1.932,1.608c0.092-0.48,0.69-1.381,0.965-2.038
	c-1.301,0.416-1.953,1.481-2.682,2.467c-0.148-0.579,0.352-1.436,0.429-2.146c-0.911,0.593-1.619,2.316-2.789,3.004
	c0.331-0.741,1.11-1.963,1.181-3.325c-0.535,0.041-1.358,0.715-2.039,0.965c0.504-0.855,1.846-1.8,2.253-3.111
	c-0.652,0.1-1.135,0.366-1.61,0.643c0.305-0.768,1.564-1.509,2.146-2.36c-0.68,0.034-0.98,0.451-1.61,0.536
	c0.768-0.914,1.408-1.954,2.146-2.896c-0.305-0.333-0.665,0.188-1.072,0.107c0.662-0.948,1.871-1.348,2.575-2.253
	c-0.845-0.201-0.877,0.41-1.396,0.535c0.207-0.331,0.271-0.524-0.214-0.321c0.305-0.482,1.034-0.539,1.072-1.288
	c-1.187,0.201-2.871,1.588-4.077,2.468c0.491-0.582,0.945-1.201,1.288-1.931c-2.543,1.961-4.928,5.014-6.867,7.939
	c0.097-0.693,0.831-1.673,1.074-2.575c-0.996,0.916-1.506,2.446-2.468,3.647c-0.945,1.181-2.045,2.295-2.791,3.541
	c0.063-1.012,1.238-1.837,1.396-3.111c-0.45,0.48-0.735,1.125-1.074,1.717c-0.262-0.516,0.423-1.005,0.538-1.501
	c-0.694,0.713-1.522,1.715-1.61,3.004c-0.075,1.072,0.35,1.912-0.322,2.896c-0.041,0.06-0.287,0.032-0.321,0.108
	c-0.642,1.378-0.722,3.088-1.289,4.292c-0.287-0.472,0.193-1.093,0.108-1.718c-0.936,0.394-1.557,2.016-2.361,2.897
	c-0.059-0.489,0.454-1.333,0.536-2.039c-0.936,0.746-1.525,2.767-2.145,4.185c-0.059-0.488,0.041-1.744,0-2.575
	c-0.444,0.595-1.056,1.02-1.289,1.824c-0.129-0.489,0.293-1.351,0.431-1.931c-0.99,0.549-1.45,1.626-1.932,2.682
	c-0.24-0.459-0.088-1.444,0-1.93c-0.877,0.945-0.999,2.65-2.146,3.327c0.504-0.748,0.675-1.83,0.643-3.113
	c-0.772,0.3-0.98,1.165-1.824,1.394c0.658-0.845,1.216-1.788,1.503-3.002c-0.349-0.06-0.981,0.517-1.288,0.858
	c0.103-0.829,1.181-1.61,1.501-2.577c-0.486,0.192-0.779,0.58-1.181,0.858c0.108-0.894,0.88-2.052,1.288-3.004
	c-0.479,0.022-0.727,0.275-0.965,0.538c0.116-0.923,1.348-1.657,1.824-2.575c-0.706-0.026-0.907,0.45-1.501,0.536
	c0.579-0.816,1.567-1.222,2.146-2.039c-0.623,0.164-1.112,0.463-1.503,0.858c1.02-0.923,2.032-2.29,3.435-3.218
	c1.652-1.096,4.085-1.286,5.042-3.111c-0.853,0.292-1.465,0.823-2.039,1.395c0.842-1.663,2.811-3.127,4.078-4.721
	c-0.478,0.346-0.949,0.694-1.288,1.181c0.81-1.658,3.199-2.666,3.863-4.828c-0.1-0.293-0.335,0.149-0.645,0
	c1.132-0.584,1.822-1.613,2.575-2.575c-2.667,0.807-4.091,3.196-6.33,4.72c0.322-0.822,1.515-1.702,2.038-2.682
	c-1.428,0.593-2.125,2.205-3.325,3.22c-1.453,1.228-3.177,1.929-4.614,3.22c0.782-1.006,1.915-1.663,2.468-2.899
	c-0.349,0.262-1.154,0.99-1.61,1.503c-0.161-0.628,0.88-0.977,1.074-1.61c-1.707,1.022-2.583,2.35-2.791,4.507
	c-0.063,0.647-0.935,1.039-1.395,1.608c-1.066,1.32-1.654,3.209-2.684,4.292c-0.035-0.467,0.582-1.206,0.645-1.931
	c-1.075,0.498-2.325,1.752-3.327,2.682c0.056-0.664,0.866-1.494,1.181-2.253c-1.521,1.018-2.439,2.64-3.541,4.078
	c0.069-0.686,0.516-1.916,0.751-2.791c-0.466,0.286-1.528,0.904-1.932,1.61c-0.059-0.598,0.652-1.352,0.965-1.932
	c-1.184,0.211-2.172,1.547-3.004,2.468c0.037-0.466,0.415-1.516,0.645-2.146c-1.005,0.64-1.835,2.385-3.111,3.111
	c0.394-0.753,1.245-1.972,1.395-3.325c-0.606,0.108-1.46,0.898-2.36,1.072c0.986-0.911,2.008-1.783,2.575-3.113
	c-0.7,0.125-1.093,0.555-1.825,0.645c0.791-0.819,1.853-1.367,2.468-2.361c-0.533,0.183-0.968,0.463-1.503,0.645
	c-0.101-0.335,0.584-0.911,0.965-1.395c0.425-0.536,0.832-1.087,1.181-1.501c-0.549-0.086-0.703,0.226-1.181,0.214
	c0.747-0.935,1.97-1.393,2.791-2.253c-0.712-0.069-1.132,0.154-1.717,0.214c0.724-0.814,2.162-0.914,2.897-1.717
	c-0.735,0.16-1.534,0.256-2.039,0.643c-0.265,0.015-0.182-0.129,0-0.107c1.443-0.917,3.231-1.49,4.614-2.467
	c2.55-0.312,4.958-0.763,6.545-2.039c-0.781-0.064-1.854,0.507-2.575,0.858c1.352-1.438,3.794-2.716,5.793-3.863
	c-0.599-0.097-1.386,0.542-1.931,0.858c0.731-1.415,3.696-1.525,4.506-3.218c-2.301,0.164-4.138,1.629-6.33,2.253
	c0.397-0.713,2.048-1.099,2.682-1.932c-1.616,0.409-2.896,1.482-4.506,2.039c-1.594,0.552-3.256,0.879-4.937,1.501
	c0.891-0.788,2.423-0.939,3.111-1.931c-0.699,0.303-1.443,0.56-2.038,0.967c-0.063-0.495,1.009-0.778,1.501-1.074
	c-1.989,0.192-3.598,1.695-4.292,3.541c-2.221,0.776-3.475,2.706-5.58,3.863c0.409-0.558,1.015-0.917,1.289-1.61
	c-1.245,0.151-2.682,1.039-4.078,1.395c0.611-0.605,1.387-1.044,1.932-1.717c-1.874,0.633-3.22,1.79-4.723,2.791
	c0.338-0.63,1.146-1.717,1.718-2.468c-0.52,0.126-1.762,0.456-2.361,0.858c0.06-0.514,1.093-0.98,1.503-1.503
	c-1.586,0.062-2.517,0.775-3.542,1.396c0.075-0.57,0.877-1.337,1.288-1.931c-1.37,0.631-2.429,1.576-3.97,2.038
	c-0.066-0.448,0.565-0.394,0.858-0.643c0.609-0.521,0.965-1.484,1.503-2.039c-0.546-0.079-1.518,0.341-2.468,0.215
	c1.211-0.541,2.465-1.04,3.218-2.039c-0.538,0.07-1.356-0.141-1.717,0.107c0.425-0.577,2.099-0.833,2.897-1.395
	c-0.346-0.306-1.402,0.047-1.61-0.107c0.986-0.661,2.002-1.289,3.004-1.932c-0.28-0.423-0.825,0.063-1.181-0.214
	c0.929-0.574,2.35-0.656,3.327-1.181c-0.403-0.277-1.006-0.352-1.717-0.321c0.807-0.517,2.355-0.293,3.327-0.645
	c-0.448-0.34-1.397-0.177-2.146-0.215c1.91-0.224,3.825-0.848,5.793-0.751c2.238,0.111,4.315,1.03,6.331,0.108
	c-0.75-0.432-1.613-0.04-2.791-0.108c2.01-0.816,4.424-1.228,6.76-1.715c-0.579-0.29-1.301,0.198-2.039,0.107
	c0.891-0.772,2.662-0.344,3.97-0.751c2.634-0.819,4.714-2.789,8.048-2.789c-2.646-0.804-5.5,0.406-8.476,0.107
	c1.304-0.412,2.856-0.577,4.077-1.072c-3.018,0.059-5.454,0.75-8.905,0.536c-1.056-0.066-2.153-0.173-3.327-0.108
	c1.329-0.423,3.186-0.318,4.292-0.965c-0.813-0.239-1.85,0.224-2.791,0.215c0.384-0.583,1.526-0.406,2.253-0.645
	c-1.737-0.281-3.546,0.073-4.721,0.858c-1.365,0.914-1.219,1.69-3.327,2.039c-1.998,0.331-4,1.409-6.33,2.038
	c0.652-0.562,1.685-0.747,2.146-1.501c-1.532-0.063-3.81,0.125-5.257,0.215c0.842-0.554,2.017-0.773,2.897-1.288
	c-2.345-0.091-4.55,0.886-6.653,1.395c0.971-0.819,2.133-1.444,3.006-2.361c-0.908,0.239-2.291,0-3.22,0.215
	c0.747-0.434,1.597-0.763,2.467-1.072c-1.397-0.693-3.39-0.025-4.828,0.214c0.678-0.646,1.563-1.084,2.254-1.717
	c-1.856,0.183-3.127,0.949-5.366,0.751c1.617-0.422,2.89-1.188,3.863-2.253c-1.126-0.091-2.194-0.237-3.111-0.538
	c1.78-0.151,3.429-0.434,4.721-1.072c-0.51-0.492-1.513-0.489-2.253-0.751c1.332-0.207,2.921-0.154,4.184-0.429
	c-0.442-0.451-1.427-0.362-2.038-0.645c1.292-0.53,2.918-0.728,4.291-1.179c-0.149-0.495-0.92-0.368-1.286-0.645
	c1.216-0.249,2.896-0.035,4.292-0.107c-0.028-0.476-1.122-0.809-1.718-1.074c1.301-0.224,2.631,0.445,3.971,0.538
	c-0.217-0.536-1.542-0.889-2.468-1.072c1.194-0.104,2.234,0.311,3.327,0.535c1.106,0.229,2.344,0.201,3.432,0.538
	c2.167,0.668,4.11,3.021,7.619,2.682c-0.85-0.615-2.112-0.819-3.325-1.072c2.914-0.268,5.849,0.27,8.798,0.536
	c-0.595-0.479-1.753-0.393-2.575-0.645c3.069-0.335,4.827,1.311,7.51,0.215c-2.212-1.614-6.111-1.542-9.013-2.468
	c1.266-0.211,2.94,0.245,4.293,0c-0.775-0.478-1.805-0.586-2.791-0.645c-3.517-0.202-6.303-1.446-9.442-2.145
	c1.482-0.346,3.103,0.579,4.721,0.107c-0.781-0.363-2.042-0.248-2.897-0.538c0.661-0.369,1.607,0.063,2.575,0
	c-1.882-0.989-5.48-0.749-6.76,0.645c-2.851-0.444-5.539,0.24-8.583,0.322c0.703-0.406,1.85-0.368,2.467-0.858
	c-1.528-0.652-3.517-0.845-5.257-1.288c0.989-0.229,2.25-0.183,3.22-0.429c-1.68-0.715-4.462-0.331-6.76-0.429
	c1.185-0.461,2.35-0.942,3.541-1.395c-1.005-0.283-2.067-0.508-3.111-0.751c0.763-0.202,1.597-0.334,2.575-0.322
	c-0.817-1.063-3.309-0.952-4.614-1.181c0.853-0.363,1.718-0.713,2.684-0.964C3.998,65.143,1.399,65.575,0,64.808
	c1.604,0.108,2.928-0.532,4.292-0.965c-0.812-0.656-1.98-0.952-2.897-1.503c1.175,0.098,3.284,0.571,4.937,0.214
	c-0.434-0.639-1.311-0.835-1.932-1.286c1.109,0,2.594,0.552,3.97,0.643c-0.051-0.486-1.217-0.785-1.717-1.181
	c1.153-0.007,3.274-0.054,4.614,0.107c-0.195-0.52-0.751-0.68-1.179-0.965c1.472-0.185,2.722,0.782,4.184,0.965
	c-0.253-0.712-1.208-1.651-2.36-1.824c0.792-0.253,1.912-0.053,2.789-0.429c-1.578-0.891-3.366-1.569-5.15-2.253
	c0.907-0.189,2.136,0.224,3.327,0.107c-1.778-1.046-4.365-1.285-6.76-1.717c1.244-0.294,2.565-0.511,3.863-0.75
	c-1.129-0.444-2.021-1.126-3.327-1.396c0.653-0.078,2.024,0.05,2.897,0.108c-0.64-1.042-2.758-1.534-4.399-1.932
	c0.801-0.343,1.866-0.423,2.897-0.536c-1.668-0.765-4.065-0.8-5.473-1.824c1.263,0.29,3.267,0.17,4.721-0.215
	c-0.842-0.731-1.907-1.241-2.682-2.039c1.226,0.384,2.987,1.163,4.935,1.181c-0.403-0.778-1.203-1.159-1.824-1.717
	c1.194,0.167,2.531,1.116,3.97,1.396c-0.081-0.494-1.063-1.011-1.501-1.503c1.233,0.198,3.174,0.615,4.613,0.965
	c-0.161-0.876-1-1.074-1.717-1.395c0.754-0.289,1.948,0.24,2.791-0.107c-1.474-1.175-3.22-2.074-4.937-3.004
	c0.992-0.097,2.225,0.492,3.434,0.536c-1.841-1.34-4.427-1.941-6.867-2.682c1.501-0.185,2.505-0.209,4.185-0.214
	c-1.11-0.643-1.991-1.515-3.327-1.932c0.828-0.04,2.213,0.29,3.111,0.536c-0.694-1.271-2.788-2.076-4.506-2.682
	c1.112-0.196,1.805-0.182,3.113-0.214c-1.666-1.02-4.162-1.206-5.366-2.684c1.242,0.71,2.963,0.671,4.828,0.538
	c-0.705-0.942-1.745-1.547-2.468-2.468c1.346,0.514,3.01,1.639,5.043,1.824c-0.423-0.829-1.137-1.367-1.717-2.039
	c1.228,0.382,2.543,1.605,4.077,2.039c-0.33-0.741-1.106-1.039-1.395-1.824c1.51,0.565,3.057,1.091,4.614,1.61
	c-0.028-0.76-0.715-0.86-0.858-1.503c1.494,0.615,2.344,1.876,3.97,2.361c0.097-0.529-0.567-1.22-0.858-1.717
	c1.116,0.063,1.409,1.881,2.897,1.931c-1.315-1.403-2.972-2.464-4.507-3.647c0.91,0.057,2.124,0.737,3.22,0.965
	c-1.371-1.491-4.16-2.493-6.331-3.541c1.002,0.035,2.836,0.167,4.077,0.321c-0.853-0.826-1.745-1.616-2.789-2.253
	c0.797,0.026,1.995,0.58,2.897,0.858c-0.895-1.572-2.558-2.379-4.185-3.218c0.875-0.158,2.206,0.152,3.218,0.214
	c-1.547-1.17-4.134-1.874-5.042-3.325c1.061,0.82,3.278,0.983,4.721,1.072c-0.645-1.036-1.648-1.714-2.146-2.897
	c1.332,1.102,2.789,2.076,4.721,2.575c-0.139-0.612-0.933-1.499-1.396-2.146c1.214,0.434,2.295,1.925,3.756,2.468
	c-0.231-0.841-0.958-1.188-1.179-2.039c1.339,0.914,3.063,1.444,4.397,2.361c0.048-0.762-0.384-1.046-0.643-1.503
	c1.374,0.451,2.433,2.145,3.756,3.004c0.009-1.011-0.535-1.468-0.751-2.253c1.247,0.899,1.868,2.424,3.004,3.434
	c-0.321-1.324-1.008-2.284-1.717-3.22c0.927,0.111,1.988,1.018,3.004,1.396c-1.225-1.781-3.781-3.158-5.793-4.507
	c1.009,0.171,2.635,0.655,3.97,0.858c-0.5-0.716-1.507-1.853-2.36-2.575c0.712,0.183,1.888,0.829,2.681,1.288
	c-0.431-1.572-2.178-2.755-3.539-3.754c0.822-0.072,2.038,0.393,2.896,0.643c-0.926-1.434-3.483-2.167-4.292-4.077
	c1.058,1.088,2.846,1.446,4.614,1.824c-0.617-1.03-1.323-1.967-1.825-3.111c1.103,1.008,2.609,2.542,4.4,3.218
	c-0.249-0.932-0.781-1.579-1.074-2.467c1.143,0.968,1.972,2.25,3.22,3.111c0.163-0.63-0.637-1.222-0.751-1.932
	c0.303-0.245,0.567,0.324,0.858,0.536c0.929,0.681,2.263,1.37,3.111,2.146c0.233-0.608-0.374-1.065-0.429-1.717
	c1.288,1.002,2.029,2.549,3.218,3.649c0.318-0.772-0.319-1.45-0.321-2.253c1.042,0.854,1.166,2.624,2.36,3.327
	c-0.16-0.949-0.557-1.661-0.858-2.47c0.744,0.797,1.052,2.026,1.824,2.791c-0.652-1.529-2.019-3.274-3.111-4.721
	c0.924,0.258,1.869,1.422,2.897,1.931c-1.271-2.196-3.302-3.636-5.043-5.364c0.989,0.337,2.556,1.021,3.756,1.503
	c-0.472-0.816-1.323-2.183-2.039-3.111C41.691,6.996,43.102,8.036,43.884,8.584z M47.855,9.979
	c-1.003-2.253-3.207-3.876-5.366-4.614c1.421,1.146,1.535,3.182,2.897,4.292c0.921,0.751,2.076,1.083,2.36,2.361
	c-0.938-1.173-2.285-1.935-3.754-2.575c0.734,1.447,2.098,2.263,2.789,3.754c-1.252-1.395-2.534-2.76-4.614-3.325
	c1.447,1.629,3.016,4.065,4.828,5.687c-0.976-0.598-2.44-1.277-3.218-1.717c0.703,1.837,3.088,2.562,3.97,3.863
	c-0.645-0.431-2.002-0.713-2.789-0.645c1.206,0.634,2.209,0.976,3.111,1.825c0.828,0.778,1.488,1.882,2.791,2.146
	c-0.158-0.488-1.002-1.216-1.289-1.932c0.76,0.527,1.189,1.386,2.039,1.824c-0.144-0.68-0.715-0.929-0.858-1.608
	c0.753,0.82,1.389,1.759,2.361,2.36c-0.209-2.153-2.149-3.145-2.897-4.399c1.705,1.084,3.357,2.222,4.721,3.647
	c-0.643-2.54-3.246-3.691-3.756-6.007c1.978,2.385,4.061,4.666,5.688,7.402c-0.495-2.367-1.787-3.936-2.684-5.9
	c0.724,0.741,1.132,1.8,1.931,2.468c0.105-1.144-0.828-1.818-0.643-2.682c0.242,0.687,0.592,1.267,0.965,1.822
	c0.152-1.654-0.52-3.054-0.75-3.968c0.202,0.483,0.706,1.034,1.072,1.608c0.318,0.5,0.599,1.436,1.074,1.181
	c0.034-2.251-0.097-4.339-1.074-5.58c-0.054,1.165,0.45,2.338,0.108,3.434c-0.464-2.291-0.88-4.629-2.039-6.223
	c-0.066,1.389,0.844,2.373,0.536,3.647c-0.678-2.183-1.595-4.128-2.791-5.793c0.259,1.458,1.327,2.676,1.289,4.077
	c-1.031-2.689-2.587-4.853-4.721-6.438c0.844,2.231,2.821,3.33,3.432,5.793C51.28,7.269,49.157,5.6,47.317,3.647
	c0.413,1.733,2.111,2.754,2.146,4.507c-1.115-2.498-3.157-4.068-5.043-5.793c0.842,2.234,3.27,3.454,3.756,5.687
	c-1.444-2.525-3.929-4.583-6.652-5.473C44.004,4.601,46.966,6.718,47.855,9.979z M64.056,11.695
	c-0.57-2.363-2.307-4.132-3.971-5.043c0.989,1.233,0.841,2.978,1.718,4.185c0.667,0.918,1.878,1.462,1.717,2.682
	c-0.502-1.359-1.872-2.42-2.897-2.896c0.642,1.252,1.452,2.339,1.931,3.754c-0.964-1.466-2.046-3.388-3.754-3.754
	c1.447,1.627,2.038,4.113,3.432,5.793c-0.797-0.74-1.818-1.257-2.467-2.146c0.3,2.096,2.061,2.732,2.897,4.292
	c-0.606-0.505-1.775-1.014-2.468-1.074c0.646,0.738,1.579,0.936,2.253,1.717c0.872,1.011,1.189,2.773,2.468,2.791
	c-0.423-0.435-0.614-1.103-0.858-1.717c0.669,0.475,0.806,1.484,1.501,1.931c-0.034-0.576-0.609-1.176-0.429-1.61
	c0.451,0.908,0.88,1.838,1.61,2.468c0.022-2.168-1.235-3.057-1.931-4.506c1.389,1.187,2.575,2.575,3.647,4.077
	c-0.138-2.581-2.353-3.655-2.253-6.116c1.179,2.684,2.84,4.885,3.754,7.833c0.04-2.328-1.066-4.081-1.286-5.793
	c0.41,0.841,0.617,1.885,1.286,2.468c0.151-0.867-0.456-1.544-0.107-2.254c0.126,0.555,0.164,1.195,0.536,1.503
	c0.272-1.052-0.006-2.782,0-3.541c0.432,1.034,0.63,2.303,1.396,3.004c0.287-1.585,0.782-3.948,0-5.366
	c-0.189,1.028-0.114,2.319-0.429,3.22c-0.171-1.768,0.083-4.468-0.858-6.009c-0.13,1.43,0.369,2.461-0.108,3.327
	c-0.223-2.209-0.744-4.119-1.501-5.795c0.051,1.345,0.618,2.742,0.536,3.863c-0.674-2.544-1.556-4.881-3.218-6.438
	c0.454,2.049,2.029,3.549,2.038,5.687c-0.684-2.569-2.275-4.233-3.539-6.223c0.108,1.642,1.311,2.764,1.179,4.292
	c-0.782-2.329-2.205-4.591-3.649-5.902c0.631,2.017,2.333,3.533,2.47,5.687c-0.927-2.722-2.87-5-5.043-6.116
	C61.478,6.119,63.751,8.386,64.056,11.695z M73.605,13.197c0.406,1.462,1.629,2.347,1.717,3.756c-0.45-1.232-1.282-2.08-2.253-2.789
	c0.274,1.263,1.277,2.369,1.288,3.541c-0.419-1.228-1.083-2.208-1.932-3.004c0.103,2.043,0.813,3.48,1.61,4.828
	c-0.545-0.313-0.762-0.955-1.395-1.181c-0.293,1.519,1.469,2.168,1.608,3.22c-0.497-0.469-1.104-0.826-1.824-1.074
	c0.354,0.734,1.087,0.981,1.61,1.717c0.677,0.952,0.875,2.521,2.039,2.682c-0.393-0.325-0.647-1.352-0.645-1.717
	c0.365,0.639,0.598,1.406,1.074,1.932c0.092-0.596-0.47-1.099-0.215-1.501c0.233,0.946,0.628,1.733,1.181,2.36
	c0.123-1.912-0.753-2.823-1.288-4.077c1.135,1.081,2.004,2.43,2.789,3.861c-0.023-2.295-1.775-3.902-1.608-5.687
	c0.996,2.331,2.036,4.616,2.789,7.189c0.07-2.002-0.702-3.732-0.751-5.257c0.214,0.823,0.393,1.682,0.858,2.253
	c0.202-0.604-0.189-1.614,0-2.039c0.226,0.382,0.119,1.099,0.431,1.396c0.319-0.806,0.167-2.477,0.214-3.22
	c0.398,0.853,0.252,2.251,1.072,2.682c0.272-1.554,0.781-3.419,0.215-4.935c-0.19,0.955-0.144,2.145-0.536,2.897
	c-0.059-2.25,0.319-3.519-0.322-5.366c-0.334,0.74,0.17,2.317-0.322,2.897c-0.089-1.985-0.387-3.762-0.965-5.257
	c0.006,1.21,0.479,2.522,0.214,3.647c-0.283-2.543-1.05-4.6-2.253-6.223c0.111,2.035,1.57,3.293,1.288,5.364
	c-0.328-2.498-1.623-4.027-2.575-5.9c0.032,1.409,0.968,2.899,0.751,3.863c-0.561-2.193-1.542-3.965-2.682-5.58
	c0.293,1.995,1.712,3.437,1.717,5.364c-0.686-2.569-2.092-4.418-3.863-5.902c1.273,2.231,3.226,4.358,3.218,7.512
	c-0.322-2.216-1.617-4.034-3.003-4.828C73.365,11.474,73.38,12.384,73.605,13.197z M35.73,17.918
	c-1.217-1.966-3.529-3.409-6.009-3.754c1.493,0.825,1.884,2.769,3.325,3.647c1.037,0.631,2.307,0.782,2.791,2.039
	c-0.974-0.993-2.41-1.525-3.97-1.932c0.494,1.118,2.685,2.035,3.111,3.22c-1.302-1.167-3.007-2.5-5.15-2.468
	c1.783,0.727,2.736,2.656,4.078,3.647c0.57,0.423,1.411,0.39,1.715,1.181c-0.907-0.524-2.539-0.894-3.327-1.181
	c0.857,1.576,3.397,2.041,4.4,3.113c-0.791-0.265-2.043-0.382-2.789-0.107c1.381,0.369,2.436,0.598,3.432,1.286
	c0.911,0.628,1.78,1.736,3.111,1.503c-0.599-0.333-1.349-1.081-1.501-1.503c0.754,0.463,1.327,1.104,2.146,1.503
	c-0.208-0.724-0.891-0.97-1.181-1.61c0.885,0.725,1.663,1.557,2.791,2.039c-0.567-1.937-2.281-2.726-3.649-3.863
	c2.019,0.627,3.942,1.923,5.364,2.789c-1.066-2.294-3.725-2.997-4.72-5.364c2.342,2.128,4.853,4.088,6.866,6.545
	c-0.839-2.2-2.385-3.694-3.647-5.473c0.832,0.601,1.333,1.529,2.253,2.039c-0.034-1.039-0.785-1.359-0.965-2.253
	c0.489,0.369,0.694,1.022,1.181,1.395c-0.064-1.581-0.776-2.514-1.288-3.647c0.948,0.732,1.368,1.992,2.575,2.467
	c-0.321-2.219-0.756-4.323-2.039-5.578c0.189,1.17,0.855,2.433,0.751,3.541c-0.87-2.136-1.534-4.477-3.113-5.902
	c0.212,1.22,1.26,2.174,1.074,3.434c-0.888-2.117-2.247-3.762-3.647-5.364c0.532,1.434,1.541,2.392,2.038,3.863
	c-1.548-2.243-3.302-4.28-5.793-5.58c1.087,2.096,3.476,2.89,4.292,5.257c-1.501-2.288-4.033-3.551-6.116-5.257
	c0.737,1.658,2.353,2.439,3.004,4.184c-1.582-1.994-3.872-3.854-6.116-4.828c1.428,1.827,3.668,2.842,4.828,4.937
	c-1.919-2.016-4.484-3.958-7.619-4.4C31.191,13.087,34.456,14.972,35.73,17.918z M72.532,14.271
	c-0.076-0.461-0.174-0.898-0.429-1.181C72.294,13.436,72.062,14.205,72.532,14.271z M87.769,22.532
	c-0.234-1.948-1.156-3.781-2.253-4.507c0.548,1.006,0.212,2.571,0.643,3.649c0.34,0.851,1.252,1.383,0.858,2.36
	c-0.196-1.198-1.015-2.345-1.717-2.682c0.223,1.03,0.902,2.172,0.75,3.22c-0.3-1.559-0.94-2.779-2.038-3.541
	c0.661,1.034,0.561,2.657,0.965,3.861c0.183,0.545,0.85,0.838,0.538,1.396c-0.29-0.82-0.98-1.239-1.396-1.932
	c0.001,1.715,1.04,2.395,1.503,3.649c-0.504-0.356-1.165-1.124-1.717-1.074c1.534,0.791,1.586,3.634,2.897,4.292
	c-0.229-0.347-0.491-1.223-0.322-1.61c0.245,0.614,0.289,1.428,0.75,1.825c0.108-0.541-0.363-1.062-0.107-1.396
	c0.18,0.858,0.363,1.711,0.858,2.254c0.401-1.39-0.57-2.846-0.643-3.756c0.781,1.187,1.509,2.426,2.038,3.863
	c0.24-2.146-1.276-3.646-0.75-5.364c0.474,2.351,1.267,4.383,1.608,6.866c0.281-1.433-0.103-3.224-0.107-4.613
	c0.303,0.485,0.146,1.427,0.538,1.824c0.282-0.57-0.081-1.619,0.321-1.824c0,0.429,0,0.858,0,1.288
	c0.67-0.51,0.455-1.906,0.751-2.791c0.11,0.927,0.097,1.978,0.536,2.575c0.418-1.211,1.254-2.959,0.75-4.399
	c-0.205,0.867-0.316,1.827-0.75,2.468c0.301-1.453,0.516-2.991,0.43-4.828c-0.607,0.466-0.109,2.036-0.752,2.467
	c0.293-1.714-0.006-3.151-0.107-4.721c-0.328,0.388-0.074,2.285-0.322,3.113c-0.047-2.35-0.486-4.307-1.395-5.795
	c-0.035,1.86,1.023,3.198,0.644,5.043c-0.128-2.339-1.06-3.877-1.717-5.688c-0.138,1.356,0.591,2.414,0.216,3.649
	c-0.204-2.123-0.893-3.756-1.717-5.257c-0.018,1.841,1.156,3.063,0.858,4.828c-0.316-2.366-1.431-4.506-2.789-5.473
	C86.719,17.524,87.93,20.229,87.769,22.532z M67.704,27.79c-0.486-0.694-1.159-1.772-1.288-2.467
	c0.667,0.442,0.853,1.365,1.395,1.931c-0.467-1.512-1.238-3.233-2.36-4.078c-0.568-0.428-1.475-0.416-2.039-0.858
	c-0.642-0.504-0.773-1.431-1.181-2.038c-0.738-1.107-1.938-2.181-2.789-3.004c-0.233-0.226-0.439-0.798-0.858-0.645
	c0.262,2.385,0.589,4.707,1.824,6.117c-0.069-1.541-0.623-2.597-0.965-3.863c1.854,2.438,3.076,6.079,4.614,8.476
	c-0.338-0.949-0.697-1.878-1.074-2.789c1.777,2.196,2.184,6.325,4.507,7.617c0.812,1.084,1.45,2.341,2.36,3.327
	c-0.524-2-2.01-3.504-2.791-5.473c-0.781-1.973-1.097-4.162-2.145-6.116C66.025,24.962,66.347,27.359,67.704,27.79z M50.108,28.434
	c-0.29-1.392-0.97-2.394-1.503-3.542c2.254,2.218,3.831,5.112,5.795,7.619c-0.239-0.977-1.173-1.831-1.288-2.575
	c1.594,1.018,1.784,3.393,3.111,4.828c0.98,1.062,2.339,2.019,3.327,3.004c0.259,0.259,0.961,0.984,0.857,0.645
	c-0.425-1.28-1.396-2.383-2.253-3.542c-0.875-1.182-1.77-2.361-2.467-3.647c1.213,0.932,1.957,2.333,3.327,3.111
	c-0.535-1.649-2.043-2.473-3.113-3.754c-1.865-2.24-2.622-5.294-4.506-7.619c1.386,1.011,2.131,3.234,3.754,3.647
	c-0.681-0.784-1.428-1.504-1.931-2.467c0.933,0.249,1.258,1.673,2.038,1.717c-1.024-1.332-1.95-2.994-3.432-3.756
	c-0.907-0.466-1.994-0.202-2.791-0.751c-0.568-0.391-0.983-1.159-1.288-1.717c-0.869-0.347-1.563-1.44-2.253-1.61
	C47.798,20.728,47.276,26.259,50.108,28.434z M20.922,26.502c1.15,0.511,2.659,0.453,3.111,1.61
	c-1.017-0.735-2.785-1.292-4.291-1.181c1.162,0.913,3.103,1.617,3.754,2.682c-1.311-0.984-3.497-2.092-5.473-1.715
	c1.699,0.409,2.817,1.931,4.185,2.789c0.647,0.406,1.849,0.384,2.146,1.072c-0.954-0.334-2.632-0.513-3.434-0.643
	c1.116,1.387,3.538,1.469,5.043,2.468c-0.71-0.192-1.909-0.173-2.253,0.107c0.305,0.457,0.791,0.233,1.181,0.322
	c1.875,0.426,3.224,1.97,5.042,1.608c-0.688-0.242-1.578-0.851-1.717-1.288c0.804,0.271,1.564,1.153,2.361,1.074
	c-0.368-0.42-1.277-0.867-1.289-1.288c0.845,0.586,1.92,1.513,3.004,1.501c-0.949-1.554-2.711-2.295-4.291-3.218
	c2.133,0.406,4.307,1.342,5.793,2.038c-1.34-2.093-4.34-2.527-5.58-4.72c2.626,1.808,5.805,3.636,7.941,5.58
	c-1.103-1.938-3.233-3.42-4.4-4.937c0.782,0.649,1.576,1.286,2.468,1.824c-0.185-1.031-1.072-1.359-1.395-2.253
	c0.545,0.313,0.76,0.957,1.395,1.181c-0.205-1.477-1.396-2.539-1.824-3.434c0.955,0.727,1.654,1.707,2.896,2.146
	c-0.579-2.032-1.381-4.412-2.896-5.15c0.504,0.927,1.222,2.212,1.288,3.22c-1.146-1.896-2.065-4.015-3.863-5.259
	c0.472,1.173,1.301,1.989,1.717,3.22c-1.406-1.6-2.886-3.694-4.614-4.614c0.904,1.135,1.928,2.15,2.682,3.434
	c-1.841-1.95-3.854-3.728-6.652-4.721c1.317,1.831,4.247,2.621,5.043,4.614c-1.671-1.942-4.619-3.179-6.867-4.185
	c1.085,1.239,2.685,1.964,3.541,3.434c-1.796-1.603-4.277-3.089-6.653-3.756c1.616,1.605,4.14,2.3,5.473,4.185
	c-2.041-1.677-4.808-3.204-8.153-3.218c3.234,1.128,6.665,2.632,8.26,5.042c-1.453-1.515-3.87-2.638-6.437-2.682
	C18.645,23.909,19.415,25.833,20.922,26.502z M73.069,25.323c0.088-1.285,0.122-3.779-0.751-4.078
	C72.313,22.452,72.444,24.393,73.069,25.323z M32.082,23.175c0.448,0.587,0.867,1.459,1.717,1.61
	c-0.694-1.022-2.254-2.681-3.218-3.434C31.194,21.854,31.594,22.54,32.082,23.175z M74.679,25.107
	c0.038-0.227-0.212-0.334-0.322-0.536c-0.419-0.776-0.747-2.155-1.181-2.039c1.021,2.232,1.468,5.042,2.253,7.51
	c0.113-1.043-0.416-2.013-0.322-2.682c1.036,2.221,0.851,6.23,2.577,7.403c-0.142-0.001-0.138-0.297,0-0.322
	c0.495,1.115,0.948,2.272,1.715,3.113c-0.267-1.775-1.516-3.226-2.038-5.043c-0.533-1.856-0.769-3.914-1.288-5.687
	c0.646,1.106,0.984,3.091,1.931,3.541c-0.396-0.713-0.737-1.479-0.965-2.36c0.617,0.42,0.662,1.412,1.179,1.931
	C77.648,27.718,76.759,25.816,74.679,25.107z M45.494,32.404c-1.104-1.17-2.609-3.026-4.613-3.327c-0.669-0.1-0.987,0.083-1.503,0
	c-0.687-0.11-1.792-0.792-2.253-1.288c-0.105-0.111,0.018-0.334-0.107-0.429c-0.788-0.59-1.871-0.973-2.791-1.395
	c0.346,0.185,0.558,0.523,0.751,0.858c1.342,2.336,1.957,5.373,3.756,7.081c0.164,0.157,0.479,0.612,0.75,0.429
	c-0.548-1.204-1.351-2.153-2.039-3.218c2.566,1.941,4.79,4.796,6.974,6.759c-0.453-0.833-1.477-1.668-1.715-2.36
	c1.775,0.863,2.222,2.968,3.647,4.185c1.037,0.885,2.36,1.411,3.434,2.146c1.099,0.75,1.893,1.701,3.004,2.36
	c-1.578-2.571-4.226-4.071-5.902-6.545c1.266,0.737,2.432,2.146,3.756,2.468c-1.579-1.958-3.819-3.022-5.473-5.043
	c-1.402-1.715-2.38-3.417-3.756-4.935c1.392,0.933,2.457,2.764,4.185,3.004c-0.839-0.59-1.913-1.519-2.36-2.146
	C44.247,31.147,44.73,32.379,45.494,32.404z M87.018,32.297c-0.699-0.875-2.29-1.241-2.039-3.004
	c-0.71-0.899-1.151-2.64-1.931-3.111c0.658,2.058,0.804,4.632,1.395,6.759c0.152-0.94-0.384-1.761-0.107-2.468
	c0.696,1.384,0.214,3.072,0.536,4.399c0.426,1.765,1.466,3.258,1.932,4.937c0.647,2.344,0.76,5.222,1.179,7.726
	c0.85-2.438-1.005-4.916-0.751-7.403c0.334,1.025,0.604,2.114,1.181,2.896c-0.935-3.18-1.638-6.667-1.824-10.085
	c0.505,1.068,0.491,2.657,1.288,3.434c-0.078-0.71-0.577-1.567-0.429-2.146c0.401,0.422,0.35,1.296,0.75,1.717
	C87.812,34.414,87.8,33.274,87.018,32.297z M16.417,35.301c-1.866-1.39-4.541-2.542-7.083-2.897
	c1.743,1.298,4.758,1.896,5.902,3.434c-2.071-1.399-4.994-2.517-8.476-2.146c3.568,0.722,7.302,1.853,9.012,4.077
	c-1.499-1.362-4.031-2.262-6.867-1.931c1.616,0.289,2.418,1.928,3.971,2.467c1.386,0.482,3.042,0.227,3.434,1.289
	c-1.04-0.652-2.678-0.812-4.292-0.645c1.14,0.828,3.274,1.232,3.97,2.146c-1.354-0.712-3.64-1.545-5.58-0.965
	c2.54,0.75,4.283,2.297,6.867,3.003c-1.075-0.141-2.897-0.105-3.649-0.214c1.223,1.21,3.728,1.137,5.473,1.825
	c-1.25-0.034-2.244,0.188-3.004,0.643c2.278-0.759,4.872,1.456,7.189,0.965c-0.832-0.205-1.444-0.631-2.039-1.072
	c0.949,0.089,1.794,0.85,2.575,0.75c-0.457-0.473-1.175-0.686-1.61-1.179c0.964,0.467,2.247,1.185,3.327,1.179
	c-0.979-1.453-2.937-1.928-4.614-2.682c2.254,0.107,4.491,0.803,6.009,1.288c-1.481-1.809-5.01-2.143-6.116-3.97
	c2.751,1.54,5.987,2.596,8.369,4.506c-1.109-1.859-3.539-2.968-4.828-4.292c0.855,0.469,1.648,0.999,2.575,1.396
	c-0.151-1.065-1.282-1.151-1.61-2.039c0.574,0.215,1.093,1.052,1.61,0.965c-0.475-1.172-1.63-2.232-2.146-3.004
	c0.973,0.602,1.796,1.352,3.004,1.717c-0.8-1.919-1.875-4.132-3.541-4.828c0.68,0.965,1.317,1.973,1.824,3.111
	c-1.516-1.56-2.722-4.002-4.721-4.721c0.716,0.965,1.595,1.768,2.146,2.897c-1.553-1.417-3.303-3.207-5.15-3.97
	c1.025,1.049,2.272,1.878,3.111,3.111c-1.966-1.61-4.324-3.401-7.188-3.756c1.591,1.414,4.548,2.033,5.473,3.756
	c-1.746-1.652-4.909-2.459-7.189-3.218C13.638,33.431,15.79,34.068,16.417,35.301z M65.558,44.099
	c-0.032-0.684-0.501-1.5-0.322-2.039c0.913,2.057,1.75,4.188,2.468,6.438c1.003,0.965,1.811,2.124,2.575,3.327
	c-0.58-0.387-1.166-1.337-1.717-1.396c0.347,0.404,0.448,1.056,0.751,1.503c1.395,0.464,2.495,1.797,3.434,2.36
	c-0.432-0.677-1.14-1.648-1.288-2.253c0.855,0.004,1.132,1.154,1.717,1.074c-0.814-0.904-2.054-1.953-2.575-2.791
	c0.324,0.075,0.911,0.442,1.074,0.322c-0.404-1.528-1.745-2.691-1.932-4.078c1.204,2.408,2.621,5.177,4.937,6.117
	c-1.239-2.123-0.117-6.964-1.074-9.658c-0.138,2.193-0.664,3.923-0.536,6.116c-0.614-1.49-0.453-3.198-0.645-4.72
	c-0.453-3.582-2.2-6.882-3.754-9.442c-0.571-0.94-1.134-1.897-1.824-2.361c0.848,1.727,1.608,4.113,1.715,6.224
	c-0.716-2.074-1.685-4.466-3.327-5.257c1.084,1.92,2.322,4.26,2.897,6.33c-1.531-2.725-3.009-5.502-5.902-6.867
	c1.488,2.84,3.609,5.048,4.937,8.048c-1.496-1.724-2.43-4.008-3.97-5.687c0.519,2.02,1.238,3.841,2.038,5.58
	c-1.211-1.327-2.123-3.527-3.539-4.292C62.877,39.27,64.062,41.84,65.558,44.099z M75.965,50.858
	c1.037,0.538,1.646,1.501,2.468,2.254c-0.204-1.721-1.075-3.171-1.181-4.83c0.633,2.445,1.951,4.203,3.22,6.009
	c-0.085-0.952-1.059-1.585-0.965-2.36c0.258,0.385,0.524,0.762,0.965,0.965c-0.031-2.498,1.15-4.356,0.75-6.867
	c-0.532,1.686-1.172,3.262-1.501,5.15c-0.168-1.917,0.3-3.702,0.322-5.473c0.041-3.384-1.267-7.106-2.36-9.548
	c-0.166-0.369-0.278-0.835-0.645-0.967c0.593,1.781,0.716,4.03,0.536,5.795c-0.407-2.026-0.794-4.069-2.039-5.257
	c0.431,2.001,1.311,4.124,1.396,6.116c-0.943-2.742-1.824-5.546-4.077-6.976c0.844,2.697,2.52,5.134,2.896,7.941
	c-0.828-1.784-1.434-4.361-2.468-5.58C73.876,42.168,74.952,46.208,75.965,50.858z M41.845,46.03
	c-1.002-1.031-2.375-1.72-3.647-2.467c-2.789-1.641-4.796-4.131-6.974-6.009c1.519,0.662,2.669,2.266,4.507,2.253
	c-0.923-0.438-2.082-1.207-2.577-1.717c1.031,0.007,1.557,1.09,2.361,0.965c-1.726-1.484-3.756-2.899-7.189-2.36
	c-1.167-0.608-1.979-1.496-3.218-1.61c3.221,2.073,3.832,7.327,7.403,8.691c-0.586-1.096-1.871-2.062-2.361-2.897
	c2.777,1.696,5.128,3.814,7.619,5.795c-0.394-0.895-1.649-1.497-1.931-2.146c1.781,0.527,2.515,2.464,3.97,3.541
	c1.658,1.229,3.93,1.6,5.58,2.682c-1.655-2.769-5.593-4.305-7.619-6.652C39.092,44.707,40.478,45.825,41.845,46.03z M60.729,43.025
	c-1.053-1.771-2.272-3.949-4.077-4.613c1.411,1.843,2.701,3.807,3.97,5.793c-2.117-2.068-3.814-5.125-7.081-5.687
	c2.032,2.331,4.356,4.371,6.116,6.974c-1.771-1.377-3.053-3.816-4.828-4.828c0.895,1.68,1.998,3.724,2.896,5.042
	c-1.443-1.096-2.511-3.138-4.184-3.647c1.077,1.285,2.011,3.281,3.111,4.185c-0.088-0.139-0.385-0.602-0.215-0.645
	c0.76,1.244,1.796,2.783,2.468,3.756c-0.107,0-0.127-0.086-0.214-0.107c0.268,0.804,0.819,1.327,1.072,2.146
	c2.181,1.466,3.989,3.88,6.116,5.042c-0.488-0.548-1.022-1.052-1.395-1.717c0.973,0.709,1.944,1.418,3.004,2.039
	c-0.404-1.705-2.139-2.082-2.575-3.756c0.686,0.425,1.201,1.586,1.824,1.717c-0.233-0.592-0.785-1.43-0.643-2.038
	c0.601,1.043,1.63,2.231,2.575,2.575c-1.302-2.382-1.02-6.349-2.254-8.799c0.054,2.175,0.111,4.447,0.322,6.224
	c-1.478-6.571-4.506-12.161-8.798-15.558C59.205,38.687,60.224,41.064,60.729,43.025z M82.403,47.317
	c-0.271,0.048-0.442-0.875-0.536-0.321c-0.072,1.553,0.464,2.188,0.967,3.325c1.059,2.41,2.011,4.934,3.539,6.223
	c-0.201-0.584-0.362-1.211-0.643-1.717c0.127,0.016,0.243,0.192,0.321,0c-0.265-0.737-0.879-1.692-0.535-2.682
	c0.404,1.277,0.535,3.398,1.501,3.756c-0.333-0.813-0.681-1.608-0.967-2.468c0.634,0.19,0.621,1.025,1.181,1.288
	c0.176-2.508,1.332-4.605,1.181-7.081c-0.479,1.667-1.222,3.069-1.608,4.828c0.916-5.3,0.609-10.648-1.288-14.807
	c0.224,1.491,0.42,3.916,0,5.364c-0.091-1.912-0.461-4.118-1.396-4.828c0.365,1.711,0.882,3.839,0.858,5.58
	c-0.41-1.903-1.033-4.128-1.931-5.473c-0.284-0.423-0.681-1.08-1.074-0.965c0.577,2.392,1.822,4.688,1.932,7.189
	c-0.56-1.765-0.904-3.747-1.717-5.257c0.081,1.332,0.22,3.674,0.429,4.828c-0.633-1.334-0.835-3.1-1.717-4.185
	c0.133,1.046,0.208,2.153,0.536,3.004c0.062-0.475,0.044-1.028,0.215-1.395C81.921,43.718,81.661,45.227,82.403,47.317z
	 M73.069,42.705c0.441-1.789-0.231-3.872-1.288-4.83C72.151,39.545,72.505,41.228,73.069,42.705z M52.146,48.498
	c-2.246-1.903-4.198-4.099-7.726-4.721c1.484,1.682,3.74,2.919,5.473,4.506c0.306,0.281,1.953,2.03,1.288,1.503
	c-1.645-1.307-3.636-3.205-5.15-3.97c1.132,1.657,2.379,3.201,3.649,4.721c-1.535-1.005-2.95-2.701-4.721-3.111
	c1.945,1.988,3.962,4.477,6.116,5.9c-0.072-0.12-0.497-0.416-0.214-0.536c0.911,1.233,2.008,2.282,2.789,3.647
	c1.468,0.822,2.87,1.708,4.077,2.791c-0.384-0.12-0.93-0.639-1.288-0.429c0.933,0.784,2.106,1.9,3.113,2.253
	c-0.917-1.516-2.451-2.987-3.113-4.399c1.103,1.006,2.325,1.896,3.541,2.789c-0.872-2.203-2.997-3.154-4.291-4.935
	c1.159,1.058,2.297,2.137,3.541,3.111c-0.083-0.527-0.671-1.115-0.429-1.61c0.636,1.296,1.698,2.736,2.789,3.22
	c-0.464-0.895-1.126-2.164-1.395-2.897c0.434,0.353,0.828,0.746,1.181,1.181c-1.159-2.383-1.598-5.484-3.004-7.619
	c0.381,1.944,0.688,4.534,1.288,5.902c-1.619-2.689-2.565-5.676-4.507-8.048c-0.918-1.122-1.976-2.282-3.004-3.218
	c-1.087-0.99-2.24-1.975-3.541-2.575c1.538,1.431,2.873,3.637,3.647,5.473c-1.244-1.652-2.771-3.593-4.828-4.078
	C49.074,44.917,50.946,46.837,52.146,48.498z M65.773,46.03c0.227-2.016-1.645-2.503-2.361-3.218
	C64.128,43.956,64.762,45.18,65.773,46.03z M91.632,49.679c-0.238-1.623-0.408-3.312-0.86-4.721
	c-0.257,1.368-0.183,3.001-0.214,4.399c-0.43-1.252-0.355-3.006-1.072-3.97c-0.079,2.619,0.332,4.709,0.43,6.759
	c-0.409-0.664-0.626-1.521-1.074-2.146c0.533,2.795,1.188,6.394,3.004,8.262c0.029-0.958-0.393-1.468-0.429-2.36
	c0.521,0.151,0.565,1.333,0.858,1.074c0.145,1.034,0.748,1.611,1.395,2.145c-0.053-0.935,0.758-1.573,0.215-2.36
	c-0.346-0.154-0.262,0.652-0.429,0.322c1.194-3.801,1.755-9.201,0.429-13.305c0.047,1.835-0.119,3.457-0.537,4.828
	c0.021-1.808-0.01-3.565-0.75-4.613c0.031,1.383,0.422,3.565,0.107,5.257c-0.242-2.476-0.533-4.904-1.933-6.224
	C90.908,45.322,91.882,47.353,91.632,49.679z M80.902,45.387c0.016-0.267-0.056-0.445-0.214-0.536
	C80.67,45.116,80.742,45.294,80.902,45.387z M18.025,47.104c-0.117-1.242-1.733-1.557-2.896-1.396
	C16.179,46.088,16.944,46.755,18.025,47.104z M11.48,46.352c1.708,1.083,4.724,1.428,5.688,2.897
	c-1.731-1.31-4.83-1.824-7.189-2.146c1.159,0.809,3.253,1.252,3.863,2.253c-1.778-1.047-4.437-1.787-6.867-1.824
	c1.843,0.983,4.434,1.216,6.009,2.467c-2.09-0.939-5.446-1.75-8.262-0.965c3.482,0.274,7.118,0.965,8.798,2.684
	c-1.402-1.017-4.165-1.496-6.438-0.967c1.512,0.286,2.483,1.711,4.185,1.932c1.513,0.196,2.539-0.023,3.327,0.858
	c-1.09-0.624-2.94-0.476-4.399-0.108c1.383,0.513,3.051,0.741,4.184,1.503c-1.406-0.501-4.146-1.049-5.58-0.215
	c1.931-0.007,3.29,1.195,4.828,1.61c0.687,0.185,1.469-0.182,2.039,0.429c-1.034-0.051-2.583,0.16-3.327,0.215
	c1.242,1.025,3.801,0.491,5.259,1.072c-1.184-0.003-1.917,0.442-2.682,0.858c2.278-0.759,5.041,0.823,6.866,0.107
	c-0.877-0.123-1.557-0.445-2.146-0.858c0.826,0.105,1.753,0.68,2.575,0.429c-0.497-0.325-1.213-0.432-1.61-0.858
	c0.965,0.252,2.067,0.938,3.22,0.645c-1.071-1.147-3.012-1.424-4.721-1.932c2.209-0.133,4.481,0.24,5.902,0.538
	c-1.534-1.544-4.789-1.364-6.224-3.004c2.81,0.981,6.157,1.998,8.477,3.111c-1.449-1.377-3.415-2.237-5.15-3.327
	c0.948,0.161,1.783,1.006,2.682,0.858c-0.347-0.691-1.613-1.031-1.717-1.61c0.483,0.305,0.984,0.59,1.503,0.858
	c-0.52-1.267-1.6-1.976-2.575-2.789c1.126,0.305,2.065,1.367,3.325,1.181c-1.159-1.417-2.208-3.514-3.97-3.971
	c0.724,0.851,1.484,1.666,2.039,2.684c-1.557-1.304-2.947-3.347-4.937-3.863c0.633,0.942,1.805,1.342,2.254,2.468
	c-1.545-1.175-3.4-2.61-5.259-3.113c1.125,0.844,2.401,1.535,3.327,2.575C16.77,47.788,14.432,46.298,11.48,46.352z M20.386,47.533
	c-0.308-0.551-0.933-1.354-1.717-1.074C19.219,46.77,19.847,47.569,20.386,47.533z M24.249,49.572
	c1.629,2.306,3.334,5.105,6.009,6.007c-0.681-0.965-2.065-1.796-2.575-2.575c2.717,1.324,5.449,3.207,7.833,4.507
	c-0.529-0.652-1.777-1.154-2.039-1.717c2.587,1.132,4.312,3.699,7.512,3.863c-0.719-0.441-1.531-1.189-1.825-1.717
	c-2.164-1.554-5.338-2.673-7.081-4.292c1.37,0.454,2.856,1.364,4.292,1.395c-1.964-1.37-4.311-1.862-6.224-3.111
	c-1.915-1.252-3.535-2.76-5.471-3.863c1.72,0.319,2.823,1.827,4.721,1.61c-0.98-0.415-1.934-0.857-2.791-1.396
	c1.15-0.075,1.834,0.885,2.682,0.751c-1.378-0.773-2.634-1.758-4.506-1.931c-1.263-0.117-2.695,0.699-3.541,0.322
	C22.241,48.145,23.147,48.957,24.249,49.572z M57.618,49.356c-0.018-1.163-1.33-1.601-1.931-1.824
	C56.37,48.101,56.834,48.889,57.618,49.356z M75.429,51.718c-0.33-1.03-0.176-2.543-0.858-3.22
	C74.634,49.724,74.421,51.794,75.429,51.718z M44.742,58.477c-1.724-0.814-3.083-1.995-5.042-2.575
	c1.982,2.203,4.991,3.951,7.081,5.687c-1.194-0.201-2.503-0.858-3.541-0.858c2.21,1.08,4.223,2.357,6.652,3.22
	c-0.321-0.86-1.031-1.329-1.395-2.146c1.876,1.592,3.388,3.551,5.902,4.506c-0.558-1.195-2.616-1.462-3.004-2.467
	c1.866,0.565,4,1.434,5.58,1.931c-1.148-0.712-2.955-1.337-3.327-2.468c0.606,0.467,1.56,1.157,2.146,1.288
	c-0.728-0.596-1.923-1.295-2.253-1.931c1.058,0.265,1.932,1.285,2.789,1.395c-0.769-1.484-2.02-2.486-2.897-3.863
	c0.155-0.057,0.262,0.417,0.322,0.107c-1.833-3.476-4.726-6.245-7.833-8.369c-1.068-0.731-2.199-1.504-3.434-1.824
	c1.852,1.26,3.136,3.086,4.399,4.935c-1.507-1.282-3.026-3.125-5.257-3.325c1.77,1.414,3.993,2.946,5.257,4.506
	c-2.265-1.529-4.868-3.854-8.262-3.541c2.561,1.625,5.845,3.097,7.726,5.042c-1.954-1.085-3.921-2.73-5.902-3.434
	C41.833,55.734,43.217,57.177,44.742,58.477z M81.438,53.755c-0.125-0.949,0.261-2.405-0.215-3.004
	C81.231,51.658,80.372,53.432,81.438,53.755z M82.619,53.433c-0.243-0.614-0.186-1.529-0.538-2.038
	C82.081,52.254,81.936,53.257,82.619,53.433z M69.529,55.043c-0.239-1.336-0.624-2.524-1.289-3.434
	C68.503,52.919,68.379,54.618,69.529,55.043z M75.645,55.579c-0.943-0.845-2.071-1.506-3.004-2.36
	c0.814,2.046,2.301,3.422,3.434,5.15c-2.213-1.723-3.829-4.611-6.224-5.795c1.238,1.411,2.396,2.897,3.22,4.721
	c-0.571-0.396-1.201-1.302-1.825-1.288c0.693,0.847,1.292,1.784,1.825,2.791c-0.968-1.034-1.799-2.208-3.113-2.897
	c0.612,1.714,2.531,2.692,2.575,4.613c-1.091-2.984-4.04-4.113-5.793-6.437c0.46,2.043,2.131,3.448,2.468,5.257
	c-0.571-1.289-1.937-2.354-3.004-2.791c0.864,1.14,1.978,2.602,2.253,3.97c-1.021-1.768-2.408-3.741-4.185-4.397
	c1.077,1.141,2.44,2.566,2.684,4.184c-0.3-0.769-1.002-1.354-1.61-1.931c-0.58-0.552-1.189-1.311-1.932-1.395
	c0.379,1.015,1.332,2.029,1.503,2.896c-0.688-1.065-1.704-1.802-2.684-2.575c0.362,1.712,1.559,2.591,2.254,3.971
	c-1.044-0.853-1.866-2.498-3.111-2.791c0.773,1.05,1.46,2.187,2.146,3.327c-1.147-1.107-2.379-2.128-3.542-3.22
	c0.504,1.607,1.802,2.42,2.468,3.863c-1.169-1.298-2.452-2.483-3.97-3.434c1.088,1.595,2.58,3.357,3.327,4.937
	c-1.25-1.397-2.626-2.667-4.292-3.649c0.554,1.484,1.879,2.197,2.574,3.542c-0.961-0.756-2.206-1.799-3.325-2.039
	c0.993,1.367,2.506,2.215,3.541,3.541c-1.493-1.189-3.275-2.662-5.043-3.218c1.018,0.589,1.126,1.97,2.146,2.682
	c1.065,0.741,2.634,0.93,3.004,2.145c-1.006-0.637-2.114-1.746-3.432-1.715c1.415,0.945,2.452,2.268,3.861,3.218
	c-2.317-0.866-4.083-2.855-6.759-3.004c0.812,0.798,2.169,1.62,2.575,2.468c-1.273-0.981-3.306-1.772-4.935-2.039
	c0.722,0.993,1.66,1.772,2.574,2.575c-0.905-0.382-1.98-1.166-2.896-1.181c0.749,0.79,1.988,1.66,2.468,2.361
	c-0.735-0.341-1.778-0.939-2.577-0.858c1.083,1.1,3.044,1.891,3.863,2.896c-1.229-0.7-2.918-1.515-4.506-1.501
	c0.743,0.473,1.523,0.91,2.253,1.395c-1.396-0.393-3.25-0.898-4.721-0.858c1.1,0.51,2.429,1.362,2.897,2.146
	c-0.599-0.152-1.308-0.765-2.039-0.429c1.522,0.696,2.748,1.689,4.078,2.575c-1.141-0.183-2.376-0.842-3.649-0.536
	c0.88,0.658,2.06,1.017,3.004,1.61c-0.869,0.019-1.777-0.236-2.575-0.108c0.942,0.598,2.294,0.782,3.327,1.288
	c-1.298-0.009-2.61-0.035-3.327,0.538c1.444,0.744,3.108-0.177,4.185,0.536c-1.194,0.016-3.286-0.208-3.756,0.858
	c1.652,0.07,2.092-0.261,3.327,0.107c-1.831,0.173-3.278,0.728-4.614,1.395c0.557-0.026,1.106,0.037,1.61,0
	c1.472-0.105,2.717-0.724,3.541-0.643c-0.977,0.24-2.125,0.877-2.467,1.395c1.27-0.196,2.131-0.8,3.325-1.072
	c-1.727,1.934-5.867,0.836-7.188,3.218c0.598-0.044,1.003-0.283,1.501-0.429c-0.727,0.703-1.778,1.083-2.253,2.039
	c0.756,0.004,1.068-0.435,1.824-0.429c-0.814,0.722-1.903,1.173-2.575,2.038c1.427,0.174,2.41-0.665,3.541-0.428
	c-1.005,0.39-1.907,0.882-2.682,1.501c1.059-0.157,1.963-0.47,2.897-0.751c-0.507,0.747-1.698,0.806-2.039,1.717
	c0.511-0.1,1.219-0.565,1.717-0.322c-1.124,0.737-2.09,1.63-3.004,2.575c1.967-0.464,3.833-1.03,5.257-2.038
	c-0.661,0.841-1.85,1.154-2.36,2.145c1.721-0.423,2.767-1.523,4.077-2.36c-0.703,1.014-2.253,1.752-2.253,3.111
	c0.4-0.674,1.51-1.206,2.039-1.395c-0.732,1.02-1.354,2.153-2.039,3.22c1.811-0.759,2.395-2.58,4.185-3.113
	c-1.055,1.2-2.313,2.767-2.791,4.185c0.876-0.589,1.589-1.915,2.36-2.253c-0.202,0.262-0.409,0.52-0.535,0.858
	c0.71-0.111,0.754-0.891,1.393-1.074c-0.653,1.17-1.978,2.243-2.038,3.649c0.684-0.747,1.619-1.813,2.36-2.146
	c-0.639,0.935-1.263,2.455-1.501,3.432c0.92-0.546,1.879-1.625,2.575-2.039c-0.315,0.691-1.071,1.503-1.074,2.147
	c0.93-0.751,1.91-2.024,2.684-2.575c-0.275,0.441-0.577,0.854-0.751,1.395c1.34-0.625,2.263-2.241,2.253-3.863
	c-0.464,0.467-0.782,1.08-1.501,1.288c0.545-0.744,1.73-1.415,1.608-2.468c-0.674,1.258-1.869,1.994-3.111,2.684
	c1.418-1.371,3.164-2.987,3.647-4.935c-1.496,1.327-2.692,2.956-4.506,3.97c0.813-1.083,2.423-1.942,2.361-3.542
	c-0.482,0.593-1.02,1.128-1.718,1.503c0.768-0.879,1.698-1.594,1.932-3.004c-1.494,0.114-2.259,0.959-3.434,1.395
	c1.267-1.522,3.879-1.701,4.721-3.649c-1.841,0.699-3.217,1.863-5.043,2.577c0.239-0.478,0.872-0.56,1.074-1.074
	c-1.128-0.018-2.017,0.772-2.897,0.645c1.109-0.464,2.524-1.195,2.791-2.147c-1.619,0.387-2.566,2.013-4.185,2.039
	c0.513-0.224,0.593-0.27,1.072-0.429c1.547-2.209,4.771-2.739,6.76-4.506c-1.399-0.004-2.203,1.159-3.325,1.072
	c1.11-0.426,2.033-1.042,2.789-1.824c-2.574,0.718-5.077,2.077-7.405,2.682c1.034-0.541,2.115-1.033,2.577-2.146
	c-1.106-0.079-2.375,1.115-3.542,0.965c2.593-0.911,4.569-2.439,6.974-3.539c-0.829,0.007-1.638-0.007-2.146-0.322
	c1.252-0.083,2.667,0.387,3.435-0.322c-1.406-0.025-2.751-0.111-3.756-0.536c1.985,0.33,3.166-0.379,5.042-0.429
	c-0.946-1.091-3.18-0.896-4.935-1.181c0.612-0.209,1.676,0.032,2.253-0.214c-0.904-0.312-1.9-0.533-2.789-0.858
	c0.773-0.075,1.293,0.237,1.931,0c-0.322-0.608-1.261-0.599-1.717-1.074c-0.171-1.33-1.871-1.132-2.575-1.931
	c0.907,0.388,2.164,0.942,3.111,0.429c-0.407-0.343-0.965-0.536-1.393-0.858c3.275,0.335,4.783,3.013,8.046,3.003
	c-0.634-0.438-1.469-0.677-2.039-1.179c1.446,0.379,2.713,1.507,4.292,1.395c-1.305-1.198-3.198-1.809-4.614-2.896
	c0.374,0.095,0.971,0.526,1.289,0.321c-1.201-1.302-3.409-1.598-4.828-2.682c0.737,0.277,1.775,0.453,2.36,0.322
	c-0.782-1.113-2.186-1.607-3.22-2.468c1.711,0.722,4.065,1.373,5.902,1.61c-0.671-0.76-1.89-0.971-2.682-1.61
	c3.729,0.669,4.888,4.482,8.153,5.257c-0.593-0.729-1.6-1.617-1.931-2.253c0.861,0.177,1.257,1.389,1.931,1.395
	c-0.52-1.088-1.2-2.019-1.824-3.004c1.074,0.858,1.811,2.054,2.897,2.897c-0.765-2.133-2.155-3.639-3.863-4.828
	c3.092,0.877,3.877,4.635,6.867,5.257c-1.693-2.169-3.945-4.352-5.364-6.438c0.524,0.404,0.92,0.94,1.501,1.288
	c0.139-1.891-1.185-2.32-1.61-3.647c1.176,1.327,2.24,2.767,3.863,3.647c-0.138-0.791-0.779-1.08-0.965-1.824
	c1.629,1.948,3.105,4.047,5.043,5.687c-0.42-1.118-1.312-1.764-1.825-2.791c1.386,1.012,2.171,2.622,3.542,3.649
	c-0.671-1.906-2.191-2.959-3.113-4.613c1.642,1.254,2.837,3.529,4.4,4.506c-1.03-2.834-3.62-4.68-3.971-7.833
	c0.24,0.583,0.397,1.248,0.858,1.608c0.047-1.37-0.719-2.498-0.643-3.541c0.388,1.365,1.028,2.476,2.253,3.004
	c0.083-0.274-0.42-0.494-0.107-0.643c1.153,2.065,2.249,4.188,3.863,5.793c-0.237-1.015-0.715-1.789-1.074-2.682
	c0.681,0.428,0.772,1.446,1.288,2.038c0.029-1.138-0.864-1.923-0.75-2.789c0.699,1.302,1.456,2.549,2.145,3.863
	c0.234-1.915-0.792-3.141-0.857-4.399c0.879,1.589,1.364,4.144,2.467,5.149c-0.442-3.853-3.231-7.632-2.789-10.835
	c0.357,1.107,0.4,2.533,1.074,3.325c0.064-0.29-0.138-0.851,0.105-0.965c0.242,0.047,0.044,0.529,0.108,0.751
	c0.362-0.067,0.478-0.381,0.858-0.429c1.904,1.958,1.979,5.745,3.541,8.046c0.072-0.965-0.142-2.216,0.107-3.004
	c0.25,0.645,0.063,1.726,0.431,2.254c1.269-3.289-1.919-5.688-1.289-8.906c0.108,0.965,0.199,1.948,0.645,2.575
	c-0.097-1.279-0.337-3.239,0.322-4.077c-0.278,1.077,0.045,2.448,0.428,3.218c0.448,0.025,0.507-0.174,0.86,0
	c0.081-0.658-0.469-1.247-0.108-1.824c1.039,2.43,1.15,5.788,2.36,8.046c0.313-1.6-0.223-3.466-0.214-4.72
	c0.734,1.428,0.63,4.289,0.752,5.687c0.464-1.144,0.555-2.663,0.857-3.971c0.066,0.577-0.174,1.462,0.216,1.717
	c0.677-1.562,0.094-4.006,0-5.364c0.233,0.696,0.315,1.544,0.644,2.146c0.529-0.306,0.92,0.045,1.072,0.429
	c0.32-0.473-0.14-1.084,0.107-1.288c0.465,1.717,0.289,4.074,0.857,5.687c0.318-0.684,0.149-1.853,0.537-2.467
	c0.121,1.739-0.254,4.425,0.215,5.471c0.991-1.904,1.025-4.768,1.18-7.51c0.178,0.502,0.061,1.299,0.43,1.61
	c0.343-0.803,0.264-2.027,0.752-2.684c-0.723,1.685,0.253,2.955,0.429,4.292c0.169,1.295-0.589,2.528-0.216,4.078
	c1.535-2.64,1.074-8.468,0.322-11.373c0.014,0.656,0.002,1.288-0.322,1.608c-0.971-1.497-1.22-3.715-1.93-5.473
	c0.08,1.673,0.58,3.497,0.429,5.043c-0.897-1.248-1.028-3.264-2.361-4.077c0.073,1.321,0.776,2.585,0.751,3.647
	c-0.473-1.242-0.962-2.47-1.717-3.434c0.031,1.043,0.566,2.152,0.43,3.004c-0.625-1.556-1.586-2.776-2.359-4.185
	c0.077,0.996,0.648,1.497,0.643,2.575c-1.488-1.336-1.654-3.996-3.111-5.364c0.265,1.772,1.14,3.508,1.288,5.042
	c-0.584-1.096-1.072-2.288-1.717-3.325c-0.009,1.083,0.839,1.878,0.645,2.789c-1-1.611-1.934-3.86-3.113-4.935
	c0.294,1.1,0.681,2.109,0.967,3.218c-1.239-1.085-1.635-3.015-2.791-4.184c0.417,1.729,1.497,2.795,1.717,4.721
	c-1.378-1.626-2.353-3.658-3.754-5.257c0.51,1.421,1.358,2.503,1.824,3.97c-0.732-0.655-1.361-1.441-1.932-2.253
	c-0.592-0.841-0.962-1.894-1.824-2.468c0.42,1.726,1.374,2.917,1.932,4.506c-1.475-1.458-2.243-3.624-3.649-5.15
	c0.409,1.452,1.5,2.792,1.717,4.078c-0.839-1.308-2.019-2.846-3.111-3.541c0.653,1.206,1.551,2.167,2.039,3.541
	c-1.598-1.282-3.494-3.87-5.259-4.399C73.468,53.035,75.01,54.318,75.645,55.579z M75.429,53.433
	c0.132-0.812-0.328-1.03-0.643-1.395C74.706,52.797,74.848,53.335,75.429,53.433z M83.798,54.828
	c-0.116-1.134-0.381-2.121-0.964-2.789C83.046,53.077,83.347,54.028,83.798,54.828z M87.983,55.472
	c0.157-0.917,0.382-2.335,0.107-3.327C88.096,53.208,87.097,54.876,87.983,55.472z M77.039,53.433
	c-0.092-0.482-0.62-1.093-0.858-1.072C76.197,52.745,76.639,53.134,77.039,53.433z M89.377,53.862
	c-0.302-0.448-0.217-1.283-0.643-1.608C88.625,53.045,89.126,53.789,89.377,53.862z M52.039,55.365
	c-0.29-1.928-2.71-2.298-4.077-2.791C49.267,53.559,50.588,54.527,52.039,55.365z M95.386,53.755
	c0.086-0.458,0.231-0.664-0.107-0.214c-0.323,0.429-0.646,1.11-0.965,1.717c-0.242,0.458-0.959,1.365,0.107,1.501
	C94.597,55.792,95.207,54.722,95.386,53.755z M83.048,56.008c-0.234-0.91-0.524-1.764-0.967-2.467
	C81.772,54.885,82.55,55.225,83.048,56.008z M89.486,57.725c-0.46-1.008-0.234-2.698-0.751-3.647
	C88.31,55.591,88.709,57.264,89.486,57.725z M64.592,56.867c-0.901-0.816-1.387-2.618-2.789-2.575
	C62.618,55.194,63.536,56.565,64.592,56.867z M71.353,55.258c-0.341-0.375-0.664-0.768-1.181-0.967
	C70.25,54.86,70.992,55.329,71.353,55.258z M61.91,56.008c-0.344-0.442-0.59-0.983-0.965-1.395
	C60.951,55.324,61.617,55.941,61.91,56.008z M52.361,56.117c-0.769-0.199-1.475-1.028-2.039-1.074
	C50.874,55.458,51.526,56.342,52.361,56.117z M69.529,56.117c-0.083-0.384-0.277-0.653-0.538-0.858
	C69.054,55.66,69.208,55.972,69.529,56.117z M61.481,56.117c-0.053-0.127-0.114-0.243-0.215-0.322
	C61.25,55.938,61.436,56.386,61.481,56.117z M61.696,56.653c-0.053-0.127-0.116-0.243-0.215-0.322
	C61.463,56.474,61.649,56.922,61.696,56.653z M91.417,59.871c-0.345-1.229-0.909-2.81-1.608-3.327
	C90.152,57.845,90.708,58.935,91.417,59.871z M56.115,62.017c-0.858-1.75-1.638-4.156-2.896-5.15
	C54.177,58.592,53.918,61.532,56.115,62.017z M94.206,59.978c0.089-0.574,0.445-1.46,0-1.931
	C94.257,58.724,93.474,59.606,94.206,59.978z M56.653,59.442c-0.25-0.609-0.883-1.405-1.61-1.181
	C55.443,58.721,56.087,59.505,56.653,59.442z M16.63,60.945c-0.684-0.926-1.748-2.042-3.434-1.61
	C14.414,59.799,15.415,60.48,16.63,60.945z M32.726,67.49c-0.768-0.413-1.604-0.759-2.361-1.181
	c2.994,0.583,4.928,2.799,8.584,2.361c-2.137-1.762-5.61-2.187-7.939-3.756c1.356,0.18,2.773,0.873,4.077,0.751
	c-1.997-1.172-4.367-1.267-6.33-2.254c-1.944-0.976-3.618-2.253-5.58-3.004c1.705,0.19,2.979,1.383,4.828,1.074
	c-0.939-0.349-2.02-0.555-2.791-1.074c1.053-0.122,1.794,0.637,2.575,0.429c-1.513-0.621-3.086-1.488-4.935-1.286
	c-0.803,0.086-1.521,0.75-2.361,0.75c-0.74,0-1.437-0.486-2.146-0.643c-1.072-0.239-2.084-0.123-3.218-0.429
	c1.632,1.334,3.51,1.666,5.257,2.682c2.408,1.4,3.795,4.575,6.974,4.721c-0.775-0.763-2.257-1.39-2.897-1.932
	C27.409,65.367,30.145,66.814,32.726,67.49z M49.786,65.666c-2.609-2.219-5.808-4.421-9.335-5.366
	c1.778,1.049,3.261,2.391,4.507,3.97c-1.537-0.93-3.006-2.502-5.257-2.36c2.01,1.03,3.85,2.229,5.58,3.541
	c-2.306-1.141-5.53-2.996-8.262-2.36c2.483,1.343,5.969,2.256,7.831,3.861c-1.96-0.757-3.923-2.083-5.9-2.467
	c1.463,1.184,2.955,2.339,4.506,3.434c-1.652-0.53-3.202-1.733-5.042-1.717c2.372,1.598,4.922,3.018,7.51,4.399
	c-0.558,0.019-1.315-0.327-1.717-0.107c1.406,0.384,2.644,1.504,3.97,1.608c-0.226-0.167-0.595-0.192-0.643-0.536
	c0.16-0.018,0.396,0.038,0.429-0.107c-0.561-0.765-1.699-1.519-2.039-2.146c0.973,0.779,3.097,0.98,4.399,1.072
	c-0.268,0.019-0.335-0.164-0.429-0.321c0.127,0.015,0.243,0.19,0.322,0c-0.631-0.586-1.749-1.254-2.039-1.824
	c1.049,0.596,2.323,1.54,3.649,1.501c-0.873-0.917-1.91-1.667-2.897-2.468c1.178,0.289,2.057,0.876,3.111,1.288
	c-0.642-1.542-2.717-2.213-3.325-3.434C49.143,65.168,49.417,65.921,49.786,65.666z M11.802,60.623
	c0.958,0.687,2.793,1.069,3.327,1.824c-1.925-0.858-4.501-1.605-7.081-1.179c1.831,0.744,4.564,0.583,6.009,1.717
	c-1.811-0.813-5.383-0.85-7.405-0.751c1.299,0.633,3.255,0.608,4.292,1.501c-1.973-0.687-4.682-0.823-7.081-0.536
	c1.894,0.609,4.622,0.385,6.224,1.288c-2.518-0.628-5.956-0.513-7.941,0.536c3.337-0.302,6.876-0.357,9.013,1.074
	c-1.72-0.869-5.117-0.653-6.653,0.214c1.418-0.108,2.424,0.822,3.756,0.965c1.441,0.155,2.895-0.546,3.97,0.215
	c-1.542-0.208-2.925,0.054-4.077,0.751c1.348,0.226,2.994,0.152,4.077,0.643c-1.777-0.252-3.932-0.135-5.15,0.751
	c2.48,0.063,4.592,0.684,6.76,0.75c-1.132,0.155-2.095,0.482-3.004,0.858c1.493,0.624,3.549-0.204,4.935,0
	c-0.822,0.324-1.978,0.883-2.253,1.396c1.72-1.198,4.995-0.236,6.546-1.181c-0.87,0.009-1.56-0.157-2.146-0.429
	c1.096-0.125,1.548,0.303,2.467,0c-0.404-0.346-1.308-0.193-1.61-0.645c0.876,0.234,2.36,0.378,3.113,0.108
	c-1.245-0.999-3.388-0.751-4.83-1.074c1.951-0.258,3.829-0.614,5.58-0.536c-1.526-1.084-5.285-0.508-6.33-1.717
	c2.766,0.524,6.385,0.768,8.584,1.503c-1.531-1.046-3.599-1.553-5.473-2.254c0.916,0.016,1.872,0.558,2.682,0.322
	c-0.454-0.548-1.834-0.74-1.931-1.288c0.376,0.27,1.277,0.58,1.608,0.536c-0.703-0.905-1.775-1.443-2.789-2.038
	c1.084,0.095,1.699,0.659,3.004,0.536c-0.848-1.121-2.474-2.962-4.292-3.111c0.79,0.605,1.926,1.434,2.253,2.146
	c-1.532-1.08-3.258-2.536-5.257-2.791c0.776,0.656,2.208,1.225,2.575,1.932C15.75,61.824,13.26,60.814,11.802,60.623z
	 M58.047,61.695c-0.148-0.042-0.303-0.609-0.429-0.321C57.768,61.417,57.923,61.982,58.047,61.695z M81.545,65.451
	c0.328,0.078,0.315-0.185,0.645-0.107c-0.007-0.315-0.246-0.398-0.429-0.536C81.699,65.032,81.494,65.114,81.545,65.451z
	 M86.266,66.631c0.289-0.105,0.551-0.237,0.858-0.322c-0.208-0.435-0.25-1.037-0.751-1.181C86.209,65.5,86.279,66.107,86.266,66.631
	z M82.081,68.026c0.294-0.135,0.688-0.17,0.967-0.322c-0.352-0.579-0.425-1.436-0.645-2.145
	C80.624,65.503,81.939,67.065,82.081,68.026z M74.786,67.274c0.089-0.303,0.422-0.365,0.643-0.536
	c-0.369-0.202-0.523-0.621-0.965-0.751C74.555,66.432,74.489,67.036,74.786,67.274z M87.231,69.529
	c0.092-0.16,0.27-0.231,0.538-0.215c-0.155-0.954-0.381-1.835-0.538-2.791C85.566,66.643,87.157,68.577,87.231,69.529z
	 M91.739,68.134c0.028-0.252,0.472-0.063,0.536,0c-0.009-0.743-0.267-1.236-0.643-1.611C91.616,66.731,91.546,67.789,91.739,68.134z
	 M74.786,67.49c0.204,0.833,0.772,1.301,1.072,2.039c0.319-0.183,0.542-0.46,0.965-0.538C76.443,68.191,75.645,66.189,74.786,67.49z
	 M71.244,71.782c0.076-0.39,0.596-0.335,0.751-0.645c-1.438-0.814-1.816-2.689-3.541-3.218
	C68.843,69.749,70.361,70.447,71.244,71.782z M82.619,69.098c0.091-0.23,0.264-0.379,0.643-0.321
	c0.063-0.385-0.125-0.52-0.214-0.751C82.118,67.813,82.226,68.779,82.619,69.098z M91.953,71.566c0.342-0.164,0.473-0.037,0.858,0
	c-0.357-0.93-0.249-2.325-0.536-3.325c-0.179,0-0.357,0-0.536,0C91.482,69.262,92.015,70.384,91.953,71.566z M82.619,69.207
	c0.119,1.024,0.521,1.767,0.75,2.682c0.229,0.123,0.655-0.297,1.074-0.322c-0.458-0.792-0.696-1.808-1.074-2.682
	C82.964,68.837,82.866,69.095,82.619,69.207z M95.816,69.529c0.342-0.094,0.332,0.168,0.535,0.214
	c0.045-0.472-0.131-0.727-0.535-0.751C95.816,69.17,95.816,69.349,95.816,69.529z M43.025,72.318
	c-1.601-0.653-3.272-1.805-5.58-1.395c2.08,0.674,4.102,1.406,5.902,2.36c-2.3-0.598-5.539-1.803-8.155-0.751
	c2.607,0.863,5.834,1.106,8.155,2.253c-2.095-0.3-4.116-1.247-6.116-1.286c1.601,0.866,3.193,1.742,4.935,2.467
	c-1.626-0.138-3.5-1.134-5.042-0.643c3.667,1.499,8.339,3.209,12.983,3.111c-1.091-0.734-2.253-1.395-3.434-2.039
	c1.598,0.24,2.735,1.138,4.399,0.429c-0.803-0.413-1.683-0.749-2.36-1.288c0.538-0.069,1.355,0.141,1.715-0.107
	c-0.76-0.669-2.276-1.156-2.574-1.931c0.302,0.06,0.907,0.374,1.179,0.107c-2.96-2.155-6.984-3.816-11.159-4.399
	C39.809,70.027,41.524,71.067,43.025,72.318z M76.074,69.743c0.145,0.105,0.214,0.287,0.321,0.429
	c0.409-0.022,0.407-0.451,0.858-0.429c0.081-0.33-0.294-0.207-0.214-0.536C76.441,69.11,76.289,69.457,76.074,69.743z
	 M87.769,72.318c0.113-0.281,0.435-0.352,0.858-0.322c-0.218-0.891-0.614-1.603-0.751-2.575
	C86.61,69.634,87.658,71.522,87.769,72.318z M95.495,72.209c0.37-0.083,0.452,0.12,0.644,0.215c0.127-0.766,0.036-1.75,0.213-2.467
	c-0.225-0.095-0.316-0.327-0.643-0.322C95.664,70.749,95.471,71.162,95.495,72.209z M76.61,70.494
	c0.647,0.675,1.052,1.594,1.608,2.36c0.081-0.42,0.485-0.516,0.751-0.751c-0.495-0.719-1.065-1.365-1.501-2.145
	C76.9,69.854,76.74,70.159,76.61,70.494z M60.407,70.708c0.22,0.675,0.69,1.1,1.181,1.501c0.003-0.533,0.331-0.741,0.536-1.072
	C61.658,70.937,61.088,70.349,60.407,70.708z M80.257,70.923c-0.202-0.012-0.073-0.354-0.321-0.322
	C79.909,70.787,80.137,71.237,80.257,70.923z M61.803,72.318c0.312,0.368,0.688,0.669,1.179,0.858
	c0.047-0.454,0.456-0.546,0.538-0.967c-0.535-0.215-0.853-0.649-1.396-0.857C62.019,71.675,61.745,71.832,61.803,72.318z
	 M71.353,71.996c0.353,0.221,0.753-0.275,1.072-0.429C72.04,71.314,71.36,71.53,71.353,71.996z M92.275,74.249
	c0.387-0.037,0.518-0.164,0.858,0c-0.194-0.841-0.176-1.898-0.536-2.575c-0.179,0-0.357,0-0.537,0
	C92.06,72.549,92.408,73.594,92.275,74.249z M83.798,72.64c0.082-0.28,0.602-0.439,0.86-0.215c0.042-0.258-0.196-0.233-0.108-0.536
	C84.013,71.597,83.266,72.22,83.798,72.64z M71.782,72.209c0.51,0.779,1.153,1.422,1.931,1.932c0.233-0.231,0.561-0.369,0.858-0.536
	C73.742,73.144,72.979,71.275,71.782,72.209z M87.876,72.64c0.108-0.249,0.494-0.223,0.858-0.215
	C88.721,71.688,87.529,72.387,87.876,72.64z M78.327,73.176c0.413-0.123,0.606-0.467,0.965-0.645
	C78.877,72.042,78.379,72.665,78.327,73.176z M95.386,74.035c0.337-0.051,0.42,0.152,0.643,0.214
	c-0.07-0.643,0.099-1.046,0.109-1.608c-0.228-0.095-0.318-0.327-0.644-0.322C95.36,72.564,95.388,73.361,95.386,74.035z
	 M63.412,73.499c0.022-0.48,0.337-0.667,0.538-0.967C63.539,72.168,62.862,73.239,63.412,73.499z M84.227,74.464
	c0.34-0.053,0.379,0.193,0.751,0.107c0.031-0.524,0.123-1.671-0.321-2.039C83.124,72.397,84.313,73.619,84.227,74.464z
	 M63.627,73.605c0.81,0.583,1.575,1.216,2.36,1.824c0.003-0.533,0.331-0.743,0.538-1.072c-0.883-0.513-1.645-1.146-2.468-1.717
	C63.894,72.942,63.548,73.062,63.627,73.605z M87.983,73.069c0.221-0.23,0.56-0.341,0.858-0.215
	C88.812,72.324,87.519,72.766,87.983,73.069z M78.541,73.499c0.324,0.321,0.554,0.734,0.751,1.181
	c0.365-0.029,0.87,0.082,1.074-0.108C80.584,73.311,78.983,72.192,78.541,73.499z M88.305,75c0.363,0.031,0.615,0.171,1.072,0.108
	c0.083-0.611-0.21-1.607-0.536-2.146C87.495,72.813,88.141,74.316,88.305,75z M50.966,73.926c-0.293-0.1-0.458-0.328-0.751-0.428
	C50.205,73.835,50.654,74.266,50.966,73.926z M74.357,74.785c0.013-0.451,0.636-0.293,0.75-0.643
	C74.606,73.427,73.219,74.401,74.357,74.785z M58.477,75.858c-0.034-0.426,0.248-0.539,0.215-0.965
	c-0.658-0.416-1.43-0.716-2.468-0.751C56.209,75.48,57.674,75.34,58.477,75.858z M95.279,74.679
	c0.264-0.015,0.518-0.018,0.644,0.105c0.024-0.381-0.153-0.56-0.536-0.536C95.412,74.452,95.266,74.486,95.279,74.679z
	 M92.382,74.679c0.41-0.078,0.517-0.072,0.857,0.105C93.357,74.316,92.336,74.124,92.382,74.679z M74.464,74.785
	c0.138,0.47,0.541,0.675,0.858,0.967c0.051-0.343,0.713-0.073,0.858-0.322c-0.316-0.255-0.51-0.633-0.751-0.965
	C74.922,74.386,74.725,74.616,74.464,74.785z M66.524,75.751c0.001-0.533,0.33-0.743,0.535-1.072
	C66.406,74.159,65.698,75.737,66.524,75.751z M92.382,75.858c0.252,0.035,0.402,0.17,0.751,0.107
	c0.091-0.267,0.141-0.574,0.106-0.965C92.679,74.468,92.156,74.991,92.382,75.858z M95.708,77.039
	c0.144-0.608,0.139-1.364,0.214-2.039c-0.224-0.062-0.305-0.265-0.644-0.215C95.474,75.645,94.679,76.937,95.708,77.039z
	 M66.631,75.965c0.337,0.092,0.453,0.407,0.858,0.429c0.064-0.507,0.413-0.731,0.643-1.072
	C67.548,74.679,66.623,74.928,66.631,75.965z M58.692,76.074c1.014,0.344,1.775,0.942,2.789,1.288
	c-0.054-0.52,0.334-0.596,0.322-1.074c-1.087-0.272-1.879-0.839-2.897-1.179C58.686,75.281,58.657,75.646,58.692,76.074z
	 M95.066,78.004c-0.834-1.206-2.49-1.588-4.078-2.039c-0.018,0.161,0.037,0.397-0.107,0.429c0.051-0.337-0.152-0.419-0.214-0.643
	c-1.359,0.016-2.874-0.691-4.828-0.429c0.059,0.233,0.255,0.879,0,1.072c0.013-0.514-0.104-0.899-0.322-1.179
	c-0.451-0.129-0.192,0.453-0.431,0.536c-0.035-0.25-0.11-0.463-0.321-0.536c-0.242,0.107,0.231,0.584-0.107,0.75
	c0.01-0.333-0.132-0.513-0.215-0.75c-2.342,0.163-5.074-0.067-6.867,0.643c-0.157,0.91,0.423,1.649,0.108,2.361
	c-0.259-0.708,0.095-2.029-0.645-2.254c-0.309,0.048,0.095,0.812-0.215,0.858c0.012-0.333-0.13-0.513-0.214-0.75
	c-1.96,0.435-3.541,1.251-5.58,1.608c-0.214,0.359-0.562,0.583-0.645,1.074c0.636,0.13,1.179-0.39,1.61-0.108
	c-0.784,0.075-1.422,0.294-1.824,0.751c0.182,0.284,0.318,0.612,0.322,1.074c0.256,0.066,0.778-0.135,0.858,0.107
	c-0.393-0.035-0.596,0.119-0.858,0.214c0.015,0.265,0.016,0.517-0.108,0.645c1.074,0.107,2.105-0.398,2.897-0.214
	c-1.006,0.209-2.117,0.315-3.004,0.643c0.042,0.51-0.227,0.773,0,1.181c2.317,0.977,4.548-0.491,6.545-0.858
	c0.075-0.898-0.467-1.749-0.214-2.468c0.037,0.857,0.426,1.362,0.429,2.253c1.733-0.161,2.93-0.86,4.721-0.965
	c0.021-0.56-0.432-1.208-0.215-1.61c0.098,0.546,0.376,0.911,0.429,1.503c2.502-0.179,4.72-0.527,7.403-0.215
	c0.281-0.176-0.252-0.737,0.108-0.965c-0.037,0.429,0.19,0.595,0.107,1.072c0.383,0.045,0.572,0.287,1.073,0.215
	c0.054-0.488-0.341-1.084-0.108-1.395c0.043,0.601,0.314,0.973,0.322,1.61c1.266,0.378,2.51,0.781,3.756,1.179
	c0-0.177,0-0.357,0-0.536c-0.524-0.514-1.557-0.519-2.146-0.965c0.607,0.073,1.019,0.34,1.609,0.429
	c0.133-0.567-0.328-1.097,0-1.503c-0.039,0.647,0.253,0.964,0.215,1.61c0.678,0.182,1.393,0.895,1.824,0.965
	c-0.566-1.006-0.883-2.265-0.859-3.863c-0.528-0.508-1.372-0.7-2.039-1.072C93.937,77.559,94.414,77.87,95.066,78.004z
	 M67.597,76.501c0.694,0.308,1.575,0.675,2.253,0.431C69.297,76.181,67.985,74.751,67.597,76.501z M23.177,80.257
	c-0.617-0.349-1.724-0.208-2.254-0.643c0.599-0.059,1.323,0.318,1.825,0c-0.97-0.533-2.082-0.924-3.327-1.181
	c0.842-0.267,2.263,0.045,3.111-0.214c-1.217-1.037-2.956-2.124-5.043-1.932c1.062,0.368,2.004,0.858,2.897,1.395
	c-1.916-0.372-3.604-1.545-5.902-1.181c1.031,0.4,2.281,0.582,3.113,1.181c-1.589-0.353-4.219-0.776-5.795-0.429
	c1.296,0.207,2.707,0.297,3.756,0.751c-2.648-0.296-5.235-0.246-7.403,0.751c1.802,0.325,4.351-0.727,6.223,0.107
	c-3.111-0.287-4.956,0.694-7.296,1.181c1.478,0.369,3.36-0.289,4.507,0.322c-2.616-0.085-4.701,0.551-6.76,1.286
	c1.778,0.34,3.927-0.784,6.116-0.321c-3.188,0.209-5.651,1.144-7.51,2.682c2.468-0.892,6.035-2.243,8.798-1.503
	c-2.549-0.078-4.541,0.842-6.116,2.039c1.31-0.338,2.455,0.05,3.541,0c1.538-0.07,2.689-1.356,4.292-0.858
	c-1.67,0.114-2.713,0.853-3.861,1.717c1.425,0.05,3.073-0.765,4.184-0.321c-1.573,0.158-3.261,0.604-4.184,1.288
	c-0.211,0.154-0.639,0.552-0.431,0.75c1.402-0.765,3.299-0.313,4.828-0.643c0.623-0.135,1.096-0.842,1.717-0.429
	c-1.099,0.331-1.736,1.125-2.789,1.501c2.013,0.45,3.371-1.188,4.935-1.179c-0.905,0.344-1.327,1.175-1.931,1.824
	c0.847-0.152,1.28-0.907,2.146-1.288c1.282-0.565,3.051-0.334,3.863-1.503c-0.634,0.047-1.51,0.419-2.147,0.108
	c0.822-0.217,1.818-0.259,2.47-0.645c-0.413-0.212-1.232,0.135-1.61-0.107c0.989-0.226,2.167-0.265,2.896-0.751
	c-1.393-0.734-3.545,0.123-4.935,0.215c1.635-0.798,3.356-1.509,5.257-2.039c-2.294-0.561-4.438,0.872-6.652,0.107
	c2.974-0.375,5.565-0.855,8.583-0.965c-1.649-0.523-4.37-0.457-6.009-0.645C21.114,80.413,22.625,80.814,23.177,80.257z
	 M62.017,77.575c0.208-0.256,0.234-0.694,0.536-0.858C62.058,75.995,61.219,77.388,62.017,77.575z M62.231,77.791
	c0.539,0.07,0.809,0.407,1.396,0.429c0.261-0.17,0.475-0.385,0.643-0.645C63.535,77.235,62.291,76.214,62.231,77.791z
	 M63.198,80.043c-0.464,2,0.772,4.068,2.575,4.399c-0.82-2.688,1.685-2.981,1.931-0.858c1.541-0.784,2.123-4.479,0.645-5.793
	C66.151,77.147,63.606,78.28,63.198,80.043z M39.056,78.434c2.117,0.316,4.062,0.803,5.687,1.61
	c-1.636-0.259-4.288-0.671-5.687,0.107c2.212,0.185,4.462,0.33,6.438,0.751c-3.242-0.023-6.476-0.038-8.155,1.501
	c2.791,0.006,6.057-0.552,8.691,0c-2.104,0.151-4.553-0.047-6.438,0.322c1.689,0.473,3.772,0.826,5.366,1.072
	c-1.323,0.229-3.901,0-5.15,0.645c1.77,0.27,3.665,0.412,5.58,0.536c1.575-1.5,3.234-2.917,5.364-3.863
	c-1.359-0.095-2.288-0.015-3.863-0.214c0.984-0.482,2.382-0.551,3.22-1.181c-1.203-0.335-2.183,0.205-3.22,0
	c0.683-0.176,1.216-0.501,1.825-0.751C45.984,78.347,42.217,77.95,39.056,78.434z M68.777,82.941
	c-0.316,0.571-1.112,1.074-0.858,1.824c1.51,0.021,2.824-4.551,1.501-6.117C69.809,80.145,69.406,81.804,68.777,82.941z
	 M61.266,79.721c-0.01,0.441-0.021,0.879,0.108,1.181c0.366-0.026,0.516-0.271,0.965-0.215c0.06-0.475,0.347-0.725,0.322-1.288
	C62.127,79.437,61.816,79.699,61.266,79.721z M60.407,80.043c-0.07,0.5,0.17,0.688,0.215,1.072c0.239-0.082,0.582-0.062,0.643-0.322
	c-0.362-0.103,0.019-0.948-0.429-0.965C60.82,80.027,60.473,79.894,60.407,80.043z M57.94,80.687
	c-0.249,0.442-0.236,0.939,0.107,1.288c0.819-0.217,1.541-0.533,2.36-0.75c-0.139-0.362,0.073-1.075-0.322-1.181
	C59.348,80.235,58.729,80.544,57.94,80.687z M86.159,80.793c-1.62,0.101-3.886,0.067-4.185,1.289c2.123-0.325,4.717-0.236,6.867,0
	c0.244-0.365,0.53-0.687,0.645-1.181C88.226,80.729,87.393,80.717,86.159,80.793z M57.403,80.902
	c-0.464,0.429-1.269,0.519-1.501,1.181c0.341,0.776,1.358,0.201,1.932,0C57.56,81.819,57.803,81.04,57.403,80.902z M89.164,82.083
	c0.396-0.034,1.018-0.866,0.536-1.074C89.523,81.368,89.341,81.724,89.164,82.083z M65.987,85.73
	c0.372-1.081-0.804-0.911-1.286-1.181c-1.178-0.656-1.361-1.992-1.825-3.434C62.769,83.799,64.188,84.955,65.987,85.73z
	 M89.808,82.296c0.606,0.035,0.894-0.25,0.858-0.858c-0.159-0.056-0.271-0.16-0.431-0.214
	C90.062,81.549,89.764,81.753,89.808,82.296z M78.434,82.726c1.121-0.454,3.069-0.078,3.434-1.288
	C80.587,81.344,78.857,81.615,78.434,82.726z M90.667,82.403c1.485-0.029,3.317,1.553,4.399,0.538
	C93.962,82.532,91.516,80.716,90.667,82.403z M76.503,83.369c0.935-0.208,1.846-0.441,2.038-1.395
	C77.578,82.157,76.749,82.471,76.503,83.369z M95.816,82.726c-0.271-0.161-0.707-0.719-0.966-0.536
	C94.927,82.544,95.527,82.939,95.816,82.726z M60.193,84.12c0.129,0.265,0.368,0.419,0.643,0.536
	c0.519-0.447,0.954-0.979,1.932-0.965C62.682,81.686,60.866,83.578,60.193,84.12z M75.429,83.691
	c0.568-0.182,1.036-0.466,1.181-1.072C75.866,82.554,75.333,83.269,75.429,83.691z M66.524,84.979
	c0.079-0.242,0.601-0.041,0.857-0.107c-0.249-0.716-0.045-1.887-0.965-1.931C66.211,83.521,66.302,84.494,66.524,84.979z
	 M74.571,83.906c0.335-0.201,0.637-0.437,0.751-0.858C74.845,83.038,74.386,83.609,74.571,83.906z M95.066,83.584
	c0.367,0.025,0.467,0.319,0.535,0.645c0.292-0.066,0.421-0.294,0.428-0.645c-0.158-0.27-0.412-0.444-0.75-0.536
	C95.36,83.377,94.985,83.254,95.066,83.584z M70.386,83.691c0.877,0.643,3.517,0.889,4.078-0.428
	C73.302,83.565,71.596,83.782,70.386,83.691z M59.764,84.12c-0.643,0.482,0.398,1.373,0.858,0.751
	C60.382,84.576,60.221,84.199,59.764,84.12z M92.167,84.656c0.41,0.74,2.507,0.186,2.146-0.321
	C93.837,84.683,92.471,84.139,92.167,84.656z M57.082,86.481c1.405,0.045,1.97-0.749,2.791-1.288
	c-0.39-0.076-0.335-0.596-0.645-0.751C58.557,85.167,57.306,85.31,57.082,86.481z M45.923,84.979
	c0.573,0.072,0.939-0.062,1.072-0.429C46.477,84.532,46.213,84.769,45.923,84.979z M62.982,85.516
	c0.221,0.029,0.215,0.286,0.322,0.428c0.381,0.059,0.264-0.379,0.645-0.322c-0.133-0.331-0.236-0.693-0.645-0.75
	C63.363,85.252,62.925,85.135,62.982,85.516z M66.524,85.622c0.322,0,0.643,0,0.965,0c0-0.177,0-0.356,0-0.535
	C67.018,85.115,66.466,85.063,66.524,85.622z M95.386,86.266c0.27-0.088,0.226-0.489,0.215-0.858
	c-0.247-0.101-0.346-0.006-0.751-0.107C94.973,85.679,95.085,86.067,95.386,86.266z M45.923,85.516
	c-0.292,0.066-0.851-0.138-0.965,0.105C45.354,85.884,45.722,86.045,45.923,85.516z M62.339,86.159
	c0.669,0.735,1.286-0.259,0.429-0.643C62.788,85.893,62.405,85.868,62.339,86.159z M45.923,86.052
	c0.365,0.356,0.731,0.013,0.965-0.322C46.434,85.705,46.2,85.9,45.923,86.052z M66.631,86.375c0.177,0.145,0.625-0.088,1.072,0
	c0.044-0.259-0.196-0.234-0.107-0.538C67.125,85.866,66.573,85.815,66.631,86.375z M61.159,88.305
	c0.567-0.542,1.214-1.002,1.61-1.717c-0.321-0.001-0.365-0.28-0.645-0.322C61.916,87.076,60.338,87.428,61.159,88.305z
	 M95.495,86.481c-0.104,0.463,0.445,1.197,0.428,1.931c0.216,0,0.429,0,0.645,0C96.314,87.722,96.25,86.316,95.495,86.481z
	 M67.597,86.481c-0.195,0.198-0.647,0.139-0.858,0.321c0.063,0.896,0.209,1.896,0.215,3.113c0.3,0.127,0.74,0.117,1.179,0.107
	C68.038,88.717,68.158,87.488,67.597,86.481z M46.459,88.841c0.817-0.006,1.25-0.397,1.61-0.858
	c-0.712,0.006-1.315,0.684-2.039,0.322c0.51-0.313,1.014-0.631,1.395-1.074c-1.097-0.095-2.429,0.145-3.218,0
	c0.461-0.11,0.876-0.268,1.181-0.536c-3.886-0.376-7.242,0.694-9.872,1.932c1.5-0.258,3.242-0.463,4.614-0.215
	c-1.547,0.349-3.229,0.564-4.185,1.503c1.699-0.268,3.565-0.942,5.15-0.965c-2.287,0.681-5.029,1.479-5.902,3.218
	c2.125-0.702,4.277-1.945,6.545-2.146c-1.603,0.579-3.382,0.98-4.72,1.824c1.459-0.221,3.171-0.189,4.397-0.645
	c-1.042,0.782-3.201,1.02-3.754,1.932c2.244-0.51,4.564-0.943,6.545-1.717c-0.514,0.738-1.866,1.21-2.146,1.825
	c2.048-0.814,3.965-1.758,5.15-3.435c-0.875,0.236-1.727,1.062-2.682,0.858c1.126-0.268,1.802-0.987,2.467-1.715
	C46.63,88.831,46.181,89.232,46.459,88.841z M60.3,88.734c0.319-0.04,0.53-0.186,0.645-0.429c-0.223-0.029-0.026-0.475-0.322-0.429
	C60.608,88.254,60.316,88.355,60.3,88.734z M70.816,89.915c0.337,0.091,0.453,0.406,0.858,0.429c0.372-0.7,1.052-1.093,1.501-1.717
	C72.217,88.649,71.495,89.316,70.816,89.915z M96.029,88.95c0.205,0.296,0.737,0.24,0.86-0.108
	c-0.083-0.023-0.124-0.089-0.106-0.214C96.4,88.603,96.139,88.699,96.029,88.95z M96.245,89.377
	c0.028,0.366,0.271,0.516,0.216,0.967c0.178,0,0.357,0,0.535,0C97.065,89.486,96.968,88.92,96.245,89.377z M64.915,112.768
	c0.533-0.79,0.243-2.402,0.643-3.327c0.189,1.412,0.072,4.151,0.108,5.688c1.547-0.776,2.358-3.22,2.253-6.009
	c0.259,1.207,0.229,2.704,0.429,3.97c0.287-1.395,0.22-3.142,0.429-4.614c0.292,1.497,0.393,3.183,0.965,4.4
	c-0.012-0.87-0.007-1.726,0.214-2.361c0.233,1.699,0.853,3.012,1.503,4.292c0.107-1.068-0.186-2.271,0-2.789
	c0.303,1.27,1.012,2.136,1.61,3.111c-0.088-1.523-0.403-3.388-0.322-4.721c0.249,0.645,0.101,1.688,0.643,2.038
	c0.803-2.997-0.492-5.631-0.107-8.798c0.105,0.718,0.076,1.57,0.322,2.146c0.45-2.855-0.478-5.713-0.645-7.939
	c0.158,0.311,0.208,1.291,0.538,1.074c0.009-0.608-0.451-1.77-0.429-3.004c0.548,0.237,0.473,1.1,0.858,1.501
	c0.166-2.812-1.22-4.646-2.253-5.902c0.073,0.085,0.598,0.239,0.643,0c-0.896-0.749-2.035-1.255-3.22-1.717
	c0.442,1.526,1.644,2.864,1.61,4.507c-0.376-1.233-0.708-2.512-1.717-3.113c-0.507,1.813,0.795,3.271,0.538,4.83
	c-0.422-0.974-0.384-2.407-1.181-3.004c-0.231,2.149,0.7,4.844-0.108,6.867c-0.138-2.146,0.35-4.794-0.643-6.546
	c-0.491-0.866-1.579-1.232-1.395-2.36c-0.521,0.659-1.491,0.87-1.824,1.717c0.378,0.016,0.728-0.552,0.965-0.322
	c0.108,0.898-1.087,1.059-0.858,1.718c-0.045-0.174,0.4-0.362,0.429-0.108c-0.078,1.175-0.737,2.338-0.645,3.325
	c0.422-0.33,0.498-1.005,1.074-1.179c0.179,2.216-0.529,3.549-1.074,5.042c0.85-0.188,0.74-1.334,1.288-1.824
	c-0.091,1.626-0.921,3.085-0.965,4.4c0.384-0.69,0.628-1.519,1.181-2.039C64.282,104.769,64.165,109.356,64.915,112.768z
	 M68.24,90.344c-0.22-0.179-1.173-0.179-1.393,0C67.017,90.539,68.208,91.037,68.24,90.344z M101.931,95.493
	c0,0.06,0.088,0.122,0.107,0c-0.797-1.494-2.137-2.988-3.326-4.077c-0.42-0.385-1.074-0.993-1.287-0.858
	c0.501,2.039,1.811,3.841,1.931,5.9c-0.608-1.714-1.167-3.48-2.253-4.72c-0.303,0.949-0.084,2.228-0.214,3.111
	c-0.356-1.147-0.299-2.262-0.429-3.434c-1.227,0.082-1.581,1.991-1.288,2.897c0.046-0.491,0.37-1.153,0.75-0.967
	c0.428,1.531-0.38,3.149-0.106,4.507c0.35-0.437,0.312-1.261,0.751-1.61c-1.021,1.942,0.135,4.43,0.106,6.223
	c-0.016,1.107-0.563,2.074,0,3.113c0.127-0.806,0.143-1.718,0.537-2.254c-0.387,1.714,0.498,3.006,0.645,4.507
	c0.102,1.053-0.236,1.92,0.106,2.789c0.376-0.876,0.176-2.328,0.645-3.111c0.07,1.252-0.212,2.859,0.321,3.647
	c0.203-0.62,0.072-1.572,0.429-2.038c0.702,2.089,1.661,3.918,2.361,6.009c0.216-2.788-0.435-4.843-0.645-6.974
	c0.475,1.598,0.778,3.372,1.503,4.721c0.179-1.611-0.319-3.114-0.107-4.4c0.379,1.304,0.502,2.861,0.859,4.185
	c0.641-1.781,0.047-3.807,0-5.471c0.458,1.185,0.453,2.836,1.179,3.754c0.205-3.495-1.036-6.117-1.501-8.584
	c0.289,0.354,0.539,0.75,0.857,1.074c-0.909-3.706-2.734-7.065-4.078-9.979C100.652,93.983,101.326,94.705,101.931,95.493z
	 M68.026,92.49c0.385-0.458,0.205-0.888,0.214-1.61c-0.558,0.111-0.81-0.023-1.393-0.108C66.907,91.679,67.031,92.52,68.026,92.49z
	 M48.498,91.417c-3.057,1.412-6.582,2.933-7.51,6.116c1.783-1.472,3.426-3.081,5.471-4.291c-1.103,1.185-3.012,2.137-3.754,3.325
	c1.298-0.633,2.707-1.154,3.861-1.932c-0.779,1.044-2.525,1.695-2.789,2.897c1.77-1.021,3.519-2.061,4.828-3.541
	c-0.514-0.151-0.971,0.309-1.288,0c1.003-0.606,2.172-1.046,3.111-1.717c-1.838-0.554-2.785,1.195-3.647,1.61
	C47.224,92.931,47.94,92.254,48.498,91.417z M41.095,95.172c0.189-0.384,0.76-0.384,0.965-0.751
	c-0.161-0.019-0.396,0.04-0.429-0.107c1.83-0.423,3.533-1.545,4.399-2.575C44.489,92.915,41.591,93.308,41.095,95.172z M23.713,94.1
	c-0.765-0.154-1.504,0.28-2.039,0c0.521-0.088,1.124-0.094,1.395-0.431c-1.085-0.267-1.714,0.007-2.682-0.214
	c0.833-0.239,1.787-0.36,2.253-0.965c-1.318-0.242-3.243-0.768-4.506-0.108c0.952,0.085,1.926,0.148,2.682,0.429
	c-1.783,0.041-3.839-0.192-4.935,0.536c0.797,0.133,2.133-0.272,2.574,0.215c-1.759,0.064-3.209,0.438-4.506,0.965
	c1.172,0.098,2.177-0.541,3.22-0.214c-2.385,0.262-4.141,1.153-5.58,2.36c1.772-0.195,2.896-1.608,4.721-1.396
	c-2.265,0.384-3.548,1.748-5.259,2.684c1.343-0.088,2.386-1.047,3.649-0.858c-2.005,0.5-3.899,1.68-4.935,2.791
	c1.604-0.472,2.956-1.765,4.613-1.824c-2.281,0.722-3.913,2.095-5.15,3.861c1.939-1.279,3.817-3.192,6.545-3.325
	c-1.915,0.444-3.551,1.74-4.184,3.111c0.957-0.823,2.323-0.538,3.327-1.181c0.807-0.52,1.283-1.666,2.36-1.395
	c-1.255,0.353-1.847,1.371-2.575,2.253c1.096-0.3,2.08-1.282,3.111-1.288c-1.295,0.565-2.742,1.548-3.004,2.791
	c1.332-1.172,3.505-1.503,4.828-2.682c-0.625,0.661-1.107,1.465-1.824,2.038c1.668-0.264,2.288-1.575,3.541-2.253
	c-0.36,0.5-0.899,1.387-0.858,1.931c0.792-1.711,2.897-2.109,3.863-3.647c-0.482,0.163-1.187,0.669-1.608,0.536
	c0.633-0.296,1.258-0.601,1.715-1.072c-0.52-0.018-1.097,0.472-1.395,0.322c0.826-0.319,1.578-0.712,2.146-1.289
	c-1.729-0.047-2.527,0.835-3.647,1.395c0.847-1.156,2.474-2.102,3.327-2.897c-1.986,0.198-3.12,1.816-5.043,1.718
	c2.194-0.845,4.014-2.065,6.33-2.789c-1.819-0.174-3.114,0.747-4.399,0.75C22.462,94.708,23.199,94.515,23.713,94.1z M63.734,92.382
	c-0.526,0.371-1.242,1.116-1.717,1.181c0.24-0.617,0.976-0.743,1.288-1.288c-1.148,0.354-1.743,1.261-2.575,1.932
	c-0.234,2.268-2.344,3.234-3.111,4.613c1.424-0.757,2.644-1.72,4.828-1.717c0.155-1.311,0.587-2.345,0.965-3.434
	c-0.892,0.217-1.749,1.039-2.36,1.181C61.871,94.022,63.466,93.403,63.734,92.382z M77.684,94.635c-0.18,0-0.359,0-0.538,0
	c-0.976,0.921-1.904,1.888-2.897,2.791c0.075,0.253,0.249,0.959,0,1.181c-0.286-0.107-0.133-0.655-0.536-0.645
	c0.006,0.71-0.059,1.49,0.215,1.932c0.79-0.57,2.087-1.203,2.253-2.039c-0.743,0.473-1.447,0.984-2.146,1.501
	c1.211-1.756,3.168-3.341,4.292-4.828c-0.45,0.375-1.116,1.099-1.503,1.181C76.978,95.331,78.316,94.113,77.684,94.635z
	 M62.662,96.996c0.458-0.006,0.785-0.145,1.181-0.215c0.091-0.341-0.094-0.406-0.215-0.536c0.435-0.067,0.438-1.131,0.322-1.395
	C63.188,95.234,62.936,96.127,62.662,96.996z M74.142,96.567c0.226,0.001,0.557-0.431,0.322-0.536
	C74.367,96.22,74.029,96.167,74.142,96.567z M56.546,100c0.472-0.17,0.949-0.338,1.179-0.75C57.183,99.35,56.625,99.437,56.546,100z
	 M44.742,100.859c0.352-0.473,0.938-0.709,1.288-1.181C45.359,99.759,44.675,100.396,44.742,100.859z M46.138,103.756
	c0.331-0.778,1.255-1.535,1.395-2.147c-0.161,0.064-0.448,0.541-0.538,0.322c0.239-0.621,0.86-1.428,0.86-1.931
	C46.942,100.841,45.974,102.196,46.138,103.756z M47.21,102.576c1.066-0.721,2.133-1.444,2.897-2.468
	C48.557,100.345,47.909,101.486,47.21,102.576z M48.498,103.219c0.659-0.879,1.929-1.717,2.253-2.575
	C49.803,101.235,48.406,101.947,48.498,103.219z M29.291,101.931c-1.701,0.16-3.308,0.413-4.291,1.288
	c0.825-0.034,1.733-0.554,2.467-0.321c-1.57,0.504-3.229,0.92-4.291,1.931c0.933,0.038,1.56-0.798,2.36-0.538
	c-1.417,0.624-3.086,1.563-3.863,2.468c0.971-0.353,1.939-1.279,2.897-1.288c-1.888,0.904-3.34,2.24-4.399,3.97
	c1.55-0.702,2.473-2.604,4.077-2.896c-1.882,0.943-2.812,2.839-4.184,4.292c1.226-0.489,1.869-1.564,3.111-2.039
	c-1.399,1.178-3.028,2.695-3.649,4.292c1.283-0.97,2.319-2.76,3.756-3.218c-1.696,1.2-3.135,3.23-3.541,5.364
	c1.301-2.061,2.786-4.509,5.042-5.257c-1.535,0.825-2.72,2.572-3.004,4.292c0.678-1.115,2.153-1.346,2.897-2.361
	c0.543-0.741,0.631-1.748,1.608-2.038c-0.715,0.715-1.468,1.964-1.501,3.004c0.79-0.82,1.501-1.718,2.468-2.361
	c-0.888,0.973-2.089,2.203-2.039,3.756c1.085-1.419,2.792-2.788,3.756-3.971c-0.385,0.655-0.817,1.828-0.965,2.361
	c1.222-0.565,1.652-2.496,2.467-3.111c-0.161,0.448-0.372,1.412-0.107,1.931c0.229-2.061,1.86-2.716,2.361-4.506
	c-0.359-0.034-0.772,0.8-1.289,0.965c0.246-0.579,1.182-1.033,1.074-1.61c-0.283,0.186-0.757,0.74-0.965,0.645
	c0.606-0.501,1.166-1.052,1.501-1.824c-1.501,0.215-2.114,1.891-3.004,2.36c0.667-1.299,1.695-2.812,2.361-3.754
	c-1.759,0.744-2.388,2.618-4.185,3.325c1.62-1.705,3.229-3.425,5.15-4.828c-1.648,0.497-2.779,1.513-4.078,2.36
	c0.242-0.561,1.605-1.091,1.289-1.501c-0.599,0.048-1.077,0.781-1.61,0.536c0.48-0.127,0.828-0.388,1.072-0.75
	c-1.036,0.144-1.934,0.426-2.682,0.858C27.913,103.056,28.916,102.809,29.291,101.931z M37.446,112.339
	c0.439-0.42,0.763-0.955,1.074-1.501c-0.731,0.019-0.792,0.71-1.395,0.858c0.1-0.369,0.894-0.604,0.643-0.965
	c-0.737,0.265-1.557,1.015-2.038,1.179c0.501-0.535,1.012-1.062,1.288-1.824c-1.368,0.457-2.669,0.98-3.434,2.039
	c0.728-0.201,1.201-0.658,1.931-0.86c-1.044,0.923-2.462,1.472-3.22,2.684c0.822-0.252,1.242-0.904,2.039-1.181
	c-0.916,0.98-2.367,1.995-2.789,3.113c0.677-0.647,1.343-1.302,2.146-1.824c-1.153,1.207-2.615,2.678-2.789,4.506
	c0.908-1.024,1.553-2.881,2.682-3.327c-1.223,1.033-1.951,3.127-2.468,4.507c0.722-0.639,1.299-1.992,2.038-2.254
	c-0.951,1.124-1.912,2.808-2.145,4.292c0.88-0.942,1.39-2.829,2.36-3.327c-1.042,1.248-1.605,2.972-1.824,5.043
	c0.91-1.916,1.658-4.564,3.218-5.471c-0.882,0.942-1.736,2.483-1.501,4.184c1.238-1.148,1.925-3.368,2.897-4.506
	c-0.576,0.498-0.823,1.894-0.645,2.789c0.454-0.763,0.943-2.06,1.503-2.361c-0.568,0.829-1.182,2.183-0.858,3.542
	c0.56-1.693,1.752-2.754,2.36-4.4c-0.108,0.716-0.321,1.896-0.322,2.361c0.889-0.686,0.807-2.339,1.503-3.22
	c-0.069,0.416-0.022,1.384,0.214,1.825c-0.208-2.021,1.207-2.915,1.074-4.721c-0.19,0.315-0.472,1.099-0.751,0.965
	c0.136-0.438,0.722-0.989,0.536-1.395c-0.229,0.204-0.504,0.92-0.75,0.751c0.479-0.45,0.716-1.143,0.965-1.824
	c-1.122,0.453-1.46,1.686-2.039,2.682c0.188-1.422,0.617-2.603,1.181-3.647c-1.44,0.706-1.707,3.157-3.004,3.647
	c1.071-1.72,2.347-3.804,3.325-5.259C39.334,110.222,38.36,111.715,37.446,112.339z M106.545,129.078
	c-0.546-2.206-1.225-4.283-2.361-5.902c0.079,0.514,0.31,1.324,0,1.61c-0.091-0.587-0.111-1.247-0.428-1.61
	c-0.2,1.609-0.568,3.162-0.216,4.508c-0.439-1.351-0.873-2.704-1.287-4.078c-0.214,1.79-0.776,3.23-1.181,4.828
	c-0.259-0.707,0.442-1.807,0.106-2.574c-0.801,1.059-1.688,2.604-1.395,4.398c0.233-0.269,0.182-0.819,0.538-0.966
	c0.217,1.124,0.024,3.157,0.429,4.4c0.392-0.968,0.396-2.323,0.966-3.112c-0.015,1.965-0.697,3.287-0.322,5.15
	c0.335-1.347,0.54-2.82,1.181-3.861c-0.242,1.643-0.449,4.078-0.322,5.148c0,0.18,0,0.357,0,0.536
	c0.158-0.019,0.098-0.258,0.107-0.429c0.186-0.816,0.353-1.65,0.645-2.36c0.031,1.573-0.462,2.772,0.106,3.862
	c0.95-2.088,0.744-5.336,1.395-7.725c0.177,2.445-0.46,3.467,0.322,5.15c0.429-1.681,0.63-3.591,0.751-5.58
	c0.26,0.832,0.033,1.666,0.537,2.361c0.42-2.177-0.468-3.867-0.966-5.473C105.72,127.756,105.983,129.031,106.545,129.078z
	 M73.176,140.343c0.543-2.244-0.085-5.38-0.536-7.189c0.523,0.907,0.749,2.113,1.288,3.005c-0.318-3.759-2.868-5.286-3.434-8.798
	c-0.294,1.427,0.126,3.066-0.215,4.292c-0.114-1.673-0.245-3.333-0.965-4.4c-0.003,1.289,0.391,2.502,0,3.327
	c-0.04-0.359-0.075-1.276-0.215-1.18c0.003,1.433-0.305,2.555-0.75,3.541c0.258-1.859,0.8-4.439,0-6.116
	c-0.025,1.729-0.709,3.368-1.501,3.97c0.201-0.301,0.262-0.738,0.428-1.072c-0.86,0.213-1.021,1.123-1.931,1.287
	c-0.64,0.934-1.582,1.545-2.468,2.252c-0.596,0.478-1.482,1.004-1.395,1.503c0.858-0.357,1.324-1.107,2.361-1.288
	c-0.866,1.854-2.9,3.11-3.542,4.828c1.201-0.838,1.957-2.69,3.004-3.324c-0.951,2.088-2.291,4.36-2.253,7.08
	c0.699-1.447,1.499-2.791,2.253-4.185c-0.308,1.958-1.305,3.995-0.858,5.795c0.296-0.991,0.615-1.96,1.074-2.79
	c-0.097,1.586-0.599,3.334-0.431,4.829c0.773-1.589,1.314-3.409,2.039-5.044c-0.319,1.792-1.011,3.781-0.643,5.9
	c0.598-1.513,0.979-3.241,1.501-4.828c-0.056,1.33-0.649,2.929-0.107,4.184c0.302-1.234,0.423-2.65,0.967-3.646
	c-0.167,1.506-0.132,3.312,0.212,4.613c0.995-1.475,1.156-3.78,1.718-5.686c0.076,1.477-0.119,3.18,0,4.076
	c1.015-1.422,1.118-4.187,1.395-6.009c0.604,1.822-0.256,3.744-0.322,5.15c0.973-1.245,1.418-3.018,1.825-4.828
	c-0.119,1.172-0.382,2.765-0.322,3.756c1.078-1.708,0.986-5.499,0.965-7.618C72.687,137.184,72.921,138.773,73.176,140.343z"/>
<path fill-rule="evenodd" d="M76.074,43.67c0.319,0.001,0.136,0.505,0.321,0.643C76.304,44.5,76.049,43.953,76.074,43.67z"/>
<path fill-rule="evenodd" d="M60.3,46.352c0.237,0.085,0.268,0.375,0.429,0.536C60.68,47.033,60.321,46.591,60.3,46.352z"/>
<path fill-rule="evenodd" d="M84.765,49.786c0.376,0.23,0.229,0.986,0.429,1.395C84.954,51.237,84.886,50.202,84.765,49.786z"/>
<path fill-rule="evenodd" d="M52.252,50.644c0.19,0.097,0.334,0.24,0.431,0.429C52.986,51.23,52.15,50.971,52.252,50.644z"/>
<path fill-rule="evenodd" d="M63.198,50.858c-0.104-0.003-0.083-0.13-0.108-0.214c0.543,0.565,0.938,1.28,1.503,1.824
	c0.442,0.469,0.188,0.469-0.107,0C63.961,52.027,63.439,51.583,63.198,50.858z"/>
<path fill-rule="evenodd" d="M47.317,58.261c0.236,0.123,0.357,0.36,0.645,0.431C47.82,58.894,47.317,58.556,47.317,58.261z"/>
<path fill-rule="evenodd" d="M80.793,59.335c0.548,0.132,0.489,0.87,0.751,1.288C81.252,60.662,80.972,59.767,80.793,59.335z"/>
<path fill-rule="evenodd" d="M66.309,61.159c0.542,0.497,0.74,1.336,1.288,1.825C67.106,62.864,66.454,61.982,66.309,61.159z"/>
<path fill-rule="evenodd" d="M76.824,61.267c0.416,0.441,0.643,1.072,0.86,1.717C77.052,62.755,77.089,61.86,76.824,61.267z"/>
<path fill-rule="evenodd" d="M51.18,61.803c0.699,0.088,1.465,1.037,2.253,1.395C52.767,63.076,51.817,62.312,51.18,61.803z"/>
<path fill-rule="evenodd" d="M67.597,62.125c0.253,0.176,0.306,0.552,0.536,0.75C67.972,63.031,67.553,62.531,67.597,62.125z"/>
<path fill-rule="evenodd" d="M70.494,63.091c0.366,0.17,0.335,0.738,0.643,0.965C70.875,64.207,70.605,63.448,70.494,63.091z"/>
<path fill-rule="evenodd" d="M70.708,64.915c0.394,0.001,0.659,1.056,0.967,1.501C71.243,66.451,71.036,65.339,70.708,64.915z"/>
<path fill-rule="evenodd" d="M61.803,66.523c0.763,0.489,1.496,1.937,2.253,2.791C63.117,69,62.481,67.456,61.803,66.523z"/>
<path fill-rule="evenodd" d="M15.987,67.061C15.705,67.326,15.366,66.751,15.987,67.061L15.987,67.061z"/>
<path fill-rule="evenodd" d="M45.816,67.49c0.223-0.319,0.437,0.27,0.75,0.214C46.414,67.953,45.984,67.579,45.816,67.49z"/>
<path fill-rule="evenodd" d="M55.579,69.958c0.226-0.183,0.647,0.349,0.967,0.428C56.259,70.632,55.841,70.094,55.579,69.958z"/>
<path fill-rule="evenodd" d="M44.313,75.108c0.185-0.313,0.391,0.242,0.751,0.107C44.915,75.494,44.509,75.136,44.313,75.108z"/>
<path fill-rule="evenodd" d="M53.864,75.215C53.033,75.073,54.324,75.293,53.864,75.215L53.864,75.215z"/>
<path fill-rule="evenodd" d="M55.15,78.647C54.567,78.335,55.985,78.955,55.15,78.647L55.15,78.647z"/>
<path fill-rule="evenodd" d="M47.533,92.49C47.801,92.492,46.597,93.019,47.533,92.49L47.533,92.49z"/>
<path fill-rule="evenodd" d="M70.708,98.82c0.394,0.571,0.646,1.286,0.645,2.254C71.077,100.383,70.976,99.519,70.708,98.82z"/>
<path fill-rule="evenodd" d="M100.859,100.537c0.179,0.215,0.39,0.397,0.43,0.75C101.029,101.153,100.941,100.849,100.859,100.537z"
	/>
<path fill-rule="evenodd" d="M69.313,101.287c-0.078-0.387,0.185-0.387,0.107,0c-0.582,3.511,0.907,6.271,1.181,8.692
	C69.523,107.238,68.685,104.467,69.313,101.287z"/>
<path fill-rule="evenodd" d="M101.073,103.219c0.485,0.768,0.618,1.885,1.073,2.684C101.445,105.352,101.454,104.09,101.073,103.219
	z"/>
<path fill-rule="evenodd" d="M66.847,110.086c-0.309-1.941,0.198-4.258,0.964-5.687c0.467-0.87-0.016,0.385,0,0.322
	C67.485,106.006,66.87,107.896,66.847,110.086z"/>
</svg>
