<?xml version="1.0" encoding="utf-8"?>
<!-- Generator: Adobe Illustrator 13.0.2, SVG Export Plug-In  -->
<!DOCTYPE svg PUBLIC "-//W3C//DTD SVG 1.1 Tiny//EN" "http://www.w3.org/Graphics/SVG/1.1/DTD/svg11-tiny.dtd" [
	<!ENTITY ns_flows "http://ns.adobe.com/Flows/1.0/">
]>
<svg version="1.1" baseProfile="tiny"
	 xmlns="http://www.w3.org/2000/svg" xmlns:xlink="http://www.w3.org/1999/xlink" xmlns:a="http://ns.adobe.com/AdobeSVGViewerExtensions/3.0/"
	 x="0px" y="0px" width="78px" height="115px" viewBox="-0.368 -0.587 78 115" xml:space="preserve">
<defs>
</defs>
<path fill-rule="evenodd" fill="#010101" d="M26.23,52.295v0.089c-2.629,0.211-16.355,1.804-21.522,12.306
	c-3.129,6.891-2.5,12.708-2.5,12.708s0.176,1.455,0.392,3.442l31.618-26.947C29.828,52.464,26.23,52.295,26.23,52.295z"/>
<path fill-rule="evenodd" fill="#010101" d="M17.892,93.501c-5.279,2.688-7.516,0.541-8.146-5.543
	c-0.628-6.087,6.262-7.074,7.427-6.984c1.115,0.085,6.171,0.827,7.301,3.252l18.705-26.936c-2.307-1.569-4.791-2.654-7.063-3.396
	L4.499,80.841c0.439,4.028,1.045,10.246,0.686,10.966c-0.536,1.073-1.877,6.176,0.629,8.231c2.125,1.746,4.501,2.779,5.559,3.054
	l6.722-9.679C18.028,93.441,17.961,93.468,17.892,93.501z"/>
<path fill-rule="evenodd" fill="#010101" d="M52.595,88.435l-5.314,3.254c-0.839,2.301-2.295,3.295-4.62,2.828l-8.838,5.412
	c-0.42,1.166-1.123,1.943-1.606,2.428c-0.851,0.852-1.97,0.295-2.399,0.024l-12.043,7.374c0.072,0.799,0.235,1.585,0.476,1.824
	c0.447,0.447,2.864,1.879,3.49,1.61c0,0,2.059,0.894,2.774,0.087c0,0,0.896,0.807,1.879,0l0.806-0.537c0,0,0.896,0.716,1.521,0.18
	c0,0,0.58,0.057,0.899-0.061c0.319,0.117,0.9,0.059,0.9,0.059c0.626,0.538,1.521-0.18,1.521-0.18l0.806,0.536
	c0.985,0.808,1.879,0,1.879,0c0.717,0.808,2.775-0.089,2.775-0.089c0.627,0.268,3.042-1.165,3.49-1.612
	c0.448-0.448,0.625-2.775,0.445-3.58c-0.178-0.806,0.178-3.134,0.358-4.027c0.178-0.896,3.579-0.808,4.205-0.808
	c0.627,0,3.49-1.075,5.996-3.135c2.504-2.059,1.16-7.16,0.623-8.232C52.462,91.482,52.484,90.161,52.595,88.435z"/>
<path fill-rule="evenodd" fill="#010101" d="M29.635,101.785c0,0-1.546,1.173-2.621,0.101c-1.073-1.074-3.222-3.578-0.987-8.591
	c1.212-2.719,2.179-3.414,2.809-3.484c0.282-0.214,0.559-0.287,0.825-0.258c0.213,0.026,0.42,0.115,0.614,0.252
	c0.589-0.044,1.588,0.503,2.921,3.488c1.23,2.75,1.136,4.744,0.625,6.162l8.838-5.412c-0.809-0.162-1.721-0.499-2.751-1.021
	c-2.06-0.984-2.417,0.984-5.729-2.414c0,0-1.791-3.848-0.985-6.532c0.804-2.687,6.263-3.493,7.427-3.583
	c1.163-0.09,8.053,0.893,7.429,6.977c-0.153,1.49-0.403,2.74-0.771,3.746l5.314-3.254c0.273-4.279,1.09-11.053,1.09-11.053
	s0.624-5.818-2.51-12.707c-1.592-3.232-3.971-5.615-6.572-7.385L25.896,83.751c0.049,0.105,0.094,0.213,0.128,0.325
	c0.806,2.685-0.982,6.534-0.982,6.534c-3.198,3.286-3.641,1.559-5.525,2.329l-6.721,9.678c0.19,0.05,0.342,0.077,0.438,0.077
	c0.626-0.001,4.027-0.091,4.207,0.805s0.539,3.223,0.358,4.027c-0.082,0.372-0.086,1.068-0.026,1.754l12.043-7.375
	C29.704,101.835,29.635,101.785,29.635,101.785z"/>
<path fill="#010101" d="M55.019,58.461C88.731,40.887,64.702,0,64.702,0c-1.793,24.03-26.579,32.118-26.579,32.118
	c4.44-11.346-2.114-18.848-2.114-18.848c0,4.663-1.077,12.553-21.52,27.616C-0.628,52.026-0.644,66.888,0.375,73.878l0,0.001
	c0.16-2.505,0.753-6.337,2.667-10.55c5.501-11.184,20.121-12.88,22.92-13.105l0-0.096c0,0,3.732,0.178,8.322,1.646l1.742,0.452
	l0.463-0.393c2.421,0.789,5.065,1.945,7.522,3.615l-0.027,0.04l0.786,0.545l0.757-1.09c2.771,1.884,5.304,4.423,7,7.864
	c2.652,5.834,2.777,10.942,2.716,12.793c0.664-0.36,1.308-0.696,1.929-0.999c15.422-7.531,20.442-25.823,20.442-25.823
	C69.007,59.537,55.019,58.461,55.019,58.461z"/>
</svg>
