<?xml version="1.0" encoding="utf-8"?>
<!-- Generator: Adobe Illustrator 13.0.2, SVG Export Plug-In  -->
<!DOCTYPE svg PUBLIC "-//W3C//DTD SVG 1.1 Tiny//EN" "http://www.w3.org/Graphics/SVG/1.1/DTD/svg11-tiny.dtd" [
	<!ENTITY ns_flows "http://ns.adobe.com/Flows/1.0/">
]>
<svg version="1.1" baseProfile="tiny"
	 xmlns="http://www.w3.org/2000/svg" xmlns:xlink="http://www.w3.org/1999/xlink" xmlns:a="http://ns.adobe.com/AdobeSVGViewerExtensions/3.0/"
	 x="0px" y="0px" width="123px" height="100px" viewBox="-0.191 -0.119 123 100" xml:space="preserve">
<defs>
</defs>
<path d="M121.854,0c-3.344,0.023-6.721,0.445-9.832,1.727c-1.945,0.803-3.686,1.984-5.227,3.406c-1.78,1.645-3.407,3.314-5.67,4.32
	c-0.525,0.232-1.074,0.414-1.633,0.57c-1.229,0.348-2.511,0.57-3.717,0.953c-1.275,0.402-2.539,0.895-3.704,1.557
	c-1.134,0.641-2.292,1.477-2.863,2.689c-0.259,0.545-0.331,1.162,0.016,1.689c0.542,0.822,1.969,0.604,2.69,0.217
	c0.156-0.084,0.171-0.365-0.049-0.381c-0.478-0.031-0.963-0.049-1.424-0.201c-0.916-0.303,0.111-1.395,0.472-1.777
	c0.993-1.049,2.422-1.68,3.753-2.17c1.045-0.385,2.129-0.695,3.244-0.775c0.45-0.031,1.295-0.047,1.811,0.232
	c0.166,0.09,0.297,0.207,0.371,0.365c0.188,0.404-0.186,0.857-0.43,1.137c-1.389,1.592-3.619,2.174-5.17,3.57
	c-1.245,1.119-1.941,2.664-3.127,3.824c-1.129,1.102-2.553,1.844-4.029,2.371c-0.084,0.025-0.166,0.055-0.246,0.088
	c-0.238,0.096-0.094,0.449,0.147,0.367c0.083-0.029,0.167-0.057,0.249-0.088c0.596-0.178,1.305-0.189,1.897-0.25
	c0.927-0.096,1.897-0.195,2.829-0.078c1.201,0.152,2.878,0.469,4.144,0.018c-0.456,0.555-0.944,1.084-1.499,1.504
	c-0.791,0.596-2.08,0.58-3.021,0.703c-0.979,0.131-1.918,0.432-2.75,0.969c-1.166,0.75-1.774,2.18-3.045,2.771
	c-0.58,0.266-1.205,0.498-1.852,0.691c-1.059,0.316-2.166,0.533-3.205,0.635c-0.187,0.018-0.244,0.318-0.051,0.381
	c1.986,0.623,3.979,1.494,6.108,1.438c0.963-0.025,2.054-0.273,3.02-0.729c-1.055,0.801-2.306,1.26-3.745,1.305
	c-0.891,0.029-1.755-0.01-2.638-0.15c-0.563-0.092-1.121-0.148-1.68-0.172c-0.928-0.039-1.855,0.004-2.803,0.104
	c-1.922,0.207-3.637,1.184-5.409,1.9c-1.823,0.742-3.778,1.641-5.747,1.908c-0.188,0.025-0.243,0.311-0.05,0.381
	c1.174,0.414,2.345,0.836,3.507,1.281c0.182,0.07,0.364,0.139,0.544,0.213c1.389,0.564,2.725,1.238,4.078,1.885
	c1.804,0.863,3.621,1.398,5.631,1.277c-1.848,0.529-3.732,0.92-5.636,1.141c-3.503,0.404-7.405,0.363-10.741-0.922
	c-1.738-0.67-3.252-1.859-4.406-3.318c-0.753-0.951-1.312-2.02-1.362-3.266c-0.007-0.178-0.266-0.33-0.371-0.129
	c-0.624,1.195-0.979,2.57-0.572,3.9c0.123,0.398,0.286,0.781,0.496,1.148c0.125,0.215,0.411,0.596,0.202,0.838
	c-0.528,0.615-2.062,0.332-2.753,0.248c-1.159-0.143-2.3-0.412-3.463-0.545c-3.438-0.396-7.115,0.559-9.561,3.135
	c-0.014,0.016-0.027,0.031-0.042,0.047c-0.852-0.047-1.764-0.15-2.731-0.332c-5.917-0.869-14.189-6.799-14.283-15.656
	c0.144-4.26,2.988-8.133,6.599-9.73c3.56-1.916,7.853-0.691,9.557,1.91c2.103,2.637,0.624,5.383-0.964,5.928
	c-1.704,0.717-2.339-0.443-2.701-1.926c-0.184-0.889-1.285-2.275-2.333-2.131c-2.453,0.27-3.416,2.686-1.544,5.227
	c3.277,3.834,7.118,1.865,8.428,0.684c1.709-1.344,2.424-3.199,2.364-4.609c0.024-0.328-0.09-1.943-1.199-3.688
	c-1.082-1.783-3.55-3.701-6.893-3.979c-3.397-0.145-6.923,1.496-9.47,4.414c-2.575,2.881-3.802,7.35-2.652,11.367
	c0.626,2.207,1.669,4.15,2.977,5.828c-0.217-0.227-0.428-0.457-0.634-0.691c-4.634-5.104-7.809-12.037-7.796-16.939
	c0.102-5.127,1.727-8.215,2.044-9.193c1.08-2.18,0.767-4.355-0.369-4.912c-1.097-0.541-3.156,0.686-3.86,3.367
	c-0.07,0.627-1.932,4.613-1.611,10.887c0.599,6.445,4.619,13.193,9.998,18.379c4.645,4.553,11.065,6.965,16.19,6.863
	c-1.316,1.791-2.119,3.924-2.529,6.105c-0.037,0.199,0.212,0.258,0.337,0.168c0.601-0.422,1.532-0.674,2.306-0.498
	c-1.059,0.639-2.096,1.402-2.767,2.453c-0.736,1.15-1.125,2.562-1.252,3.918c-0.212,2.26,0.315,4.652,1.819,6.408
	c0.541,0.629,1.217,1.203,1.974,1.596c0.488,4.115-0.023,8.355-1.835,12.064c-0.576,1.186-1.291,2.295-2.108,3.324
	c-0.084,0.105-0.177,0.209-0.265,0.312c-0.804,0.967-1.696,1.863-2.672,2.656c-0.465,0.381-0.951,0.736-1.446,1.078
	c-0.131,0.09-0.264,0.178-0.397,0.266c-1.629,1.072-3.396,1.928-5.259,2.471c-2.588,0.758-5.35,0.908-7.983,0.377
	c-2.632-0.518-5.119-1.717-7.181-3.424c-2.071-1.705-3.714-3.9-4.862-6.324c-1.16-2.408-1.708-5.096-1.447-7.732
	c0.37-4.088,2.752-7.895,6.193-9.877c1.705-1.002,3.641-1.555,5.581-1.619c1.944-0.068,3.877,0.342,5.669,1.082
	c0.162,0.066,0.772,0.287,0.546,0.152c-1.599-0.977-4.002-1.898-6.794-1.76c-1.388,0.049-2.838,0.406-4.2,1.039
	c0.01-0.006,0.019-0.01,0.027-0.014c0.691-0.365,1.406-0.67,2.123-0.91c0.027-0.008,0.054-0.02,0.08-0.029
	c0.739-0.244,1.479-0.42,2.198-0.521c2.833-0.461,5.174-0.027,6.083-0.203c0.093-0.014-0.526-0.209-0.682-0.229
	c-2.902-0.576-6.743-0.48-10.077,1.305c-3.349,1.719-5.893,4.969-6.911,8.328c-0.341,1.064-0.556,2.174-0.642,3.291
	c-0.043-0.711-0.145-1.551-0.354-2.436c-0.293-1.219-0.842-2.531-1.709-3.521c-0.846-1.008-2.008-1.576-2.761-1.59
	c-0.765-0.033-1.303,0.307-1.421,0.67c-0.129,0.373,0.098,0.736,0.559,1.115c0.464,0.4,1.172,0.781,2.187,1.861
	c1.014,1.072,2.26,2.998,3.489,6.006c0.026,0.402,0.069,0.803,0.129,1.199c0.732,4.303,3.109,8.258,6.454,11.021
	c0.031,0.025,0.061,0.051,0.092,0.076c0.53,0.432,1.082,0.828,1.659,1.195c0.04,0.025,0.079,0.051,0.12,0.076
	c0.578,0.361,1.174,0.686,1.792,0.975c0.04,0.02,0.081,0.037,0.12,0.055c0.387,0.178,0.763,0.377,1.164,0.525
	c2.938,1.084,6.175,1.311,9.23,0.676c3.064-0.615,5.924-2.055,8.358-3.979c3.331-2.578,5.8-6.258,6.81-10.342
	c0.71-2.812,0.837-5.748,0.475-8.619c0.766,0.373,1.608,0.561,2.471,0.438c0.709-0.104,2.521-0.312,2.209-1.467
	c-0.107-0.4-0.418-0.766-0.876-0.768c-0.537-0.008-1.006,0.334-1.549,0.287c-2.414-0.211-2.753-2.5-2.419-4.395
	c0.369-2.096,1.331-4.104,2.599-5.803c1.607-2.154,3.753-3.9,6.246-4.936c2.884-1.193,6.208-1.545,9.322-1.184
	c-0.213,0.074-0.426,0.158-0.639,0.248c-2.392,0.994-4.704,2.746-5.013,5.441c-0.147,1.281-0.043,2.809,0.74,3.891
	c0.856,1.184,2.461,1.982,3.9,2.105c1.22,0.105,2.735-0.205,3.676-1.051c0.759-0.682,1.428-1.9,0.918-2.91
	c-0.521-1.039-1.574-1.531-2.694-1.168c-1.267,0.414-1.458,1.41-1.579,2.574c-0.025,0.258-0.061,0.557-0.29,0.646
	c-0.058,0.023-0.131,0.033-0.22,0.021c-0.392-0.041-0.75-0.189-1.067-0.422c-0.631-0.469-1.394-1.26-1.358-2.113
	c0.061-1.545,0.765-2.893,1.954-3.875c3.479-2.869,7.98-2.863,12.203-3.553c2.939-0.479,5.843-1.199,8.605-2.32
	c1.057-0.428,2.087-0.91,3.092-1.438c-0.074,0.074-0.152,0.146-0.229,0.217c-0.856,0.797-1.726,1.514-2.724,2.125
	c-0.954,0.584-1.916,1.146-2.847,1.766c-0.404,0.268-0.769,0.578-1.102,0.916c-0.678,0.684-1.238,1.48-1.799,2.277
	c-1.355,1.938-2.6,3.951-3.894,5.932c-0.114,0.174,0.101,0.441,0.274,0.279c1.109-1.016,2.249-2.072,3.672-2.625
	c0.156-0.061,0.314-0.111,0.473-0.156c0.694-0.195,1.417-0.256,2.133-0.311c1.186-0.092,2.365-0.195,3.523-0.41
	c-0.486,1.299-0.965,2.684-1.416,4.156c-1.754,5.893-3.21,13.395-1.749,21.588c0.745,4.055,2.288,8.258,5.036,11.887
	c2.746,3.594,6.718,6.584,11.473,7.725c2.361,0.559,4.851,0.574,7.157-0.037c2.315-0.598,4.396-1.791,6.1-3.355
	c3.43-3.188,4.63-8.125,3.521-12.225c-0.541-2.057-1.572-3.908-2.977-5.375c-1.414-1.455-3.23-2.406-5.086-2.799
	c-3.748-0.809-7.479,0.672-9.532,3.162c-2.083,2.551-2.185,5.895-1.15,8.197c0.511,1.162,1.233,2.141,2.097,2.82
	c0.855,0.684,1.804,1.074,2.676,1.248c1.767,0.348,3.162-0.098,3.971-0.514c0.822-0.426,1.154-0.791,1.137-0.809
	c-0.028-0.043-0.407,0.26-1.23,0.605c-0.81,0.338-2.149,0.686-3.785,0.295c-1.622-0.35-3.426-1.66-4.293-3.887
	c-0.902-2.145-0.732-5.191,1.184-7.457c1.885-2.221,5.344-3.547,8.732-2.764c1.682,0.371,3.316,1.252,4.582,2.578
	c1.258,1.332,2.21,3.064,2.688,4.951c0.991,3.771-0.137,8.283-3.274,11.184c-1.564,1.422-3.51,2.541-5.636,3.078
	c-2.124,0.559-4.421,0.545-6.628,0.021c-4.439-1.055-8.244-3.893-10.862-7.303c-2.631-3.451-4.147-7.488-4.896-11.416
	c-1.477-7.939-0.145-15.33,1.498-21.18c0.466-1.619,0.965-3.135,1.471-4.547c0.462-0.109,0.922-0.24,1.377-0.402
	c2.44-0.861,4.434-2.553,5.87-4.688c0.8-1.189,1.399-2.482,1.827-3.844c0.411-1.312,0.954-2.439,1.828-3.498
	c-0.047,0.223-0.079,0.447-0.09,0.668c-0.029,0.662,0.131,1.301,0.635,1.875c0.399,0.455,0.844,0.832,1.069,1.41
	c0.274,0.701,0.141,1.549-0.073,2.238c-0.076,0.244,0.244,0.377,0.365,0.152c0.34-0.645,0.637-1.309,0.965-1.961
	c0.357-0.705,0.832-1.383,1.253-2.055c0.739-1.188,1.53-2.248,1.838-3.635c0.247-1.127,0.124-2.303-0.092-3.42
	c-0.03-0.164-0.06-0.33-0.083-0.496c-0.164-1.146-0.113-2.268,0.212-3.402c0.55-1.914,1.38-4.029,3.253-4.99
	c0.565-0.291,1.441-0.582,1.811,0.125c0.271,0.518,0.16,1.246,0.01,1.783c-0.43,1.516-1.693,2.369-3.09,2.893
	c-0.178,0.066-0.156,0.373,0.047,0.381c1.74,0.053,3.653-0.24,5.059-1.252c0.576-0.418,1.067-0.957,1.424-1.643
	c0.709-1.359,0.682-3.098,0.02-4.457c-0.316-0.646-0.736-1.24-1.104-1.857c-0.124-0.205-0.238-0.42-0.344-0.637
	c-0.321-0.652-0.571-1.342-0.821-2.02c-0.641-1.73-1.026-3.551-0.635-5.379c0.35-1.639,1.211-3.158,2.092-4.561
	c2.053-3.262,4.742-5.846,8.201-7.576c2.376-1.189,4.936-1.865,7.483-2.566c0.14-0.037,0.284-0.076,0.424-0.115
	c0.019-0.006,0.038-0.016,0.054-0.023C122.144,0.307,122.077-0.004,121.854,0z M121.445,0.312c-0.133,0.025-0.648,0.08-1.477,0.23
	c-1.043,0.186-2.577,0.527-4.473,1.16c-1.813,0.641-3.98,1.561-6.092,3.109c-2.085,1.549-4.134,3.734-5.64,6.475
	c-0.731,1.398-1.482,2.863-1.917,4.449c-0.453,1.635-0.844,3.271-1.177,5.078c-0.729,3.545-2.005,7.295-4.493,10.369
	c-2.453,3.066-5.939,5.334-9.726,6.359c-1.896,0.523-3.834,0.74-5.762,0.695c-1.917-0.059-3.786-0.432-5.603-0.672
	c0.016-0.102,1.495,0.129,4.348,0.205c2.798,0.049,7.282-0.4,11.82-3.531c2.229-1.57,4.404-3.814,5.901-6.83
	c0.759-1.502,1.367-3.17,1.851-4.965c0.477-1.768,0.793-3.75,1.35-5.75c1.043-4.061,3.355-8.197,7.056-11.301
	c3.317-2.771,7.685-4.361,12.328-4.93c0.577-0.068,1.155-0.123,1.737-0.16C121.48,0.307,121.468,0.311,121.445,0.312z"/>
<path fill="#CBC9C5" d="M107.413,5.395c-3.7,3.104-6.013,7.24-7.056,11.301c-0.557,2-0.873,3.982-1.35,5.75
	c-0.483,1.795-1.092,3.463-1.851,4.965c-1.497,3.016-3.673,5.26-5.901,6.83c-4.538,3.131-9.022,3.58-11.82,3.531
	c-2.853-0.076-4.332-0.307-4.348-0.205c1.816,0.24,3.686,0.613,5.603,0.672c1.928,0.045,3.866-0.172,5.762-0.695
	c3.786-1.025,7.272-3.293,9.726-6.359c2.488-3.074,3.764-6.824,4.493-10.369c0.333-1.807,0.724-3.443,1.177-5.078
	c0.435-1.586,1.186-3.051,1.917-4.449c1.506-2.74,3.555-4.926,5.64-6.475c2.111-1.549,4.278-2.469,6.092-3.109
	c1.896-0.633,3.43-0.975,4.473-1.16c0.828-0.15,1.344-0.205,1.477-0.23c0.022-0.002,0.035-0.006,0.033-0.008
	c-0.582,0.037-1.16,0.092-1.737,0.16C115.098,1.033,110.73,2.623,107.413,5.395z"/>
<path d="M59.674,73.377c-0.195-0.047-0.902,0.01-0.626,0.207c0.04,0.029,0.079,0.055,0.118,0.084
	c1.911,1.342,3.621,3.084,4.654,4.949c0.559,0.975,0.971,1.936,1.288,2.912c-0.683-0.891-1.626-1.52-2.595-1.635
	c-1.882-0.303-3.246,0.992-3.598,2.893c-0.041,0.195,0.055,0.168,0.095,0.104c0.021-0.037,0.043-0.07,0.066-0.107
	c0.721-1.068,2.372-1.133,3.46-0.076c1.153,1.02,1.39,3.109,0.745,4.732c-0.396,1.023-1.115,1.945-2.006,2.623
	c-2.488,2.09-6.524,1.859-9.291-0.176c-2.861-2.004-4.238-5.836-3.432-9.404c0.915-4.871,5.546-8.885,10.79-8.936
	c0.146-0.01,0.25-0.107,0.262-0.197c0.031-0.068,0.001-0.131-0.146-0.137c-0.007,0-0.012,0-0.019,0c-0.001,0-0.002,0-0.004,0
	c-0.001,0-0.003,0-0.004,0c-3.467-0.215-7.069,1.193-9.521,3.832c-2.449,2.648-3.792,6.381-3.202,10.189
	c0.573,3.801,3.383,7.197,7.119,8.574c3.606,1.48,8.604,0.633,11.39-2.709c2.166-2.5,3.451-5.908,2.635-9.701
	C67.056,77.717,63.934,74.322,59.674,73.377z"/>
<path d="M22.941,62.34c-0.902-0.594-2.181-1.199-3.86-1.359c-1.66-0.162-3.729,0.217-5.549,1.506
	c-1.785,1.25-3.409,3.475-3.483,6.178c0.017-0.008,0.207-0.873,0.929-1.939c0.71-1.078,2.026-2.301,3.67-2.941
	c1.636-0.674,3.481-0.682,4.955-0.23c1.49,0.43,2.646,1.209,3.454,1.609c0.808,0.402,1.515,0.662,1.913,0.539
	c0.386-0.115,0.482-0.641-0.209-1.648C24.406,63.561,23.846,62.949,22.941,62.34z"/>
</svg>
