<?xml version="1.0" encoding="utf-8"?>
<!-- Generator: Adobe Illustrator 13.0.2, SVG Export Plug-In  -->
<!DOCTYPE svg PUBLIC "-//W3C//DTD SVG 1.1 Tiny//EN" "http://www.w3.org/Graphics/SVG/1.1/DTD/svg11-tiny.dtd" [
	<!ENTITY ns_flows "http://ns.adobe.com/Flows/1.0/">
]>
<svg version="1.1" baseProfile="tiny"
	 xmlns="http://www.w3.org/2000/svg" xmlns:xlink="http://www.w3.org/1999/xlink" xmlns:a="http://ns.adobe.com/AdobeSVGViewerExtensions/3.0/"
	 x="0px" y="0px" width="80px" height="85px" viewBox="-0.284 -0.393 80 85" xml:space="preserve">
<defs>
</defs>
<path fill="#CBC9C5" d="M39.436,24.274c-1.811-0.254-4.618,0.55-6.089,0.454c0.552-1.3,1.416-2.209,2.786-2.507
	c1.063-0.232,2.436,0.092,3.303-0.421c0.867,0.514,2.24,0.189,3.304,0.421c1.37,0.298,2.232,1.207,2.786,2.507
	C44.056,24.825,41.246,24.021,39.436,24.274z"/>
<path fill="#CBC9C5" d="M38.221,59.821c0.492-0.008,0.893-0.154,1.215-0.397c0.322,0.243,0.724,0.39,1.214,0.397
	c0.526,1.818,0.659,3.978-1.214,4.19C37.563,63.799,37.694,61.64,38.221,59.821z"/>
<path fill="#CBC9C5" d="M38.36,20.828c-0.078-1.056,0.232-1.64,0-2.507c0.453-0.061,0.797,0.017,1.056,0.054v0.008
	c0.005,0,0.012-0.002,0.02-0.002s0.016,0.002,0.019,0.002v-0.008c0.261-0.038,0.608-0.115,1.057-0.054
	c-0.232,0.867,0.077,1.451,0,2.507c-0.064,0.391-0.646,0.267-1.075,0.295C39.006,21.095,38.427,21.219,38.36,20.828z"/>
<path fill="#CBC9C5" d="M36.551,16.651c0.302-1.15,2.011,0.107,2.885-0.183c0.875,0.29,2.585-0.967,2.887,0.183
	c-0.465,0.858-1.892,0.828-2.887,0.979C38.441,17.479,37.015,17.509,36.551,16.651z"/>
<path fill="#CBC9C5" d="M39.436,25.423c-0.72-0.262-2.298,0.372-2.885-0.278c0.784-0.212,2.077-0.008,2.885-0.14
	c0.81,0.132,2.102-0.072,2.887,0.14C41.733,25.795,40.155,25.161,39.436,25.423z"/>
<path fill="#CBC9C5" d="M39.057,4.256c-0.77-0.411-2.321,0.711-3.342,0.418V3.977c0.743,0.034,2.449,0.249,3.342-0.278
	c0.67-0.747-0.781-1.579-0.557-2.786c0.31,0,0.634,0.013,0.936,0c0.303,0.013,0.627,0,0.937,0c0.224,1.207-1.226,2.039-0.558,2.786
	c0.894,0.527,2.604,0.312,3.344,0.278v0.697c-1.021,0.293-2.573-0.829-3.344-0.418c-0.313,1.339,1.369,2.665,1.394,4.04
	c0.016,0.92-0.773,1.183-0.559,2.089c1.205,1.036,3.406,1.222,3.205,3.062c-0.188,1.694-2.794,1.593-4.419,2.283
	c-1.624-0.69-4.231-0.589-4.417-2.283c-0.201-1.841,2-2.027,3.202-3.062c0.218-0.907-0.572-1.169-0.557-2.089
	C37.687,6.921,39.37,5.595,39.057,4.256z"/>
<path fill="#CBC9C5" d="M48.312,81.827c-0.492-0.074-0.613,0.223-0.836,0.416c0.049,0.182,0.242,0.221,0.277,0.419
	C48.232,82.677,48.398,82.378,48.312,81.827z M45.247,82.521c0.417,0.349,0.986-0.045,0.835-0.693
	C45.514,81.769,45.204,81.969,45.247,82.521z M45.247,79.737c0.289,0.514,0.808,0.092,1.113-0.14
	C46.201,79.032,45.509,79.571,45.247,79.737z M43.158,79.598c-0.087,0.55,0.765,0.162,1.112,0.278c0-0.139,0-0.278,0-0.418
	C43.938,79.544,43.263,79.284,43.158,79.598z M43.436,82.521c0.657,0.052,0.751-0.931,0-0.834
	C43.246,81.864,43.246,82.345,43.436,82.521z M43.575,77.647c0.004-0.409-0.848-0.262-0.696,0.279
	C43.324,78.046,43.409,77.807,43.575,77.647z M41.765,79.737c0-0.14,0-0.279,0-0.418c-0.371,0-0.743,0-1.115,0
	C40.666,80.189,41.18,79.679,41.765,79.737z M41.765,77.647c0.035-0.533-1.195-0.268-1.393-0.139
	C40.419,77.96,41.514,77.83,41.765,77.647z M41.347,81.687c-0.579-0.016-0.759,0.271-0.557,0.695
	C41.306,82.464,41.653,82.007,41.347,81.687z M37.524,81.687c-0.305,0.32,0.044,0.777,0.558,0.695
	C38.282,81.958,38.105,81.671,37.524,81.687z M37.106,79.737c0.585-0.059,1.099,0.452,1.114-0.418c-0.371,0-0.742,0-1.114,0
	C37.106,79.458,37.106,79.598,37.106,79.737z M38.5,77.509c-0.198-0.129-1.429-0.395-1.394,0.139
	C37.357,77.83,38.454,77.96,38.5,77.509z M35.993,77.927c0.151-0.541-0.7-0.688-0.697-0.279
	C35.463,77.807,35.548,78.046,35.993,77.927z M34.6,79.876c0.348-0.116,1.2,0.271,1.115-0.278c-0.104-0.313-0.781-0.054-1.115-0.14
	C34.6,79.598,34.6,79.737,34.6,79.876z M35.437,81.687c-0.751-0.097-0.659,0.886,0,0.834C35.626,82.345,35.626,81.864,35.437,81.687
	z M32.79,81.827c-0.151,0.648,0.418,1.042,0.834,0.693C33.669,81.969,33.358,81.769,32.79,81.827z M33.624,79.737
	c-0.262-0.166-0.953-0.705-1.112-0.14C32.817,79.829,33.336,80.251,33.624,79.737z M30.562,81.827
	c-0.089,0.551,0.076,0.85,0.558,0.835c0.034-0.198,0.227-0.237,0.278-0.419C31.173,82.05,31.053,81.753,30.562,81.827z
	 M21.648,80.989c1.347,0.179,2.767,0.066,4.317,0.141c3.022,0.139,6.572,0.823,9.192-0.278c-6.608,0.146-12.964-0.415-18.94-1.114
	c5.67-0.26,10.73,1.52,15.737-0.14c-2.55-0.124-8.236,0.217-11.56-0.417c3.644,0.08,7.361,0.348,10.862-0.279
	c-0.7-0.869-2.038-0.337-3.063-0.279c-2.124,0.121-4.209-0.065-6.128-0.278c4.317,0.046,8.306-0.234,12.255-0.556
	c-0.337-0.793-1.314-0.283-1.81-0.279c-1.521,0.015-2.875-0.031-4.735-0.139c3.757-0.383,8.193-0.558,11.659-0.983
	c3.467,0.426,7.902,0.601,11.659,0.983c-1.86,0.107-3.214,0.153-4.734,0.139c-0.495-0.004-1.474-0.514-1.81,0.279
	c3.95,0.321,7.938,0.602,12.255,0.556c-1.919,0.213-4.004,0.399-6.128,0.278c-1.024-0.058-2.364-0.59-3.063,0.279
	c3.501,0.627,7.218,0.359,10.863,0.279c-3.324,0.634-9.012,0.293-11.561,0.417c5.006,1.659,10.065-0.12,15.737,0.14
	c-5.977,0.699-12.333,1.26-18.939,1.114c2.618,1.102,6.17,0.417,9.19,0.278c1.551-0.074,2.972,0.038,4.317-0.141
	c0.132,0.26-0.417,0.465,0,0.559c-0.565,0.464-1.593,0.518-1.532-0.14c-0.568,0.267-0.812,0.859-1.67,0.835
	c-0.322-0.159,0.197-0.541-0.279-0.695c-0.545,0.336-0.805,0.958-1.671,0.973c-0.415-0.004,0.197-1.031-0.418-0.834
	c-0.483,0.066-0.356,0.529-0.278,0.834c-0.472,0.041-1.13-0.107-1.393,0.142c0.282-0.438,0.622-0.509,0.139-0.976
	c-0.966-0.02-0.131,0.68-0.417,0.976c-3.079,0.309-7.223,0.008-10.268,0.173c-3.044-0.165-7.187,0.136-10.266-0.173
	c-0.287-0.296,0.549-0.995-0.419-0.976c-0.483,0.467-0.142,0.537,0.14,0.976c-0.263-0.249-0.921-0.101-1.393-0.142
	c0.078-0.305,0.205-0.768-0.278-0.834c-0.615-0.197-0.004,0.83-0.418,0.834c-0.867-0.015-1.126-0.637-1.672-0.973
	c-0.475,0.154,0.044,0.536-0.278,0.695c-0.858,0.024-1.102-0.568-1.671-0.835c0.062,0.657-0.967,0.604-1.532,0.14
	C22.066,81.454,21.518,81.249,21.648,80.989z"/>
<path fill="#CBC9C5" d="M57.083,76.116c0.085,0.287,0.218,0.526,0.697,0.418C57.831,75.935,57.432,75.997,57.083,76.116z
	 M56.387,76.255c0.081-0.498-0.409-0.426-0.835-0.418C55.47,76.337,55.965,76.258,56.387,76.255z M55.134,72.913
	c-0.437-0.066-0.622,0.119-0.557,0.557c0.395,0.115,0.359-0.197,0.696-0.139C55.2,73.218,55.126,73.103,55.134,72.913z
	 M54.856,75.001c0.118-0.025,0.13,0.055,0.139,0.14c0.092,0,0.185,0,0.278,0c-0.027-0.118,0.054-0.132,0.139-0.14
	c0-0.092,0-0.186,0-0.277c-0.12,0.027-0.131-0.053-0.139-0.139c-0.094,0-0.187,0-0.278,0c0.026,0.119-0.055,0.131-0.139,0.139
	C54.856,74.815,54.856,74.909,54.856,75.001z M52.766,74.444c0.104,0.36,0.445,0.483,0.976,0.418
	C53.68,74.456,53.075,74.173,52.766,74.444z M53.045,75.698c0.128,0.529,0.562,0.102,0.976,0.139
	C53.812,75.374,53.394,75.423,53.045,75.698z M53.741,73.19c-0.306-0.555-1.195-0.357-1.532-0.277
	C52.399,73.327,53.173,73.155,53.741,73.19z M51.514,69.431c-0.047-0.371-0.364-0.471-0.697-0.557
	c-0.089,0.143-0.32,0.143-0.278,0.418C51.021,69.181,51.072,69.502,51.514,69.431z M50.956,70.128
	c-0.093,0.604,0.646,0.376,1.114,0.418C52.062,70.042,51.49,70.104,50.956,70.128z M50.399,71.521
	c-0.098,0.43,0.798,0.579,0.975,0.278C51.61,71.125,50.564,71.369,50.399,71.521z M49.424,72.773c0.828-0.085,1.241,0.244,2.09,0.14
	C51.224,72.433,49.63,72.104,49.424,72.773z M50.399,70.267c-0.102-0.447-1.714-0.84-1.672-0.139
	C49.386,70.072,49.688,70.375,50.399,70.267z M48.728,71.243c0.012,0.451,0.631,0.297,0.976,0.416
	C49.962,71.021,48.948,70.94,48.728,71.243z M49.007,69.153c-0.059-0.775-1.393-0.504-2.508-0.559
	C46.933,69.185,48.222,68.917,49.007,69.153z M46.36,70.963c0.317,0.55,1.142,0.353,1.672,0.28
	C47.819,70.806,46.965,71.009,46.36,70.963z M32.512,70.963c-0.604,0.046-1.459-0.157-1.67,0.28
	C31.371,71.315,32.197,71.513,32.512,70.963z M32.372,68.595c-1.114,0.055-2.448-0.217-2.507,0.559
	C30.65,68.917,31.938,69.185,32.372,68.595z M30.145,71.243c-0.221-0.303-1.23-0.223-0.975,0.416
	C29.513,71.54,30.134,71.694,30.145,71.243z M30.145,70.128c0.041-0.701-1.57-0.309-1.672,0.139
	C29.185,70.375,29.487,70.072,30.145,70.128z M28.473,71.521c-0.167-0.151-1.211-0.396-0.975,0.278
	C27.677,72.1,28.569,71.95,28.473,71.521z M27.358,69.431c0.441,0.071,0.492-0.25,0.976-0.139c0.043-0.275-0.19-0.275-0.279-0.418
	C27.722,68.96,27.405,69.06,27.358,69.431z M29.447,72.773c-0.205-0.67-1.794-0.341-2.089,0.14
	C28.206,73.018,28.624,72.688,29.447,72.773z M27.916,70.128c-0.533-0.023-1.104-0.086-1.114,0.418
	C27.269,70.504,28.008,70.731,27.916,70.128z M24.852,75.837c0.414-0.037,0.847,0.391,0.976-0.139
	C25.479,75.423,25.061,75.374,24.852,75.837z M25.13,74.862c0.531,0.065,0.871-0.058,0.976-0.418
	C25.796,74.173,25.192,74.456,25.13,74.862z M26.663,72.913c-0.338-0.08-1.228-0.277-1.533,0.277
	C25.698,73.155,26.474,73.327,26.663,72.913z M24.295,73.47c0.065-0.438-0.12-0.623-0.558-0.557
	c0.008,0.189-0.065,0.305-0.139,0.418C23.935,73.272,23.9,73.585,24.295,73.47z M23.459,75.001c0.085,0.008,0.167,0.021,0.14,0.14
	c0.092,0,0.186,0,0.278,0c0.008-0.085,0.02-0.165,0.14-0.14c0-0.092,0-0.186,0-0.277c-0.085-0.008-0.167-0.02-0.14-0.139
	c-0.093,0-0.187,0-0.278,0c-0.008,0.086-0.02,0.166-0.14,0.139C23.459,74.815,23.459,74.909,23.459,75.001z M22.484,76.255
	c0.422,0.003,0.917,0.082,0.836-0.418C22.898,75.829,22.403,75.757,22.484,76.255z M21.788,76.116
	c-0.348-0.119-0.747-0.182-0.696,0.418C21.571,76.643,21.703,76.403,21.788,76.116z M15.382,78.065
	c-1.346,0.278-2.715,1.275-3.899,1.254c2.465-1.528,5.818-2.171,9.053-2.925c-3.048-0.392-6.918,1.523-9.191,2.368
	c3.032-2.172,7.342-3.057,11.698-3.9c-4.654-0.283-8.705,1.969-11.838,3.203c0.104-0.615,0.913-0.836,1.393-1.115
	c0.51-0.297,1.013-0.703,1.531-0.975c2.682-1.402,6.043-2.034,8.914-2.785c-4.924-0.081-8.562,2.291-12.116,4.039
	c3.876-3.481,9.83-4.73,16.154-5.431c-0.359-0.968-1.354-0.271-2.089-0.14c-4.062,0.723-8.027,1.518-11.141,3.064
	c-1.045,0.518-1.942,1.404-3.064,1.531c3.354-2.453,7.629-4.297,12.673-5.012c0.871-0.125,1.993-0.02,2.646-0.697
	c-2.213-0.445-4.731,0.746-6.545,0.697c1.083-0.086,2.131-0.871,3.342-1.115c0.875-0.174,2.143,0.217,2.646-0.697
	c-0.715-0.332-1.017,0.436-1.671,0c3.662-0.967,8.438-1.635,12.534-1.948c0.889-0.071,2.116,0.119,3.024-0.087
	c0.909,0.206,2.135,0.016,3.025,0.087c4.097,0.313,8.87,0.981,12.534,1.948c-0.654,0.436-0.956-0.332-1.671,0
	c0.503,0.914,1.771,0.523,2.646,0.697c1.215,0.244,2.259,1.029,3.343,1.115c-1.815,0.049-4.334-1.143-6.547-0.697
	c0.654,0.678,1.775,0.572,2.646,0.697c5.046,0.715,9.318,2.559,12.673,5.012c-1.117-0.127-2.02-1.014-3.063-1.531
	c-3.114-1.547-7.079-2.342-11.141-3.064c-0.735-0.131-1.729-0.828-2.09,0.14c6.326,0.7,12.279,1.949,16.155,5.431
	c-3.556-1.748-7.192-4.12-12.115-4.039c2.87,0.751,6.231,1.383,8.912,2.785c0.518,0.271,1.022,0.678,1.531,0.975
	c0.48,0.279,1.289,0.5,1.394,1.115c-3.134-1.234-7.184-3.486-11.837-3.203c4.355,0.844,8.668,1.729,11.697,3.9
	c-2.274-0.845-6.142-2.76-9.191-2.368c3.234,0.754,6.588,1.396,9.053,2.925c-1.185,0.021-2.553-0.976-3.899-1.254
	c0.058,0.445,1.036,0.604,1.671,0.836c0.7,0.256,1.393,0.525,1.949,0.696c-7.829-1.659-16.536-4.375-26.461-4.179
	c-0.339,0.008-0.8-0.033-1.214-0.014c-0.413-0.02-0.874,0.021-1.215,0.014c-9.922-0.196-18.629,2.52-26.459,4.179
	c0.557-0.171,1.249-0.44,1.949-0.696C14.346,78.669,15.323,78.511,15.382,78.065z"/>
<path fill="#CBC9C5" d="M65.997,64.278c0.118,0.716,0.538-0.285,0.975-0.139c0.572,0.506,0.997,1.219,0.696,2.227
	c-1.825-0.092-3.571-0.851-3.343-2.645c0.178-1.393,2.154-2.273,3.76-1.532c0.457,0.209,0.686,0.989,1.532,1.393
	c1.803,0.854,5.133,0.558,4.874,3.343c-0.188,2.051-3.481,2.936-5.013,0.975c-0.039-1.185,0.519-1.893,1.252-1.95
	c0.982-0.077,1.097,0.999,1.951,1.114c0.49-1.271-0.948-2.08-1.672-2.09c-0.881-0.01-1.52,0.546-1.949,1.383l-0.542-0.066
	c0.063-0.107,0.104-0.221,0.125-0.341C68.982,63.745,66.406,62.309,65.997,64.278z"/>
<path fill="#CBC9C5" d="M57.123,69.104l0.239-0.786c3.037,0.068,5.837,1.466,8.635,2.229c0.703-0.171,1.156-1.881,1.811-3.203
	c0.201-0.414,0.529-0.721,0.711-1.053l0.542,0.066c-0.712,1.389-0.848,3.543-0.558,5.164c0.585,0.763,1.791,0.9,2.367,1.67
	c0.066,0.438-0.374,0.369-0.417,0.697C66.108,72.267,61.776,70.487,57.123,69.104z"/>
<path fill="#CBC9C5" d="M44.271,58.429c1.092-0.494,1.369,0.744,2.368,0.279c-0.53-1.107-1.146-1.459-1.729-1.326l-0.101-0.564
	c1.411-0.237,3.184-0.775,4.059,0.914C50.264,61.644,42.849,61.435,44.271,58.429z"/>
<path fill="#CBC9C5" d="M30.004,57.731c0.875-1.689,2.647-1.151,4.059-0.914l-0.101,0.564c-0.583-0.133-1.2,0.219-1.729,1.326
	c0.998,0.465,1.276-0.773,2.366-0.279C36.022,61.435,28.609,61.644,30.004,57.731z"/>
<path fill="#CBC9C5" d="M34.062,56.817c0.348,0.057,0.67,0.096,0.956,0.08c1.652-0.086,2.244-1.795,3.761-1.812
	c0.274,0.101,0.482,0.313,0.637,0.581v0.07c0.005-0.016,0.012-0.023,0.02-0.036c0.008,0.013,0.016,0.021,0.019,0.036v-0.07
	c0.156-0.268,0.364-0.48,0.64-0.581c1.517,0.017,2.108,1.726,3.761,1.812c0.286,0.016,0.606-0.023,0.955-0.08l0.101,0.564
	c-1.127,0.254-2.14,2.305-2.206,4.256l-0.776-0.02c0.008-0.65-0.124-1.324-0.441-1.936c0.94-1.326,0.051-4.098-1.532-3.201
	c-0.131,0.723,1.714,1.008,1.114,2.227c-0.771,0.309-1.307,0-1.614-0.545v-0.069c-0.003,0.011-0.011,0.022-0.019,0.034
	c-0.008-0.012-0.015-0.023-0.02-0.034v0.069c-0.306,0.545-0.844,0.854-1.613,0.545c-0.599-1.219,1.251-1.504,1.114-2.227
	c-1.582-0.896-2.472,1.875-1.531,3.201c-0.317,0.611-0.45,1.285-0.442,1.936l-0.777,0.02c-0.064-1.951-1.078-4.002-2.204-4.256
	L34.062,56.817z"/>
<path fill="#CBC9C5" d="M8.141,65.949c0.734,0.058,1.291,0.766,1.253,1.95c-1.531,1.961-4.824,1.076-5.014-0.975
	c-0.259-2.785,3.072-2.488,4.875-3.343c0.847-0.403,1.075-1.184,1.531-1.393c1.606-0.741,3.583,0.14,3.76,1.532
	c0.229,1.794-1.516,2.553-3.342,2.645c-0.302-1.008,0.124-1.721,0.696-2.227c0.437-0.146,0.855,0.854,0.976,0.139
	c-0.41-1.97-2.987-0.533-2.647,1.671c0.017,0.091,0.043,0.175,0.082,0.259l-0.499,0.148c-0.43-0.837-1.068-1.393-1.949-1.383
	c-0.724,0.01-2.159,0.818-1.672,2.09C7.045,66.948,7.157,65.872,8.141,65.949z"/>
<path fill="#CBC9C5" d="M8.002,73.19c0.576-0.77,1.782-0.907,2.366-1.67c0.29-1.621,0.155-3.775-0.557-5.164l0.499-0.148
	c0.171,0.365,0.533,0.686,0.754,1.135c0.654,1.322,1.106,3.032,1.812,3.203c2.796-0.763,5.597-2.16,8.634-2.229l0.239,0.786
	c-4.653,1.384-8.986,3.163-13.329,4.784C8.376,73.56,7.936,73.629,8.002,73.19z"/>
<path fill="#CBC9C5" d="M20.396,63.026c-0.135,2.161-4.63,1.342-5.014-0.141c-0.607-2.35,1.272-4.232,3.203-4.316
	c1.458-0.065,2.307,1.248,3.899,0.416c1.068-2.229,6.054-3.293,5.292,1.254c-0.467,1.053-3.4,2.086-3.899,0.836
	c-0.336-0.844,0.623-1.617,1.532-1.809c0.576,0.117,0.734,0.653,1.254,0.833c0.626-0.986-1.107-1.798-1.812-1.671
	c-3.438,0.632-1.335,7.234,0.976,7.938c1.996-0.203,3.881-0.68,5.849-0.973c1.458-0.219,3.075-0.26,3.761-1.115
	c0.557-0.692,0.766-1.656,0.729-2.641l0.777-0.02c0.028,1.891,1.235,3.604,2.492,3.109c1.257,0.495,2.464-1.219,2.492-3.109
	l0.776,0.02c-0.033,0.984,0.175,1.948,0.731,2.641c0.685,0.855,2.303,0.896,3.76,1.115c1.971,0.293,3.854,0.77,5.85,0.973
	c2.311-0.703,4.414-7.306,0.976-7.938c-0.704-0.127-2.438,0.685-1.812,1.671c0.519-0.18,0.678-0.716,1.254-0.833
	c0.91,0.191,1.869,0.965,1.532,1.809c-0.499,1.25-3.432,0.217-3.9-0.836c-0.762-4.547,4.225-3.482,5.292-1.254
	c1.594,0.832,2.442-0.481,3.9-0.416c1.93,0.084,3.81,1.967,3.203,4.316c-0.384,1.482-4.878,2.302-5.013,0.141
	c-0.098-1.561,2.912-2.062,3.062-0.418c-0.042,0.652-0.997,0.395-1.393,0.695c-0.027,1.172,1.915,0.383,2.229-0.418
	c0.111-2.758-3.06-2.406-4.457-1.253c-0.562,1.776-1.319,4.043-0.836,6.405c0.236-0.049,0.264,0.109,0.279,0.279l-0.239,0.786
	c-3.78-1.131-7.772-2.001-12.156-2.319c-1.659-0.119-3.844-0.505-5.531-0.242c-1.686-0.263-3.871,0.123-5.532,0.242
	c-4.382,0.318-8.374,1.188-12.154,2.319l-0.239-0.786c0.016-0.17,0.042-0.328,0.278-0.279c0.484-2.362-0.273-4.629-0.836-6.405
	c-1.396-1.153-4.568-1.505-4.457,1.253c0.314,0.801,2.261,1.59,2.229,0.418c-0.395-0.301-1.351-0.043-1.394-0.695
	C17.482,60.964,20.492,61.466,20.396,63.026z"/>
<path fill="#CBC9C5" d="M71.149,62.05c-0.518-0.271-1.16-0.417-1.394-0.975c1.204-4.355,4.52-8.32,4.179-13.508
	c-0.244-3.686-2.039-6.581-4.039-8.078c-1.199-0.898-2.989-1.024-3.342-2.646c5.098,1.517,10.482,3.96,11.28,9.331
	c1.053,7.074-3.949,9.888-5.849,14.762c-0.693-0.445-1.022-0.109-1.394,0.417C70.477,61.885,71.266,61.515,71.149,62.05z"/>
<path fill="#CBC9C5" d="M69.617,61.633c-0.042,0.319,0.402,0.154,0.417,0.417c-0.273,0-0.177,0.38-0.556,0.279
	C69.555,62.128,69.315,61.61,69.617,61.633z"/>
<path fill="#CBC9C5" d="M62.654,72.075c-1.107-0.508,0.402-0.133,0.426-0.133c0.003,0,0.003,0,0.003,0
	c0.969,0.293,0.871,0.437,1.521,0.693c1.466,0.57,3.513,0.884,3.899,2.227C66.361,73.266,64.7,73.024,62.654,72.075z"/>
<path fill="#CBC9C5" d="M68.364,75.558c-2.646-1.717-5.896-2.83-8.912-4.178C62.782,72.414,65.985,73.574,68.364,75.558z"/>
<path fill="#CBC9C5" d="M57.78,80.852c2.363,0.034,4.603-0.526,6.406-0.278c-1.745,0.367-4.716,0.772-6.545,0.975
	C58.108,81.419,57.71,81.288,57.78,80.852z"/>
<path d="M57.78,76.534c-0.479,0.108-0.612-0.131-0.697-0.418C57.432,75.997,57.831,75.935,57.78,76.534z"/>
<path fill="#CBC9C5" d="M49.981,26.539c1.442,0.397,2.707,0.193,4.317,0.417c6.878,0.955,12.382,7.269,11.14,14.344
	c-0.97,5.552-3.934,10.321-6.266,14.762c-0.434,0.046-0.666-0.319-0.975,0c-0.055,0.345,0.87,0.409,0.418,0.694
	c-0.298-0.135-0.956-0.701-1.115-0.139c0.101,0.364,0.798,0.133,0.836,0.557c-0.468,0.09-1.014-0.455-1.254-0.138
	c0.028,0.622,1.018,0.282,1.115,0.835c-0.841-0.111-1.463-0.289-2.09-0.277c0.344-5.613,4.264-10.867,4.874-16.991
	C61.893,31.505,55.961,28.983,49.981,26.539z"/>
<path d="M55.552,75.837c0.426-0.008,0.916-0.08,0.835,0.418C55.965,76.258,55.47,76.337,55.552,75.837z"/>
<path d="M55.273,73.331c-0.337-0.059-0.302,0.254-0.696,0.139c-0.065-0.438,0.12-0.623,0.557-0.557
	C55.126,73.103,55.2,73.218,55.273,73.331z"/>
<path d="M54.995,75.141c-0.009-0.085-0.021-0.165-0.139-0.14c0-0.092,0-0.186,0-0.277c0.084-0.008,0.165-0.02,0.139-0.139
	c0.092,0,0.185,0,0.278,0c0.008,0.086,0.019,0.166,0.139,0.139c0,0.092,0,0.186,0,0.277c-0.085,0.008-0.166,0.021-0.139,0.14
	C55.18,75.141,55.087,75.141,54.995,75.141z"/>
<path d="M54.021,75.837c-0.414-0.037-0.848,0.391-0.976-0.139C53.394,75.423,53.812,75.374,54.021,75.837z"/>
<path d="M53.741,73.19c-0.568-0.035-1.342,0.137-1.532-0.277C52.546,72.833,53.436,72.636,53.741,73.19z"/>
<path d="M53.741,74.862c-0.53,0.065-0.871-0.058-0.976-0.418C53.075,74.173,53.68,74.456,53.741,74.862z"/>
<path d="M50.956,70.128c0.534-0.023,1.106-0.086,1.114,0.418C51.603,70.504,50.863,70.731,50.956,70.128z"/>
<path d="M51.374,71.799c-0.177,0.301-1.072,0.151-0.975-0.278C50.564,71.369,51.61,71.125,51.374,71.799z"/>
<path d="M50.816,68.874c0.333,0.086,0.65,0.186,0.697,0.557c-0.441,0.071-0.492-0.25-0.976-0.139
	C50.496,69.017,50.728,69.017,50.816,68.874z"/>
<path d="M49.424,72.773c0.206-0.67,1.8-0.341,2.09,0.14C50.665,73.018,50.252,72.688,49.424,72.773z"/>
<path d="M48.728,71.243c0.221-0.303,1.234-0.223,0.976,0.416C49.358,71.54,48.739,71.694,48.728,71.243z"/>
<path d="M50.399,70.267c-0.712,0.108-1.014-0.194-1.672-0.139C48.686,69.427,50.298,69.819,50.399,70.267z"/>
<path d="M48.312,81.827c0.087,0.551-0.079,0.85-0.559,0.835c-0.035-0.198-0.229-0.237-0.277-0.419
	C47.698,82.05,47.819,81.753,48.312,81.827z"/>
<path d="M46.499,68.595c1.115,0.055,2.449-0.217,2.508,0.559C48.222,68.917,46.933,69.185,46.499,68.595z"/>
<path d="M48.032,71.243c-0.53,0.072-1.354,0.27-1.672-0.28C46.965,71.009,47.819,70.806,48.032,71.243z"/>
<path d="M45.247,79.737c0.262-0.166,0.954-0.705,1.113-0.14C46.055,79.829,45.536,80.251,45.247,79.737z"/>
<path d="M46.082,81.827c0.151,0.648-0.418,1.042-0.835,0.693C45.204,81.969,45.514,81.769,46.082,81.827z"/>
<path d="M43.436,81.687c0.751-0.097,0.657,0.886,0,0.834C43.246,82.345,43.246,81.864,43.436,81.687z"/>
<path d="M44.271,79.876c-0.348-0.116-1.199,0.271-1.112-0.278c0.104-0.313,0.78-0.054,1.112-0.14
	C44.271,79.598,44.271,79.737,44.271,79.876z"/>
<path fill="#CBC9C5" d="M43.296,55.228c0.469-0.006,0.74,0.193,0.975,0.417C43.858,55.594,43.424,55.563,43.296,55.228z"/>
<path d="M43.575,77.647c-0.166,0.159-0.251,0.398-0.696,0.279C42.728,77.386,43.579,77.238,43.575,77.647z"/>
<path fill="#CBC9C5" d="M43.715,56.062c-0.708-0.129-1.134-0.538-1.672-0.835c0.032-1.58,0.987-2.84,1.672-4.458
	c0.518-1.218,0.994-2.614,1.393-3.899c1.086-3.512,3.06-6.932,3.48-10.166c0.731-5.606-1.5-9.304-5.152-11.419
	c6.341,0.925,10.171,4.827,9.053,12.116c-0.913,5.961-4.646,11.413-6.824,15.875c-0.773-0.533-0.89,0.264-1.532,0.559
	c0.305,0.203,0.751,0.27,0.976,0.557c-0.418,0.51-1.041-0.576-1.253,0.139c-0.04,0.375,1.036,0.341,0.557,0.697
	c-0.388-0.217-0.773-0.434-1.253-0.559c0.219,0.639-0.577,0.259-0.559,0.697C42.853,55.718,43.518,55.655,43.715,56.062z"/>
<path d="M41.765,79.737c-0.585-0.059-1.099,0.452-1.115-0.418c0.372,0,0.744,0,1.115,0C41.765,79.458,41.765,79.598,41.765,79.737z"
	/>
<path d="M40.79,82.382c-0.202-0.424-0.022-0.711,0.557-0.695C41.653,82.007,41.306,82.464,40.79,82.382z"/>
<path d="M41.765,77.647c-0.251,0.183-1.346,0.312-1.393-0.139C40.569,77.38,41.8,77.114,41.765,77.647z"/>
<path d="M38.221,59.821c-0.526,1.818-0.657,3.978,1.215,4.19c1.873-0.213,1.74-2.372,1.214-4.19
	c-0.49-0.008-0.892-0.154-1.214-0.397C39.113,59.667,38.713,59.813,38.221,59.821z M39.436,64.728
	c-1.257,0.495-2.464-1.219-2.492-3.109c-0.008-0.65,0.125-1.324,0.442-1.936c-0.94-1.326-0.051-4.098,1.531-3.201
	c0.137,0.723-1.713,1.008-1.114,2.227c0.77,0.309,1.308,0,1.613-0.545v-0.069c0.005,0.011,0.012,0.022,0.02,0.034
	c0.008-0.012,0.016-0.023,0.019-0.034v0.069c0.308,0.545,0.844,0.854,1.614,0.545c0.6-1.219-1.245-1.504-1.114-2.227
	c1.583-0.896,2.473,1.875,1.532,3.201c0.317,0.611,0.449,1.285,0.441,1.936C41.899,63.509,40.692,65.223,39.436,64.728z"/>
<path d="M37.524,81.687c0.581-0.016,0.758,0.271,0.558,0.695C37.568,82.464,37.22,82.007,37.524,81.687z"/>
<path d="M38.5,77.509c-0.046,0.451-1.143,0.321-1.394,0.139C37.071,77.114,38.302,77.38,38.5,77.509z"/>
<path d="M38.221,79.319c-0.016,0.87-0.529,0.359-1.114,0.418c0-0.14,0-0.279,0-0.418C37.479,79.319,37.85,79.319,38.221,79.319z"/>
<path d="M35.993,77.927c-0.445,0.119-0.53-0.12-0.697-0.279C35.293,77.238,36.145,77.386,35.993,77.927z"/>
<path d="M35.437,82.521c-0.659,0.052-0.751-0.931,0-0.834C35.626,81.864,35.626,82.345,35.437,82.521z"/>
<path d="M35.715,79.598c0.085,0.55-0.768,0.162-1.115,0.278c0-0.139,0-0.278,0-0.418C34.934,79.544,35.61,79.284,35.715,79.598z"/>
<path fill="#CBC9C5" d="M34.6,55.645c0.24-0.224,0.507-0.423,0.976-0.417C35.447,55.563,35.014,55.594,34.6,55.645z"/>
<path fill="#CBC9C5" d="M35.437,25.285c-3.652,2.116-5.885,5.813-5.153,11.419c0.421,3.233,2.398,6.654,3.481,10.166
	c0.399,1.285,0.875,2.682,1.394,3.899c0.684,1.618,1.639,2.878,1.671,4.458c-0.538,0.297-0.964,0.706-1.671,0.835
	c0.201-0.407,0.861-0.345,1.113-0.696c0.02-0.438-0.778-0.059-0.557-0.697c-0.48,0.125-0.866,0.342-1.253,0.559
	c-0.481-0.356,0.595-0.322,0.557-0.697c-0.208-0.715-0.836,0.371-1.254-0.139c0.225-0.287,0.669-0.354,0.975-0.557
	c-0.641-0.295-0.759-1.092-1.531-0.559c-2.178-4.463-5.911-9.914-6.824-15.875C25.266,30.112,29.096,26.21,35.437,25.285z"/>
<path d="M32.512,79.598c0.159-0.565,0.851-0.026,1.112,0.14C33.336,80.251,32.817,79.829,32.512,79.598z"/>
<path d="M32.79,81.827c0.568-0.059,0.879,0.142,0.834,0.693C33.208,82.869,32.639,82.476,32.79,81.827z"/>
<path d="M29.865,69.153c0.059-0.775,1.393-0.504,2.507-0.559C31.938,69.185,30.65,68.917,29.865,69.153z"/>
<path d="M30.842,71.243c0.211-0.438,1.066-0.234,1.67-0.28C32.197,71.513,31.371,71.315,30.842,71.243z"/>
<path d="M30.562,81.827c0.491-0.074,0.611,0.223,0.836,0.416c-0.052,0.182-0.244,0.221-0.278,0.419
	C30.638,82.677,30.473,82.378,30.562,81.827z"/>
<path d="M29.17,71.659c-0.256-0.639,0.754-0.719,0.975-0.416C30.134,71.694,29.513,71.54,29.17,71.659z"/>
<path d="M28.473,70.267c0.102-0.447,1.713-0.84,1.672-0.139C29.487,70.072,29.185,70.375,28.473,70.267z"/>
<path d="M27.358,69.431c0.047-0.371,0.363-0.471,0.696-0.557c0.089,0.143,0.322,0.143,0.279,0.418
	C27.851,69.181,27.8,69.502,27.358,69.431z"/>
<path d="M27.498,71.799c-0.236-0.674,0.808-0.43,0.975-0.278C28.569,71.95,27.677,72.1,27.498,71.799z"/>
<path d="M29.447,72.773c-0.823-0.085-1.241,0.244-2.089,0.14C27.653,72.433,29.242,72.104,29.447,72.773z"/>
<path d="M26.802,70.546c0.011-0.504,0.581-0.441,1.114-0.418C28.008,70.731,27.269,70.504,26.802,70.546z"/>
<path d="M26.105,74.444c-0.104,0.36-0.444,0.483-0.976,0.418C25.192,74.456,25.796,74.173,26.105,74.444z"/>
<path d="M26.663,72.913c-0.189,0.414-0.965,0.242-1.533,0.277C25.436,72.636,26.325,72.833,26.663,72.913z"/>
<path d="M24.852,75.837c0.209-0.463,0.627-0.414,0.976-0.139C25.698,76.228,25.266,75.8,24.852,75.837z"/>
<path d="M23.737,72.913c0.438-0.066,0.623,0.119,0.558,0.557c-0.395,0.115-0.36-0.197-0.696-0.139
	C23.672,73.218,23.745,73.103,23.737,72.913z"/>
<path d="M23.459,74.724c0.12,0.027,0.132-0.053,0.14-0.139c0.092,0,0.186,0,0.278,0c-0.027,0.119,0.055,0.131,0.14,0.139
	c0,0.092,0,0.186,0,0.277c-0.12-0.025-0.132,0.055-0.14,0.14c-0.093,0-0.187,0-0.278,0c0.027-0.118-0.055-0.132-0.14-0.14
	C23.459,74.909,23.459,74.815,23.459,74.724z"/>
<path d="M23.32,75.837c0.081,0.5-0.414,0.421-0.836,0.418C22.403,75.757,22.898,75.829,23.32,75.837z"/>
<path d="M21.788,76.116c-0.085,0.287-0.217,0.526-0.696,0.418C21.041,75.935,21.44,75.997,21.788,76.116z"/>
<path fill="#CBC9C5" d="M28.891,26.539c-5.978,2.444-11.911,4.966-11.001,14.065c0.61,6.124,4.529,11.377,4.874,16.991
	c-0.628-0.012-1.249,0.166-2.09,0.277c0.101-0.553,1.087-0.213,1.114-0.835c-0.24-0.317-0.785,0.228-1.253,0.138
	c0.043-0.424,0.734-0.192,0.836-0.557c-0.159-0.562-0.817,0.004-1.115,0.139c-0.452-0.285,0.473-0.35,0.418-0.694
	c-0.309-0.319-0.541,0.046-0.975,0c-2.333-4.44-5.297-9.21-6.267-14.762c-1.238-7.076,4.263-13.389,11.141-14.344
	C26.182,26.732,27.447,26.937,28.891,26.539z"/>
<path fill="#CBC9C5" d="M14.686,80.573c1.803-0.248,4.043,0.312,6.406,0.278c0.069,0.437-0.329,0.567,0.14,0.696
	C19.401,81.346,16.431,80.94,14.686,80.573z"/>
<path fill="#CBC9C5" d="M10.508,75.558c2.38-1.983,5.582-3.144,8.913-4.178C16.403,72.728,13.154,73.841,10.508,75.558z"/>
<path fill="#CBC9C5" d="M10.368,74.862c0.388-1.343,2.434-1.656,3.899-2.227c0.654-0.257,0.553-0.4,1.524-0.693
	c0,0.008,1.539-0.381,0.426,0.133C14.171,73.024,12.512,73.266,10.368,74.862z"/>
<path fill="#CBC9C5" d="M9.255,61.633c0.302-0.022,0.062,0.495,0.139,0.696C9.015,62.43,9.115,62.05,8.837,62.05
	C8.853,61.787,9.297,61.952,9.255,61.633z"/>
<path fill="#CBC9C5" d="M6.888,60.937c-1.9-4.874-6.902-7.688-5.851-14.762c0.798-5.371,6.183-7.814,11.281-9.331
	c-0.352,1.622-2.144,1.748-3.343,2.646c-2,1.497-3.794,4.392-4.039,8.078c-0.34,5.188,2.976,9.152,4.179,13.508
	c-0.232,0.558-0.875,0.704-1.392,0.975c-0.117-0.535,0.672-0.165,0.557-0.696C7.908,60.827,7.58,60.491,6.888,60.937z"/>
<path d="M69.479,62.329c0.379,0.101,0.282-0.279,0.556-0.279c-0.015-0.263-0.459-0.098-0.417-0.417
	C69.315,61.61,69.555,62.128,69.479,62.329z M77.834,46.175c-0.798-5.371-6.183-7.814-11.28-9.331
	c0.353,1.622,2.143,1.748,3.342,2.646c2,1.497,3.795,4.392,4.039,8.078c0.341,5.188-2.975,9.152-4.179,13.508
	c0.233,0.558,0.876,0.704,1.394,0.975c0.116-0.535-0.673-0.165-0.558-0.696c0.371-0.526,0.7-0.862,1.394-0.417
	C73.885,56.062,78.887,53.249,77.834,46.175z M62.654,72.075c2.046,0.949,3.707,1.19,5.849,2.787
	c-0.387-1.343-2.434-1.656-3.899-2.227c-0.649-0.257-0.552-0.4-1.521-0.693c0,0,0,0-0.003,0
	C63.057,71.942,61.547,71.567,62.654,72.075z M68.364,75.558c-2.379-1.983-5.582-3.144-8.912-4.178
	C62.468,72.728,65.718,73.841,68.364,75.558z M59.729,57.456c2.538,0.57,4.642,1.576,4.874,4.455
	c0.813-0.986,2.855-1.041,3.899-0.697c1.157-2.92,3.822-7.203,4.318-10.861c0.762-5.622-1.78-9.687-5.988-11.42
	c-0.112,4.171-1.796,7.396-3.203,10.585C62.383,52.337,61.088,54.94,59.729,57.456z M58.059,64.558
	c-0.132,0.979-0.623,1.787-0.14,2.646c2.7,0.644,5.219,1.466,7.799,2.228c0.81-0.211,0.858-1.183,1.254-1.811
	c-1.199-1.028-3.234-1.221-3.481-3.202C62.15,65.463,59.583,65.417,58.059,64.558z M57.78,80.852
	c-0.07,0.437,0.328,0.567-0.139,0.696c1.829-0.202,4.8-0.607,6.545-0.975C62.383,80.325,60.144,80.886,57.78,80.852z M49.981,26.539
	c5.979,2.444,11.911,4.966,11.001,14.065c-0.61,6.124-4.53,11.377-4.874,16.991c0.627-0.012,1.249,0.166,2.09,0.277
	c-0.098-0.553-1.087-0.213-1.115-0.835c0.24-0.317,0.786,0.228,1.254,0.138c-0.038-0.424-0.735-0.192-0.836-0.557
	c0.159-0.562,0.817,0.004,1.115,0.139c0.452-0.285-0.473-0.35-0.418-0.694c0.309-0.319,0.541,0.046,0.975,0
	c2.332-4.44,5.296-9.21,6.266-14.762c1.242-7.076-4.262-13.389-11.14-14.344C52.688,26.732,51.424,26.937,49.981,26.539z
	 M43.575,60.937c0.081,0.703,0.124,2.286,0.695,2.924c1.421,0.504,2.94,0.76,5.293,1.113c1.114,0.168,2.576,0.674,3.202,0.557
	c1.288-0.242,1.831-1.766,2.091-3.341c-3.174,1.235-4.642-1.18-4.399-3.337c0.213-1.939,1.818-3.677,4.816-2.371
	c0.747-2.277,1.743-4.938,2.646-7.66c0.852-2.57,1.893-5.447,2.229-7.938c1.021-7.54-3.842-10.936-9.053-12.813
	c2.009,2.124,2.914,5.385,2.229,9.331c-1.177,6.784-5.638,13.118-8.077,18.244c2.186-0.097,3.704,0.471,4.456,1.812
	c0.084,0.475,0.097,0.907,0.046,1.305c-0.263,2.129-2.297,3.102-4.363,2.732C44.67,61.365,44.226,60.898,43.575,60.937z
	 M43.296,55.228c0.128,0.336,0.562,0.366,0.975,0.417C44.036,55.421,43.765,55.222,43.296,55.228z M42.6,55.366
	c-0.019-0.438,0.777-0.059,0.559-0.697c0.479,0.125,0.865,0.342,1.253,0.559c0.479-0.356-0.597-0.322-0.557-0.697
	c0.212-0.715,0.835,0.371,1.253-0.139c-0.225-0.287-0.671-0.354-0.976-0.557c0.643-0.295,0.759-1.092,1.532-0.559
	c2.179-4.463,5.911-9.914,6.824-15.875c1.118-7.289-2.712-11.191-9.053-12.116c3.652,2.116,5.884,5.813,5.152,11.419
	c-0.421,3.233-2.395,6.654-3.48,10.166c-0.398,1.285-0.875,2.682-1.393,3.899c-0.685,1.618-1.64,2.878-1.672,4.458
	c0.538,0.297,0.964,0.706,1.672,0.835C43.518,55.655,42.853,55.718,42.6,55.366z M39.416,18.375
	c-0.259-0.038-0.603-0.115-1.056-0.054c0.232,0.867-0.078,1.451,0,2.507c0.066,0.391,0.646,0.267,1.075,0.295
	c0.43-0.028,1.011,0.096,1.075-0.295c0.077-1.056-0.232-1.64,0-2.507c-0.448-0.061-0.796,0.017-1.057,0.054v0.008
	c-0.003,0-0.011-0.002-0.019-0.002s-0.015,0.002-0.02,0.002V18.375z M36.551,25.145c0.587,0.65,2.165,0.016,2.885,0.278
	c0.72-0.262,2.298,0.372,2.887-0.278c-0.785-0.212-2.077-0.008-2.887-0.14C38.628,25.137,37.335,24.933,36.551,25.145z
	 M36.551,16.651c0.464,0.858,1.891,0.828,2.885,0.979c0.995-0.151,2.422-0.121,2.887-0.979c-0.302-1.15-2.012,0.107-2.887-0.183
	C38.562,16.758,36.853,15.501,36.551,16.651z M38.221,10.385c-1.202,1.036-3.403,1.222-3.202,3.062
	c0.186,1.694,2.793,1.593,4.417,2.283c1.625-0.69,4.231-0.589,4.419-2.283c0.201-1.841-2-2.027-3.205-3.062
	c-0.215-0.907,0.574-1.169,0.559-2.089c-0.024-1.375-1.707-2.701-1.394-4.04c0.771-0.411,2.322,0.711,3.344,0.418V3.977
	c-0.739,0.034-2.45,0.249-3.344-0.278c-0.668-0.747,0.781-1.579,0.558-2.786c-0.31,0-0.634,0.013-0.937,0
	c-0.302,0.013-0.626,0-0.936,0c-0.225,1.207,1.227,2.039,0.557,2.786c-0.893,0.527-2.599,0.312-3.342,0.278v0.697
	c1.021,0.293,2.572-0.829,3.342-0.418c0.313,1.339-1.37,2.665-1.393,4.04C37.648,9.216,38.438,9.478,38.221,10.385z M35.575,55.228
	c-0.469-0.006-0.735,0.193-0.976,0.417C35.014,55.594,35.447,55.563,35.575,55.228z M33.347,24.728
	c1.471,0.097,4.278-0.708,6.089-0.454c1.811-0.254,4.62,0.55,6.09,0.454c-0.554-1.3-1.416-2.209-2.786-2.507
	c-1.063-0.232-2.437,0.092-3.304-0.421c-0.867,0.514-2.239,0.189-3.303,0.421C34.763,22.519,33.898,23.428,33.347,24.728z
	 M36.271,25.841c-4.7,1.837-6.396,8.391-4.316,14.206c0.324,0.905,0.758,1.876,1.113,2.784c1.571,3.992,2.967,8.198,4.317,11.42
	c0.859-0.277,1.547-0.088,2.05,0.352c0.504-0.439,1.191-0.629,2.051-0.352c1.354-3.222,2.746-7.428,4.316-11.42
	c0.356-0.908,0.795-1.879,1.114-2.784c2.078-5.814,0.384-12.369-4.317-14.206c-0.61,0.19-2.397,0.773-3.164,0.276
	C38.671,26.615,36.882,26.031,36.271,25.841z M26.384,37.401c0.913,5.961,4.646,11.413,6.824,15.875
	c0.772-0.533,0.891,0.264,1.531,0.559c-0.306,0.203-0.75,0.27-0.975,0.557c0.418,0.51,1.046-0.576,1.254,0.139
	c0.038,0.375-1.038,0.341-0.557,0.697c0.387-0.217,0.772-0.434,1.253-0.559c-0.222,0.639,0.576,0.259,0.557,0.697
	c-0.252,0.352-0.912,0.289-1.113,0.696c0.707-0.129,1.133-0.538,1.671-0.835c-0.032-1.58-0.987-2.84-1.671-4.458
	c-0.519-1.218-0.994-2.614-1.394-3.899c-1.083-3.512-3.061-6.932-3.481-10.166c-0.731-5.606,1.501-9.304,5.153-11.419
	C29.096,26.21,25.266,30.112,26.384,37.401z M27.776,28.07c-5.21,1.877-10.073,5.273-9.052,12.813
	c0.336,2.491,1.377,5.368,2.228,7.938c0.902,2.722,1.9,5.383,2.646,7.66c2.998-1.306,4.604,0.432,4.819,2.371
	c0.244,2.157-1.23,4.567-4.401,3.337c0.259,1.575,0.801,3.099,2.089,3.341c0.627,0.117,2.089-0.389,3.202-0.557
	c2.353-0.354,3.877-0.609,5.292-1.113c0.573-0.638,0.616-2.221,0.696-2.924c-0.648-0.038-1.094,0.429-1.811,0.557
	c-2.065,0.369-4.1-0.604-4.362-2.732c-0.05-0.397-0.038-0.83,0.047-1.305c0.751-1.341,2.27-1.908,4.454-1.812
	c-2.438-5.126-6.899-11.46-8.076-18.244C24.863,33.455,25.769,30.193,27.776,28.07z M31.955,79.598
	c-5.007,1.659-10.067-0.12-15.737,0.14c5.977,0.699,12.332,1.26,18.94,1.114c-2.62,1.102-6.17,0.417-9.192,0.278
	c-1.551-0.074-2.971,0.038-4.317-0.141c-0.131,0.26,0.418,0.465,0,0.559c0.565,0.464,1.594,0.518,1.532-0.14
	c0.569,0.267,0.812,0.859,1.671,0.835c0.322-0.159-0.196-0.541,0.278-0.695c0.546,0.336,0.805,0.958,1.672,0.973
	c0.414-0.004-0.197-1.031,0.418-0.834c0.483,0.066,0.356,0.529,0.278,0.834c0.472,0.041,1.13-0.107,1.393,0.142
	c-0.281-0.438-0.623-0.509-0.14-0.976c0.968-0.02,0.132,0.68,0.419,0.976c3.079,0.309,7.222,0.008,10.266,0.173
	c3.045-0.165,7.188,0.136,10.268-0.173c0.286-0.296-0.549-0.995,0.417-0.976c0.483,0.467,0.144,0.537-0.139,0.976
	c0.263-0.249,0.921-0.101,1.393-0.142c-0.078-0.305-0.205-0.768,0.278-0.834c0.615-0.197,0.003,0.83,0.418,0.834
	c0.866-0.015,1.126-0.637,1.671-0.973c0.477,0.154-0.043,0.536,0.279,0.695c0.858,0.024,1.102-0.568,1.67-0.835
	c-0.061,0.657,0.967,0.604,1.532,0.14c-0.417-0.094,0.132-0.299,0-0.559c-1.346,0.179-2.767,0.066-4.317,0.141
	c-3.021,0.139-6.572,0.823-9.19-0.278c6.606,0.146,12.963-0.415,18.939-1.114c-5.672-0.26-10.731,1.52-15.737-0.14
	c2.549-0.124,8.236,0.217,11.561-0.417c-3.646,0.08-7.362,0.348-10.863-0.279c0.699-0.869,2.039-0.337,3.063-0.279
	c2.124,0.121,4.209-0.065,6.128-0.278c-4.317,0.046-8.305-0.234-12.255-0.556c0.336-0.793,1.314-0.283,1.81-0.279
	c1.521,0.015,2.874-0.031,4.734-0.139c-3.757-0.383-8.192-0.558-11.659-0.983c-3.466,0.426-7.902,0.601-11.659,0.983
	c1.86,0.107,3.214,0.153,4.735,0.139c0.495-0.004,1.473-0.514,1.81,0.279c-3.949,0.321-7.938,0.602-12.255,0.556
	c1.919,0.213,4.004,0.399,6.128,0.278c1.025-0.058,2.363-0.59,3.063,0.279c-3.501,0.627-7.219,0.359-10.862,0.279
	C23.719,79.814,29.405,79.474,31.955,79.598z M14.686,80.573c1.745,0.367,4.716,0.772,6.546,0.975
	c-0.469-0.129-0.07-0.26-0.14-0.696C18.729,80.886,16.488,80.325,14.686,80.573z M13.433,41.301
	c0.97,5.552,3.934,10.321,6.267,14.762c0.434,0.046,0.666-0.319,0.975,0c0.055,0.345-0.87,0.409-0.418,0.694
	c0.298-0.135,0.956-0.701,1.115-0.139c-0.102,0.364-0.793,0.133-0.836,0.557c0.468,0.09,1.013-0.455,1.253-0.138
	c-0.027,0.622-1.014,0.282-1.114,0.835c0.841-0.111,1.462-0.289,2.09-0.277c-0.345-5.613-4.264-10.867-4.874-16.991
	c-0.91-9.099,5.023-11.621,11.001-14.065c-1.443,0.397-2.709,0.193-4.317,0.417C17.695,27.912,12.194,34.225,13.433,41.301z
	 M15.382,64.418c-0.247,1.981-2.282,2.174-3.481,3.202c0.395,0.628,0.444,1.6,1.254,1.811c2.58-0.762,5.098-1.584,7.798-2.228
	c0.484-0.858-0.007-1.667-0.14-2.646C19.289,65.417,16.721,65.463,15.382,64.418z M27.08,71.799
	c-6.324,0.7-12.278,1.949-16.154,5.431c3.555-1.748,7.192-4.12,12.116-4.039c-2.871,0.751-6.232,1.383-8.914,2.785
	c-0.519,0.271-1.021,0.678-1.531,0.975c-0.479,0.279-1.288,0.5-1.393,1.115c3.133-1.234,7.184-3.486,11.838-3.203
	c-4.356,0.844-8.666,1.729-11.698,3.9c2.273-0.845,6.144-2.76,9.191-2.368c-3.234,0.754-6.588,1.396-9.053,2.925
	c1.185,0.021,2.554-0.976,3.899-1.254c-0.059,0.445-1.036,0.604-1.671,0.836c-0.7,0.256-1.393,0.525-1.949,0.696
	c7.83-1.659,16.537-4.375,26.459-4.179c0.341,0.008,0.802-0.033,1.215-0.014c0.414-0.02,0.875,0.021,1.214,0.014
	c9.925-0.196,18.632,2.52,26.461,4.179c-0.557-0.171-1.249-0.44-1.949-0.696c-0.635-0.232-1.613-0.391-1.671-0.836
	c1.347,0.278,2.715,1.275,3.899,1.254c-2.465-1.528-5.818-2.171-9.053-2.925c3.05-0.392,6.917,1.523,9.191,2.368
	c-3.029-2.172-7.342-3.057-11.697-3.9c4.653-0.283,8.703,1.969,11.837,3.203c-0.104-0.615-0.913-0.836-1.394-1.115
	c-0.509-0.297-1.014-0.703-1.531-0.975c-2.681-1.402-6.042-2.034-8.912-2.785c4.923-0.081,8.56,2.291,12.115,4.039
	c-3.876-3.481-9.829-4.73-16.155-5.431c0.36-0.968,1.354-0.271,2.09-0.14c4.062,0.723,8.026,1.518,11.141,3.064
	c1.044,0.518,1.946,1.404,3.063,1.531c-3.354-2.453-7.627-4.297-12.673-5.012c-0.871-0.125-1.992-0.02-2.646-0.697
	c2.213-0.445,4.731,0.746,6.547,0.697c-1.084-0.086-2.128-0.871-3.343-1.115c-0.875-0.174-2.143,0.217-2.646-0.697
	c0.715-0.332,1.017,0.436,1.671,0c-3.664-0.967-8.438-1.635-12.534-1.948c-0.891-0.071-2.116,0.119-3.025-0.087
	c-0.908,0.206-2.136,0.016-3.024,0.087c-4.097,0.313-8.872,0.981-12.534,1.948c0.654,0.436,0.956-0.332,1.671,0
	c-0.503,0.914-1.771,0.523-2.646,0.697c-1.211,0.244-2.259,1.029-3.342,1.115c1.813,0.049,4.332-1.143,6.545-0.697
	c-0.653,0.678-1.775,0.572-2.646,0.697c-5.044,0.715-9.318,2.559-12.673,5.012c1.122-0.127,2.02-1.014,3.064-1.531
	c3.113-1.547,7.079-2.342,11.141-3.064C25.727,71.528,26.721,70.831,27.08,71.799z M14.268,72.636
	c-1.466,0.57-3.512,0.884-3.899,2.227c2.144-1.597,3.803-1.838,5.85-2.787c1.113-0.514-0.426-0.125-0.426-0.133
	C14.82,72.235,14.922,72.379,14.268,72.636z M19.421,71.38c-3.331,1.034-6.533,2.194-8.913,4.178
	C13.154,73.841,16.403,72.728,19.421,71.38z M8.837,62.05c0.278,0,0.178,0.38,0.557,0.279c-0.077-0.201,0.163-0.719-0.139-0.696
	C9.297,61.952,8.853,61.787,8.837,62.05z M12.041,38.933c-4.21,1.733-6.752,5.798-5.989,11.42c0.495,3.658,3.16,7.941,4.316,10.861
	c1.045-0.344,3.087-0.289,3.899,0.697c0.233-2.879,2.337-3.885,4.875-4.455c-1.358-2.516-2.654-5.119-3.899-7.938
	C13.835,46.329,12.151,43.104,12.041,38.933z M6.747,62.747c-1.431-4.232-5.644-7.525-6.545-12.535
	c-0.673-3.74,0.409-6.443,2.089-9.052c2.499-2.792,6.29-4.293,10.306-5.57c2.99-7.31,9.177-10.413,19.219-10.445
	c1.346-1.81,2.186-4.126,5.431-4.038c0.368-0.905,0.197-1.528,0.14-2.646c-0.592-0.429-1.374-0.668-1.671-1.392
	c-0.121-0.677,0.189-0.925,0.278-1.392c-3.203-1.134-1.641-5.393,1.113-5.85c-0.735-1.285-0.352-3.361,0.418-4.317
	c-1.133-0.19-1.462,0.638-2.366,0.278c-0.67-0.568-0.369-1.555-0.559-2.366c0.693-0.497,2.431-0.098,3.621-0.419
	c-0.03-1.036-0.712-1.423-0.557-2.646c0.41-0.109,1.142-0.333,1.752-0.357c0.005,0,0.012,0,0.02,0s0.016,0,0.019,0
	c0.613,0.024,1.344,0.248,1.754,0.357c0.154,1.222-0.527,1.61-0.559,2.646c1.192,0.321,2.93-0.078,3.621,0.419
	c-0.189,0.812,0.114,1.798-0.556,2.366c-0.905,0.36-1.234-0.468-2.368-0.278c0.771,0.956,1.154,3.032,0.418,4.317
	c2.754,0.457,4.317,4.716,1.114,5.85c0.09,0.467,0.398,0.715,0.279,1.392c-0.298,0.724-1.08,0.963-1.672,1.392
	c-0.058,1.118-0.229,1.741,0.139,2.646c3.247-0.088,4.085,2.229,5.432,4.038C57.1,25.177,63.285,28.28,66.274,35.59
	c4.017,1.276,7.808,2.778,10.305,5.57c1.682,2.609,2.763,5.312,2.09,9.052c-0.901,5.01-5.114,8.303-6.544,12.535
	c1.851,0.498,3.473,2.227,3.342,4.178c-0.19,2.784-3.541,3.574-6.128,2.506c-0.499,2.05,3.041,2.36,2.646,4.18
	c-0.163,0.738-0.991,1.332-2.229,1.391c-0.684,1.795-1.389,3.931-1.81,5.572c-0.41,0.007-0.519,0.316-0.697,0.557
	c-6.583,1.068-14.529,2.575-21.863,2.646c-1.28,0.013-2.635-0.146-3.482-0.14c-0.73,0.009-1.694,0.234-2.468,0.209
	c-0.773,0.025-1.737-0.2-2.468-0.209c-0.847-0.006-2.201,0.152-3.482,0.14c-7.329-0.07-15.279-1.577-21.864-2.646
	c-0.177-0.24-0.285-0.55-0.695-0.557c-0.422-1.642-1.126-3.777-1.811-5.572c-1.238-0.059-2.066-0.652-2.228-1.391
	c-0.396-1.819,3.145-2.13,2.645-4.18c-2.586,1.068-5.938,0.278-6.126-2.506C3.273,64.974,4.895,63.245,6.747,62.747z M4.38,66.925
	c0.189,2.051,3.482,2.936,5.014,0.975c0.038-1.185-0.519-1.893-1.253-1.95c-0.983-0.077-1.096,0.999-1.95,1.114
	c-0.487-1.271,0.948-2.08,1.672-2.09c0.881-0.01,1.52,0.546,1.949,1.383c0.712,1.389,0.847,3.543,0.557,5.164
	c-0.584,0.763-1.79,0.9-2.366,1.67c-0.066,0.438,0.374,0.369,0.418,0.697c4.343-1.621,8.676-3.4,13.329-4.784
	c3.78-1.131,7.772-2.001,12.154-2.319c1.661-0.119,3.847-0.505,5.532-0.242c1.688-0.263,3.872,0.123,5.531,0.242
	c4.384,0.318,8.376,1.188,12.156,2.319c4.653,1.384,8.985,3.163,13.33,4.784c0.043-0.328,0.483-0.259,0.417-0.697
	c-0.576-0.77-1.782-0.907-2.367-1.67c-0.29-1.621-0.154-3.775,0.558-5.164c0.43-0.837,1.068-1.393,1.949-1.383
	c0.724,0.01,2.162,0.818,1.672,2.09c-0.854-0.115-0.969-1.191-1.951-1.114c-0.733,0.058-1.291,0.766-1.252,1.95
	c1.531,1.961,4.824,1.076,5.013-0.975c0.259-2.785-3.071-2.488-4.874-3.343c-0.847-0.403-1.075-1.184-1.532-1.393
	c-1.605-0.741-3.582,0.14-3.76,1.532c-0.229,1.794,1.518,2.553,3.343,2.645c0.301-1.008-0.124-1.721-0.696-2.227
	c-0.437-0.146-0.856,0.854-0.975,0.139c0.409-1.97,2.985-0.533,2.646,1.671c-0.021,0.12-0.062,0.233-0.125,0.341
	c-0.182,0.332-0.51,0.639-0.711,1.053c-0.654,1.322-1.107,3.032-1.811,3.203c-2.798-0.763-5.598-2.16-8.635-2.229
	c-0.016-0.17-0.043-0.328-0.279-0.279c-0.483-2.362,0.274-4.629,0.836-6.405c1.397-1.153,4.568-1.505,4.457,1.253
	c-0.313,0.801-2.256,1.59-2.229,0.418c0.396-0.301,1.351-0.043,1.393-0.695c-0.15-1.645-3.16-1.143-3.062,0.418
	c0.135,2.161,4.629,1.342,5.013-0.141c0.606-2.35-1.273-4.232-3.203-4.316c-1.458-0.065-2.307,1.248-3.9,0.416
	c-1.067-2.229-6.054-3.293-5.292,1.254c0.469,1.053,3.401,2.086,3.9,0.836c0.337-0.844-0.622-1.617-1.532-1.809
	c-0.576,0.117-0.735,0.653-1.254,0.833c-0.626-0.986,1.107-1.798,1.812-1.671c3.438,0.632,1.335,7.234-0.976,7.938
	c-1.996-0.203-3.879-0.68-5.85-0.973c-1.457-0.219-3.075-0.26-3.76-1.115c-0.557-0.692-0.765-1.656-0.731-2.641
	c0.066-1.951,1.079-4.002,2.206-4.256c0.583-0.133,1.198,0.219,1.729,1.326c-0.999,0.465-1.276-0.773-2.368-0.279
	c-1.422,3.006,5.993,3.215,4.598-0.697c-0.875-1.689-2.647-1.151-4.059-0.914c-0.349,0.057-0.669,0.096-0.955,0.08
	c-1.652-0.086-2.244-1.795-3.761-1.812c-0.275,0.101-0.483,0.313-0.64,0.581v0.07c-0.003-0.016-0.011-0.023-0.019-0.036
	c-0.008,0.013-0.015,0.021-0.02,0.036v-0.07c-0.154-0.268-0.362-0.48-0.637-0.581c-1.517,0.017-2.108,1.726-3.761,1.812
	c-0.286,0.016-0.608-0.023-0.956-0.08c-1.411-0.237-3.184-0.775-4.059,0.914c-1.395,3.912,6.019,3.703,4.596,0.697
	c-1.09-0.494-1.368,0.744-2.366,0.279c0.528-1.107,1.146-1.459,1.729-1.326c1.126,0.254,2.14,2.305,2.204,4.256
	c0.036,0.984-0.173,1.948-0.729,2.641c-0.686,0.855-2.303,0.896-3.761,1.115c-1.968,0.293-3.853,0.77-5.849,0.973
	c-2.311-0.703-4.414-7.306-0.976-7.938c0.704-0.127,2.438,0.685,1.812,1.671c-0.52-0.18-0.678-0.716-1.254-0.833
	c-0.909,0.191-1.868,0.965-1.532,1.809c0.499,1.25,3.433,0.217,3.899-0.836c0.762-4.547-4.224-3.482-5.292-1.254
	c-1.593,0.832-2.441-0.481-3.899-0.416c-1.931,0.084-3.811,1.967-3.203,4.316c0.384,1.482,4.879,2.302,5.014,0.141
	c0.097-1.561-2.913-2.062-3.064-0.418c0.043,0.652,0.999,0.395,1.394,0.695c0.031,1.172-1.915,0.383-2.229-0.418
	c-0.111-2.758,3.061-2.406,4.457-1.253c0.562,1.776,1.32,4.043,0.836,6.405c-0.236-0.049-0.263,0.109-0.278,0.279
	c-3.037,0.068-5.838,1.466-8.634,2.229c-0.705-0.171-1.157-1.881-1.812-3.203c-0.221-0.449-0.583-0.77-0.754-1.135
	c-0.039-0.084-0.065-0.168-0.082-0.259c-0.34-2.204,2.237-3.641,2.647-1.671c-0.12,0.716-0.539-0.285-0.976-0.139
	c-0.572,0.506-0.998,1.219-0.696,2.227c1.826-0.092,3.57-0.851,3.342-2.645c-0.177-1.393-2.153-2.273-3.76-1.532
	c-0.456,0.209-0.685,0.989-1.531,1.393C7.452,64.437,4.121,64.14,4.38,66.925z M4.937,47.567c0.245-3.686,2.039-6.581,4.039-8.078
	c1.199-0.898,2.991-1.024,3.343-2.646C7.22,38.36,1.835,40.804,1.037,46.175c-1.052,7.074,3.95,9.888,5.851,14.762
	c0.692-0.445,1.021-0.109,1.393,0.417c0.115,0.531-0.674,0.161-0.557,0.696c0.517-0.271,1.159-0.417,1.392-0.975
	C7.912,56.72,4.597,52.755,4.937,47.567z"/>
</svg>
